<svg width="101" height="101" viewBox="0 0 101 101" fill="none" xmlns="http://www.w3.org/2000/svg">
<path fill-rule="evenodd" clip-rule="evenodd" d="M57.2011 29.522C53.1965 29.5012 49.1927 29.4804 45.1843 29.5338C45.1663 29.5343 45.1493 29.5416 45.1367 29.5541C45.1242 29.5666 45.1172 29.5834 45.1172 29.6009L45.133 33.0826C45.1335 33.1095 45.1449 33.1351 45.1649 33.1539C45.1848 33.1727 45.2116 33.1832 45.2395 33.1832L62.2418 33.201C62.2726 33.2009 62.3028 33.2087 62.3297 33.2235C62.3566 33.2383 62.3793 33.2598 62.3957 33.2858L72.4049 48.85C72.4199 48.873 72.443 48.8895 72.4692 48.8957C72.4954 48.902 72.5226 48.8976 72.545 48.8836L75.4251 47.0648C75.4449 47.0525 75.4619 47.0363 75.4752 47.0171C75.4886 46.9978 75.4979 46.9759 75.5026 46.9526C75.5074 46.9292 75.5075 46.905 75.503 46.8813C75.4985 46.8575 75.4895 46.8348 75.4764 46.8143L64.4354 29.6265C64.4191 29.6006 64.3967 29.5793 64.3705 29.5648C64.3442 29.5503 64.3149 29.543 64.2855 29.5437C61.923 29.5466 59.5619 29.5343 57.2011 29.522ZM35.0482 35.7224C35.042 35.6998 35.027 35.6807 35.0067 35.6691L31.9964 33.9312C31.982 33.9228 31.966 33.9173 31.9494 33.9151C31.9328 33.913 31.9159 33.9141 31.8997 33.9185C31.8836 33.9229 31.8685 33.9305 31.8553 33.9408C31.8421 33.9511 31.831 33.9639 31.8229 33.9785L22.0227 51.0815C22.0082 51.1075 22.0004 51.1368 22 51.1668C21.9997 51.1967 22.0068 51.2264 22.0207 51.2531L31.3021 68.8867C31.3092 68.9007 31.3191 68.9132 31.3311 68.9234C31.343 68.9336 31.3569 68.9413 31.3717 68.9461C31.3866 68.9509 31.4023 68.9526 31.4177 68.9512C31.4332 68.9498 31.4482 68.9453 31.4619 68.938L34.5293 67.2947C34.541 67.2885 34.5513 67.2801 34.5597 67.2698C34.5681 67.2596 34.5744 67.2479 34.5782 67.2352C34.5821 67.2226 34.5834 67.2093 34.5821 67.1962C34.5808 67.183 34.577 67.1703 34.5708 67.1586L26.2323 51.3557C26.2154 51.3231 26.2069 51.2869 26.2076 51.2504C26.2083 51.2138 26.2182 51.1781 26.2363 51.1466L35.0403 35.7894C35.0516 35.769 35.0545 35.7449 35.0482 35.7224ZM43.5334 74.3142C43.5322 74.2757 43.5462 74.2382 43.5725 74.21C43.5988 74.1818 43.6352 74.1652 43.6737 74.1637L60.2313 73.5364C60.2542 73.5354 60.2764 73.5285 60.2958 73.5165C60.3152 73.5046 60.3311 73.4879 60.342 73.468L69.0645 57.8907C69.0709 57.879 69.0795 57.8687 69.0899 57.8604C69.1002 57.852 69.112 57.8458 69.1247 57.8421C69.1373 57.8384 69.1505 57.8372 69.1635 57.8387C69.1765 57.8401 69.1891 57.8442 69.2004 57.8506L72.2194 59.5247C72.2345 59.5329 72.2476 59.5442 72.2582 59.5577C72.2687 59.5713 72.2764 59.587 72.2808 59.6038C72.2853 59.6206 72.2863 59.6382 72.2839 59.6556C72.2815 59.6731 72.2757 59.6899 72.2668 59.7051L62.5684 77.0528C62.5535 77.0788 62.5319 77.1005 62.5058 77.116C62.4796 77.1315 62.4497 77.1402 62.4189 77.1412L43.8131 77.8525C43.7923 77.8533 43.7716 77.8499 43.7521 77.8426C43.7326 77.8353 43.7147 77.8242 43.6996 77.81C43.6844 77.7957 43.6722 77.7786 43.6636 77.7596C43.6551 77.7407 43.6503 77.7202 43.6497 77.6994L43.5334 74.3142ZM48 47.9141C48 46.8095 48.8954 45.9141 50 45.9141C51.1046 45.9141 52 46.8095 52 47.9141V49.9141H54C55.1046 49.9141 56 50.8095 56 51.9141C56 53.0186 55.1046 53.9141 54 53.9141H52V55.9141C52 57.0186 51.1046 57.9141 50 57.9141C48.8954 57.9141 48 57.0186 48 55.9141V53.9141H46C44.8954 53.9141 44 53.0186 44 51.9141C44 50.8095 44.8954 49.9141 46 49.9141H48V47.9141Z" fill="url(#paint0_linear_785_9421)"/>
<defs>
<linearGradient id="paint0_linear_785_9421" x1="48.7532" y1="29.5" x2="48.7532" y2="77.8526" gradientUnits="userSpaceOnUse">
<stop stop-color="#D0CB53"/>
<stop offset="0.335931" stop-color="#97DE7E"/>
<stop offset="0.632818" stop-color="#71CAC0"/>
<stop offset="1" stop-color="#9964AD"/>
</linearGradient>
</defs>
</svg>
