<svg width="102" height="101" viewBox="0 0 102 101" fill="none" xmlns="http://www.w3.org/2000/svg">
<path fill-rule="evenodd" clip-rule="evenodd" d="M57.7011 29.522C53.6965 29.5012 49.6927 29.4804 45.6843 29.5338C45.6663 29.5343 45.6493 29.5416 45.6367 29.5541C45.6242 29.5666 45.6172 29.5834 45.6172 29.6009L45.633 33.0826C45.6335 33.1095 45.6449 33.1351 45.6649 33.1539C45.6848 33.1727 45.7116 33.1832 45.7395 33.1832L62.7418 33.201C62.7726 33.2009 62.8028 33.2087 62.8297 33.2235C62.8566 33.2383 62.8793 33.2598 62.8957 33.2858L72.9049 48.85C72.9199 48.873 72.943 48.8895 72.9692 48.8957C72.9954 48.902 73.0226 48.8976 73.045 48.8836L75.9251 47.0648C75.9449 47.0525 75.9619 47.0363 75.9752 47.0171C75.9886 46.9978 75.9979 46.9759 76.0026 46.9526C76.0074 46.9292 76.0075 46.905 76.003 46.8813C75.9985 46.8575 75.9895 46.8348 75.9764 46.8143L64.9354 29.6265C64.9191 29.6006 64.8967 29.5793 64.8705 29.5648C64.8442 29.5503 64.8149 29.543 64.7855 29.5437C62.423 29.5466 60.0619 29.5343 57.7011 29.522ZM35.5482 35.7224C35.542 35.6998 35.527 35.6807 35.5067 35.6691L32.4964 33.9312C32.482 33.9228 32.466 33.9173 32.4494 33.9151C32.4328 33.913 32.4159 33.9141 32.3997 33.9185C32.3836 33.9229 32.3685 33.9305 32.3553 33.9408C32.3421 33.9511 32.331 33.9639 32.3229 33.9785L22.5227 51.0815C22.5082 51.1075 22.5004 51.1368 22.5 51.1668C22.4997 51.1967 22.5068 51.2264 22.5207 51.2531L31.8021 68.8867C31.8092 68.9007 31.8191 68.9132 31.8311 68.9234C31.843 68.9336 31.8569 68.9413 31.8717 68.9461C31.8866 68.9509 31.9023 68.9526 31.9177 68.9512C31.9332 68.9498 31.9482 68.9453 31.9619 68.938L35.0293 67.2947C35.041 67.2885 35.0513 67.2801 35.0597 67.2698C35.0681 67.2596 35.0744 67.2479 35.0782 67.2352C35.0821 67.2226 35.0834 67.2093 35.0821 67.1962C35.0808 67.183 35.077 67.1703 35.0708 67.1586L26.7323 51.3557C26.7154 51.3231 26.7069 51.2869 26.7076 51.2504C26.7083 51.2138 26.7182 51.1781 26.7363 51.1466L35.5403 35.7894C35.5516 35.769 35.5545 35.7449 35.5482 35.7224ZM44.0334 74.3142C44.0322 74.2757 44.0462 74.2382 44.0725 74.21C44.0988 74.1818 44.1352 74.1652 44.1737 74.1637L60.7313 73.5364C60.7542 73.5354 60.7764 73.5285 60.7958 73.5165C60.8152 73.5046 60.8311 73.4879 60.842 73.468L69.5645 57.8907C69.5709 57.879 69.5795 57.8687 69.5899 57.8604C69.6002 57.852 69.612 57.8458 69.6247 57.8421C69.6373 57.8384 69.6505 57.8372 69.6635 57.8387C69.6765 57.8401 69.6891 57.8442 69.7004 57.8506L72.7194 59.5247C72.7345 59.5329 72.7476 59.5442 72.7582 59.5577C72.7687 59.5713 72.7764 59.587 72.7808 59.6038C72.7853 59.6206 72.7863 59.6382 72.7839 59.6556C72.7815 59.6731 72.7757 59.6899 72.7668 59.7051L63.0684 77.0528C63.0535 77.0788 63.0319 77.1005 63.0058 77.116C62.9796 77.1315 62.9497 77.1402 62.9189 77.1412L44.3131 77.8525C44.2923 77.8533 44.2716 77.8499 44.2521 77.8426C44.2326 77.8353 44.2147 77.8242 44.1996 77.81C44.1844 77.7957 44.1722 77.7786 44.1636 77.7596C44.1551 77.7407 44.1503 77.7202 44.1497 77.6994L44.0334 74.3142ZM48.5 47.9141C48.5 46.8095 49.3954 45.9141 50.5 45.9141C51.6046 45.9141 52.5 46.8095 52.5 47.9141V49.9141H54.5C55.6046 49.9141 56.5 50.8095 56.5 51.9141C56.5 53.0186 55.6046 53.9141 54.5 53.9141H52.5V55.9141C52.5 57.0186 51.6046 57.9141 50.5 57.9141C49.3954 57.9141 48.5 57.0186 48.5 55.9141V53.9141H46.5C45.3954 53.9141 44.5 53.0186 44.5 51.9141C44.5 50.8095 45.3954 49.9141 46.5 49.9141H48.5V47.9141Z" fill="#BFBFBF"/>
</svg>
