<svg width="174" height="174" viewBox="0 0 174 174" fill="none" xmlns="http://www.w3.org/2000/svg">
<path fill-rule="evenodd" clip-rule="evenodd" d="M19.1592 127.504C32.9558 150.562 58.175 166 87 166C130.63 166 166 130.63 166 87C166 43.3695 130.63 8 87 8C58.175 8 32.9558 23.4378 19.1592 46.4965C31.069 31.5669 49.4173 22 70 22C105.899 22 135 51.1015 135 87C135 122.899 105.899 152 70 152C49.4173 152 31.069 142.433 19.1592 127.504ZM0 87C0 38.9512 38.9512 0 87 0C135.049 0 174 38.9512 174 87C174 135.049 135.049 174 87 174C38.9512 174 0 135.049 0 87Z" fill="#BFBFBF"/>
</svg>
