<svg width="86" height="86" viewBox="0 0 86 86" fill="none" xmlns="http://www.w3.org/2000/svg">
<path d="M28.5738 17.7L57.6973 17.8566L72.1235 43.1566L57.4261 68.3L28.3026 68.1434L13.8764 42.8434L28.5738 17.7Z" stroke="url(#paint0_linear_786_9341)" stroke-width="4"/>
<g clip-path="url(#clip0_786_9341)">
<path d="M40.2996 30.0176H44.5373C44.9299 30.0663 45.1655 30.2693 45.2439 30.6264C45.3799 31.2466 45.5147 31.8672 45.6483 32.4881C45.65 32.4956 45.6535 32.5025 45.6586 32.5082C45.6637 32.5139 45.6702 32.5181 45.6774 32.5205C46.1646 32.6836 46.6407 32.8804 47.1057 33.1109C47.1121 33.1141 47.1194 33.1156 47.1268 33.1152C47.1342 33.1148 47.1414 33.1125 47.1478 33.1085C47.6185 32.8082 48.0891 32.5066 48.5596 32.2038C49.1587 31.8183 49.4226 31.8885 49.9321 32.396C50.791 33.2513 51.6479 34.1084 52.5029 34.9673C52.9847 35.4506 52.9736 35.7335 52.5973 36.3195C52.3057 36.7734 52.0147 37.2285 51.7241 37.6848C51.7202 37.691 51.718 37.6981 51.7177 37.7056C51.7174 37.713 51.7189 37.7205 51.7221 37.7274C51.9478 38.1897 52.1458 38.6658 52.3159 39.1556C52.3184 39.1626 52.3227 39.1688 52.3283 39.1737C52.3338 39.1786 52.3406 39.1821 52.3479 39.1837C52.9013 39.3029 53.4518 39.4231 53.9994 39.5445C54.4711 39.6491 54.7598 39.8032 54.814 40.3001V44.5378C54.7447 45.0851 54.4207 45.1975 53.9016 45.3108C53.3827 45.4244 52.8633 45.5371 52.3435 45.6488C52.3363 45.6503 52.3296 45.6536 52.3241 45.6585C52.3186 45.6633 52.3144 45.6695 52.312 45.6764C52.15 46.1591 51.9548 46.631 51.7265 47.0921C51.721 47.103 51.7185 47.1152 51.7192 47.1274C51.7199 47.1396 51.7237 47.1515 51.7304 47.1618C52.0294 47.6268 52.3283 48.0928 52.6273 48.5601C53.0119 49.1606 52.9436 49.4216 52.4351 49.9326C51.572 50.8002 50.7067 51.6652 49.8391 52.5276C49.5287 52.8356 49.1621 53.0148 48.7741 52.7654C48.2346 52.4183 47.693 52.0718 47.1492 51.726C47.1431 51.722 47.1361 51.7197 47.1287 51.7193C47.1213 51.7189 47.1139 51.7203 47.1071 51.7236C46.6428 51.9473 46.1659 52.1451 45.6764 52.3169C45.6695 52.3194 45.6633 52.3236 45.6583 52.3292C45.6534 52.3348 45.65 52.3416 45.6483 52.3488C45.5137 52.9678 45.3794 53.5834 45.2454 54.1955C45.1656 54.5614 44.9277 54.7677 44.5315 54.8145H40.2938C39.9002 54.7644 39.664 54.5581 39.5852 54.1955C39.4522 53.5824 39.318 52.9672 39.1827 52.3498C39.1811 52.3425 39.1777 52.3358 39.1729 52.3302C39.1681 52.3246 39.162 52.3204 39.1551 52.3179C38.6653 52.1438 38.186 51.9456 37.7172 51.7231C37.7104 51.7199 37.7029 51.7184 37.6954 51.7188C37.6879 51.7192 37.6808 51.7215 37.6746 51.7255C37.2116 52.0252 36.7478 52.3237 36.2832 52.621C35.6627 53.0182 35.408 52.9426 34.882 52.4191C33.492 51.0346 32.5983 50.1407 32.2009 49.7374C31.8018 49.3321 31.9461 48.9596 32.2319 48.516C32.5244 48.061 32.8161 47.6048 33.107 47.1473C33.111 47.1411 33.1133 47.134 33.1136 47.1265C33.114 47.119 33.1123 47.1115 33.109 47.1047C32.8836 46.6423 32.6855 46.1662 32.5147 45.6764C32.5122 45.6693 32.5079 45.663 32.5023 45.6581C32.4967 45.6532 32.49 45.6498 32.4827 45.6484C31.9316 45.5308 31.383 45.4109 30.837 45.2885C30.3614 45.182 30.0713 45.0328 30.0171 44.532V40.2943C30.1062 39.6768 30.4825 39.6196 31.0695 39.4917C31.5409 39.3891 32.0138 39.2846 32.4881 39.1784C32.4952 39.1768 32.5018 39.1733 32.5073 39.1683C32.5128 39.1633 32.517 39.157 32.5195 39.1498C32.6852 38.6655 32.8799 38.1957 33.1036 37.7405C33.1093 37.7289 33.1118 37.7161 33.111 37.7032C33.1103 37.6903 33.1062 37.6778 33.0993 37.6668C32.82 37.2326 32.5402 36.797 32.26 36.3602C31.9568 35.888 31.7829 35.5228 32.2072 35.0884C32.4829 34.8058 33.3802 33.9084 34.899 32.396C35.4099 31.8875 35.671 31.8197 36.271 32.2043C36.7421 32.5058 37.213 32.8071 37.6838 33.108C37.6902 33.1121 37.6974 33.1146 37.7049 33.1151C37.7124 33.1156 37.7198 33.1141 37.7264 33.1109C38.1952 32.8787 38.6676 32.6824 39.1435 32.522C39.1542 32.5184 39.1637 32.5121 39.1712 32.5037C39.1786 32.4953 39.1838 32.4851 39.1861 32.474C39.2998 31.9442 39.4133 31.4229 39.5266 30.9102C39.6399 30.3978 39.7571 30.0786 40.2996 30.0176ZM46.8553 42.416C46.8553 41.2386 46.3875 40.1093 45.5549 39.2767C44.7223 38.4441 43.593 37.9763 42.4155 37.9763C41.2381 37.9763 40.1088 38.4441 39.2762 39.2767C38.4436 40.1093 37.9758 41.2386 37.9758 42.416C37.9758 43.5935 38.4436 44.7228 39.2762 45.5554C40.1088 46.388 41.2381 46.8557 42.4155 46.8557C43.593 46.8557 44.7223 46.388 45.5549 45.5554C46.3875 44.7228 46.8553 43.5935 46.8553 42.416Z" fill="url(#paint1_linear_786_9341)"/>
</g>
<defs>
<linearGradient id="paint0_linear_786_9341" x1="58.8628" y1="15.8628" x2="27.1371" y2="70.1372" gradientUnits="userSpaceOnUse">
<stop stop-color="#CECC55"/>
<stop offset="0.330722" stop-color="#9ADD7C"/>
<stop offset="0.632818" stop-color="#73C5BF"/>
<stop offset="1" stop-color="#976AAE"/>
</linearGradient>
<linearGradient id="paint1_linear_786_9341" x1="42.4155" y1="30.0176" x2="42.4155" y2="54.8145" gradientUnits="userSpaceOnUse">
<stop stop-color="#CECC55"/>
<stop offset="0.330722" stop-color="#9ADD7C"/>
<stop offset="0.632818" stop-color="#73C5BF"/>
<stop offset="1" stop-color="#976AAE"/>
</linearGradient>
<clipPath id="clip0_786_9341">
<rect width="24.7969" height="24.7969" fill="white" transform="translate(30.0171 30.0176)"/>
</clipPath>
</defs>
</svg>
