<svg width="142" height="137" viewBox="0 0 142 137" fill="none" xmlns="http://www.w3.org/2000/svg">
<path fill-rule="evenodd" clip-rule="evenodd" d="M142 70.5555V67.0887C141.079 36.42 119.821 9.81167 89.9093 2.68393C57.7707 -4.97353 24.9305 11.3953 11.801 41.709C11.1169 43.288 10.7323 44.3086 10.6473 44.7709C9.82632 49.2416 15.3926 52.0428 18.51 48.809C18.9149 48.3874 19.3337 47.6534 19.7663 46.6069C29.2792 23.6012 51.4001 9.27917 76.3278 10.1473C109.357 11.2982 135.255 40.3084 132.548 73.2957C129.994 104.444 103.693 128.176 72.4311 127.353C48.8846 126.731 28.4527 112.26 19.6443 90.5853C19.2837 89.6978 18.9093 89.0571 18.521 88.6633C16.294 86.4113 12.5415 86.9576 11.0938 89.7976C10.0564 91.8312 10.733 93.3537 11.7019 95.5338C11.7795 95.7085 11.859 95.8874 11.9397 96.0711C28.8271 134.547 75.7731 148.264 110.871 125.766C129.755 113.66 141.235 92.9177 142 70.5555ZM0 68.3034V69.2048C0.576875 71.9893 2.33339 73.3816 5.26953 73.3816C31.1328 73.3834 56.9488 73.3825 82.7178 73.3788C82.8842 73.3788 82.9082 73.4371 82.7899 73.5536C77.4205 78.9211 72.09 84.2516 66.7982 89.5452C64.9816 91.3618 64.083 93.3864 65.5058 95.8354C66.6291 97.7712 69.311 98.5977 71.2801 97.6936C71.8681 97.4236 72.7796 96.6711 74.0147 95.436C81.6842 87.7572 89.3592 80.085 97.0398 72.4192C98.5791 70.8827 99.3251 69.1271 98.4931 67.0776C98.2231 66.4175 97.5307 65.5318 96.4158 64.4206C88.7204 56.7511 81.0343 49.0715 73.3574 41.3817C72.5698 40.5922 71.9226 40.0791 71.416 39.8424C67.6081 38.0646 63.5089 41.9918 65.1924 45.8414C65.4457 46.4201 66.0707 47.205 67.0673 48.196C72.3257 53.4378 77.5786 58.6962 82.8259 63.9713C82.9054 64.049 82.8897 64.0878 82.7788 64.0878C57.3723 64.0952 31.9722 64.0952 6.57859 64.0878C4.73703 64.0878 3.46865 64.233 2.77344 64.5232C1.26654 65.15 0.342057 66.4101 0 68.3034Z" fill="url(#paint0_linear_1039_20725)"/>
<defs>
<linearGradient id="paint0_linear_1039_20725" x1="71" y1="0.810547" x2="71" y2="136.62" gradientUnits="userSpaceOnUse">
<stop stop-color="#D4C951"/>
<stop offset="0.331596" stop-color="#C3D15A"/>
<stop offset="0.659721" stop-color="#6FD1C2"/>
<stop offset="1" stop-color="#9470B0"/>
</linearGradient>
</defs>
</svg>
