<svg width="142" height="136" viewBox="0 0 142 136" fill="none" xmlns="http://www.w3.org/2000/svg">
<path fill-rule="evenodd" clip-rule="evenodd" d="M142 69.745V66.2782C141.079 35.6095 119.821 9.00112 89.9093 1.87338C57.7707 -5.78408 24.9305 10.5848 11.801 40.8984C11.1169 42.4774 10.7323 43.4981 10.6473 43.9603C9.82632 48.4311 15.3926 51.2323 18.51 47.9984C18.9149 47.5769 19.3337 46.8428 19.7663 45.7963C29.2792 22.7907 51.4001 8.46862 76.3278 9.33671C109.357 10.4877 135.255 39.4978 132.548 72.4851C129.994 103.634 103.693 127.366 72.4311 126.542C48.8846 125.921 28.4527 111.449 19.6443 89.7747C19.2837 88.8872 18.9093 88.2466 18.521 87.8527C16.294 85.6007 12.5415 86.1471 11.0938 88.9871C10.0564 91.0207 10.733 92.5432 11.7019 94.7232C11.7795 94.8979 11.859 95.0769 11.9397 95.2606C28.8271 133.736 75.7731 147.454 110.871 124.956C129.755 112.85 141.235 92.1072 142 69.745ZM0 67.4929V68.3943C0.576875 71.1788 2.33339 72.5711 5.26953 72.5711C31.1328 72.5729 56.9488 72.572 82.7178 72.5683C82.8842 72.5683 82.9082 72.6265 82.7899 72.743C77.4205 78.1105 72.09 83.4411 66.7982 88.7346C64.9816 90.5512 64.083 92.5759 65.5058 95.0248C66.6291 96.9607 69.311 97.7871 71.2801 96.883C71.8681 96.6131 72.7796 95.8605 74.0147 94.6254C81.6842 86.9467 89.3592 79.2745 97.0398 71.6087C98.5791 70.0722 99.3251 68.3166 98.4931 66.267C98.2231 65.6069 97.5307 64.7213 96.4158 63.6101C88.7204 55.9406 81.0343 48.2609 73.3574 40.5711C72.5698 39.7816 71.9226 39.2685 71.416 39.0319C67.6081 37.2541 63.5089 41.1813 65.1924 45.0308C65.4457 45.6095 66.0707 46.3944 67.0673 47.3855C72.3257 52.6273 77.5786 57.8857 82.8259 63.1608C82.9054 63.2384 82.8897 63.2773 82.7788 63.2773C57.3723 63.2847 31.9722 63.2847 6.57859 63.2773C4.73703 63.2773 3.46865 63.4224 2.77344 63.7127C1.26654 64.3395 0.342057 65.5996 0 67.4929Z" fill="#E3E3E3"/>
</svg>
