<svg width="50" height="42" viewBox="0 0 50 42" fill="none" xmlns="http://www.w3.org/2000/svg">
<mask id="path-1-inside-1_772_9240" fill="white">
<path fill-rule="evenodd" clip-rule="evenodd" d="M15.309 4.03775L34.775 4.14242L37.571 9.046L27.4696 8.99168L21.4138 19.3516L27.3578 29.776L39.2807 29.8401L34.5937 37.8584L15.1277 37.7537L5.48543 20.8434L15.309 4.03775ZM37.1058 0.154898L49.036 21.0776L36.8815 41.8707L12.7969 41.7412L0.866699 20.8186L13.0212 0.0253906L37.1058 0.154898Z"/>
</mask>
<path fill-rule="evenodd" clip-rule="evenodd" d="M15.309 4.03775L34.775 4.14242L37.571 9.046L27.4696 8.99168L21.4138 19.3516L27.3578 29.776L39.2807 29.8401L34.5937 37.8584L15.1277 37.7537L5.48543 20.8434L15.309 4.03775ZM37.1058 0.154898L49.036 21.0776L36.8815 41.8707L12.7969 41.7412L0.866699 20.8186L13.0212 0.0253906L37.1058 0.154898Z" fill="#BFBFBF"/>
<path d="M34.775 4.14242L36.5124 3.15175L35.9404 2.14866L34.7857 2.14245L34.775 4.14242ZM15.309 4.03775L15.3198 2.03778L14.1651 2.03157L13.5824 3.02845L15.309 4.03775ZM37.571 9.046L37.5602 11.046L41.0243 11.0646L39.3084 8.05533L37.571 9.046ZM27.4696 8.99168L27.4804 6.99171L26.3257 6.98551L25.743 7.98239L27.4696 8.99168ZM21.4138 19.3516L19.6872 18.3423L19.1044 19.3392L19.6764 20.3422L21.4138 19.3516ZM27.3578 29.776L25.6204 30.7667L26.1924 31.7698L27.3471 31.776L27.3578 29.776ZM39.2807 29.8401L41.0073 30.8494L42.7555 27.8588L39.2914 27.8401L39.2807 29.8401ZM34.5937 37.8584L34.5829 39.8583L35.7376 39.8646L36.3203 38.8677L34.5937 37.8584ZM15.1277 37.7537L13.3903 38.7444L13.9623 39.7475L15.117 39.7537L15.1277 37.7537ZM5.48543 20.8434L3.75878 19.8341L3.17607 20.831L3.74803 21.8341L5.48543 20.8434ZM49.036 21.0776L50.7627 22.0869L51.3454 21.09L50.7734 20.0869L49.036 21.0776ZM37.1058 0.154898L38.8432 -0.835775L38.2713 -1.83886L37.1166 -1.84507L37.1058 0.154898ZM36.8815 41.8707L36.8708 43.8707L38.0254 43.8769L38.6082 42.88L36.8815 41.8707ZM12.7969 41.7412L11.0595 42.7319L11.6314 43.735L12.7861 43.7412L12.7969 41.7412ZM0.866699 20.8186L-0.859949 19.8093L-1.44267 20.8061L-0.870704 21.8092L0.866699 20.8186ZM13.0212 0.0253906L13.0319 -1.97458L11.8773 -1.98079L11.2945 -0.983908L13.0212 0.0253906ZM34.7857 2.14245L15.3198 2.03778L15.2983 6.03772L34.7642 6.14239L34.7857 2.14245ZM39.3084 8.05533L36.5124 3.15175L33.0376 5.13309L35.8336 10.0367L39.3084 8.05533ZM27.4589 10.9917L37.5602 11.046L37.5817 7.04603L27.4804 6.99171L27.4589 10.9917ZM23.1405 20.3609L29.1963 10.001L25.743 7.98239L19.6872 18.3423L23.1405 20.3609ZM29.0952 28.7853L23.1512 18.3609L19.6764 20.3422L25.6204 30.7667L29.0952 28.7853ZM39.2914 27.8401L27.3686 27.776L27.3471 31.776L39.2699 31.8401L39.2914 27.8401ZM36.3203 38.8677L41.0073 30.8494L37.554 28.8308L32.867 36.8491L36.3203 38.8677ZM15.117 39.7537L34.5829 39.8583L34.6044 35.8584L15.1385 35.7537L15.117 39.7537ZM3.74803 21.8341L13.3903 38.7444L16.8651 36.763L7.22284 19.8527L3.74803 21.8341ZM13.5824 3.02845L3.75878 19.8341L7.21208 21.8527L17.0357 5.04705L13.5824 3.02845ZM50.7734 20.0869L38.8432 -0.835775L35.3684 1.14557L47.2986 22.0682L50.7734 20.0869ZM38.6082 42.88L50.7627 22.0869L47.3094 20.0683L35.1549 40.8614L38.6082 42.88ZM12.7861 43.7412L36.8708 43.8707L36.8923 39.8708L12.8076 39.7413L12.7861 43.7412ZM-0.870704 21.8092L11.0595 42.7319L14.5343 40.7506L2.6041 19.8279L-0.870704 21.8092ZM11.2945 -0.983908L-0.859949 19.8093L2.59335 21.8279L14.7478 1.03469L11.2945 -0.983908ZM37.1166 -1.84507L13.0319 -1.97458L13.0104 2.02536L37.0951 2.15487L37.1166 -1.84507Z" fill="#BFBFBF" mask="url(#path-1-inside-1_772_9240)"/>
</svg>
