<svg width="50" height="43" viewBox="0 0 50 43" fill="none" xmlns="http://www.w3.org/2000/svg">
<mask id="path-1-inside-1_772_9244" fill="white">
<path fill-rule="evenodd" clip-rule="evenodd" d="M15.3095 4.93228L34.7754 5.03695L37.5715 9.94053L27.4701 9.88622L21.4143 20.2461L27.3583 30.6705L39.2812 30.7346L34.5942 38.7529L15.1282 38.6482L5.48592 21.7379L15.3095 4.93228ZM37.1063 1.04943L49.0365 21.9721L36.882 42.7653L12.7974 42.6358L0.867188 21.7131L13.0217 0.919922L37.1063 1.04943Z"/>
</mask>
<path fill-rule="evenodd" clip-rule="evenodd" d="M15.3095 4.93228L34.7754 5.03695L37.5715 9.94053L27.4701 9.88622L21.4143 20.2461L27.3583 30.6705L39.2812 30.7346L34.5942 38.7529L15.1282 38.6482L5.48592 21.7379L15.3095 4.93228ZM37.1063 1.04943L49.0365 21.9721L36.882 42.7653L12.7974 42.6358L0.867188 21.7131L13.0217 0.919922L37.1063 1.04943Z" fill="url(#paint0_linear_772_9244)"/>
<path d="M34.7754 5.03695L36.5128 4.04628L35.9409 3.04319L34.7862 3.03698L34.7754 5.03695ZM15.3095 4.93228L15.3203 2.93231L14.1656 2.9261L13.5829 3.92298L15.3095 4.93228ZM37.5715 9.94053L37.5607 11.9405L41.0248 11.9591L39.3089 8.94986L37.5715 9.94053ZM27.4701 9.88622L27.4808 7.88625L26.3262 7.88004L25.7434 8.87692L27.4701 9.88622ZM21.4143 20.2461L19.6877 19.2368L19.1049 20.2337L19.6769 21.2368L21.4143 20.2461ZM27.3583 30.6705L25.6209 31.6612L26.1929 32.6643L27.3476 32.6705L27.3583 30.6705ZM39.2812 30.7346L41.0078 31.7439L42.756 28.7533L39.2919 28.7347L39.2812 30.7346ZM34.5942 38.7529L34.5834 40.7529L35.7381 40.7591L36.3208 39.7622L34.5942 38.7529ZM15.1282 38.6482L13.3908 39.6389L13.9628 40.642L15.1175 40.6482L15.1282 38.6482ZM5.48592 21.7379L3.75927 20.7286L3.17655 21.7255L3.74852 22.7286L5.48592 21.7379ZM49.0365 21.9721L50.7631 22.9814L51.3459 21.9845L50.7739 20.9814L49.0365 21.9721ZM37.1063 1.04943L38.8437 0.0587565L38.2718 -0.944333L37.1171 -0.950542L37.1063 1.04943ZM36.882 42.7653L36.8713 44.7652L38.0259 44.7715L38.6087 43.7746L36.882 42.7653ZM12.7974 42.6358L11.06 43.6264L11.6319 44.6295L12.7866 44.6357L12.7974 42.6358ZM0.867188 21.7131L-0.859461 20.7038L-1.44218 21.7007L-0.870215 22.7038L0.867188 21.7131ZM13.0217 0.919922L13.0324 -1.08005L11.8777 -1.08626L11.295 -0.089377L13.0217 0.919922ZM34.7862 3.03698L15.3203 2.93231L15.2988 6.93225L34.7647 7.03692L34.7862 3.03698ZM39.3089 8.94986L36.5128 4.04628L33.038 6.02763L35.8341 10.9312L39.3089 8.94986ZM27.4593 11.8862L37.5607 11.9405L37.5822 7.94056L27.4808 7.88625L27.4593 11.8862ZM23.1409 21.2554L29.1967 10.8955L25.7434 8.87692L19.6877 19.2368L23.1409 21.2554ZM29.0957 29.6799L23.1517 19.2554L19.6769 21.2368L25.6209 31.6612L29.0957 29.6799ZM39.2919 28.7347L27.3691 28.6706L27.3476 32.6705L39.2704 32.7346L39.2919 28.7347ZM36.3208 39.7622L41.0078 31.7439L37.5545 29.7253L32.8675 37.7436L36.3208 39.7622ZM15.1175 40.6482L34.5834 40.7529L34.6049 36.7529L15.139 36.6483L15.1175 40.6482ZM3.74852 22.7286L13.3908 39.6389L16.8656 37.6576L7.22332 20.7473L3.74852 22.7286ZM13.5829 3.92298L3.75927 20.7286L7.21257 22.7472L17.0362 5.94158L13.5829 3.92298ZM50.7739 20.9814L38.8437 0.0587565L35.3689 2.0401L47.2991 22.9628L50.7739 20.9814ZM38.6087 43.7746L50.7631 22.9814L47.3098 20.9628L35.1554 41.756L38.6087 43.7746ZM12.7866 44.6357L36.8713 44.7652L36.8928 40.7653L12.8081 40.6358L12.7866 44.6357ZM-0.870215 22.7038L11.06 43.6264L14.5348 41.6451L2.60459 20.7224L-0.870215 22.7038ZM11.295 -0.089377L-0.859461 20.7038L2.59384 22.7224L14.7483 1.92922L11.295 -0.089377ZM37.1171 -0.950542L13.0324 -1.08005L13.0109 2.91989L37.0956 3.0494L37.1171 -0.950542Z" fill="url(#paint1_linear_772_9244)" mask="url(#path-1-inside-1_772_9244)"/>
<defs>
<linearGradient id="paint0_linear_772_9244" x1="24.9518" y1="0.919922" x2="24.9518" y2="42.7653" gradientUnits="userSpaceOnUse">
<stop stop-color="#D3C951"/>
<stop offset="0.330722" stop-color="#96DE7E"/>
<stop offset="0.643235" stop-color="#6ED1C1"/>
<stop offset="1" stop-color="#9B5DAB"/>
</linearGradient>
<linearGradient id="paint1_linear_772_9244" x1="24.9518" y1="0.919922" x2="24.9518" y2="42.7653" gradientUnits="userSpaceOnUse">
<stop stop-color="#D3C951"/>
<stop offset="0.330722" stop-color="#96DE7E"/>
<stop offset="0.643235" stop-color="#6ED1C1"/>
<stop offset="1" stop-color="#9B5DAB"/>
</linearGradient>
</defs>
</svg>
