<svg width="174" height="174" viewBox="0 0 174 174" fill="none" xmlns="http://www.w3.org/2000/svg">
<path fill-rule="evenodd" clip-rule="evenodd" d="M87 166C58.175 166 32.9558 150.562 19.1592 127.504C31.069 142.433 49.4173 152 70 152C105.899 152 135 122.899 135 87C135 51.1015 105.899 22 70 22C49.4173 22 31.069 31.5669 19.1592 46.4965C32.9558 23.4378 58.175 8 87 8C130.63 8 166 43.3695 166 87C166 130.63 130.63 166 87 166ZM87 0C38.9512 0 0 38.9512 0 87C0 135.049 38.9512 174 87 174C135.049 174 174 135.049 174 87C174 38.9512 135.049 0 87 0ZM32.5271 133.67C18.8823 122.701 10.1494 105.87 10.1494 87C10.1494 53.9454 36.9454 27.1494 70 27.1494C103.055 27.1494 129.851 53.9454 129.851 87C129.851 113.461 112.678 135.912 88.8693 143.815C101.529 136.21 110 122.344 110 106.5C110 82.4756 90.5244 63 66.5 63C42.4756 63 23 82.4756 23 106.5C23 116.779 26.5655 126.226 32.5271 133.67Z" fill="url(#paint0_linear_838_12292)"/>
<defs>
<linearGradient id="paint0_linear_838_12292" x1="87" y1="0" x2="87" y2="174" gradientUnits="userSpaceOnUse">
<stop stop-color="#D4C951"/>
<stop offset="0.331596" stop-color="#C3D15A"/>
<stop offset="0.659721" stop-color="#6FD1C2"/>
<stop offset="1" stop-color="#9470B0"/>
</linearGradient>
</defs>
</svg>
