<svg id="visual" viewBox="0 0 900 600" width="900" height="600" xmlns="http://www.w3.org/2000/svg" xmlns:xlink="http://www.w3.org/1999/xlink" version="1.1">
<path d="M0 267L10 226.2C20 185.3 40 103.7 60 129.2C80 154.7 100 287.3 120 293.5C140 299.7 160 179.3 180 161.3C200 143.3 220 227.7 240 251.8C260 276 280 240 300 278C320 316 340 428 360 415.3C380 402.7 400 265.3 420 211.5C440 157.7 460 187.3 480 227C500 266.7 520 316.3 540 349.8C560 383.3 580 400.7 600 412C620 423.3 640 428.7 660 443.2C680 457.7 700 481.3 720 447.7C740 414 760 323 780 326.8C800 330.7 820 429.3 840 448.3C860 467.3 880 406.7 890 376.3L900 346L900 0L890 0C880 0 860 0 840 0C820 0 800 0 780 0C760 0 740 0 720 0C700 0 680 0 660 0C640 0 620 0 600 0C580 0 560 0 540 0C520 0 500 0 480 0C460 0 440 0 420 0C400 0 380 0 360 0C340 0 320 0 300 0C280 0 260 0 240 0C220 0 200 0 180 0C160 0 140 0 120 0C100 0 80 0 60 0C40 0 20 0 10 0L0 0Z" fill="#414141" stroke-linecap="round" stroke-linejoin="miter">
</path>
</svg>