<svg id="visual" viewBox="0 0 900 600" width="900" height="600" xmlns="http://www.w3.org/2000/svg" xmlns:xlink="http://www.w3.org/1999/xlink" version="1.1">
<path d="M0 157L10 184.7C20 212.3 40 267.7 60 253.8C80 240 100 157 120 158.7C140 160.3 160 246.7 180 282.8C200 319 220 305 240 308.7C260 312.3 280 333.7 300 333.8C320 334 340 313 360 331.2C380 349.3 400 406.7 420 375.8C440 345 460 226 480 184.8C500 143.7 520 180.3 540 185.8C560 191.3 580 165.7 600 180.8C620 196 640 252 660 231.5C680 211 700 114 720 118.5C740 123 760 229 780 243C800 257 820 179 840 181.8C860 184.7 880 268.3 890 310.2L900 352L900 601L890 601C880 601 860 601 840 601C820 601 800 601 780 601C760 601 740 601 720 601C700 601 680 601 660 601C640 601 620 601 600 601C580 601 560 601 540 601C520 601 500 601 480 601C460 601 440 601 420 601C400 601 380 601 360 601C340 601 320 601 300 601C280 601 260 601 240 601C220 601 200 601 180 601C160 601 140 601 120 601C100 601 80 601 60 601C40 601 20 601 10 601L0 601Z" fill="#414141" stroke-linecap="round" stroke-linejoin="miter">
</path>
</svg>