<svg id="visual" viewBox="0 0 900 600" width="900" height="600" xmlns="http://www.w3.org/2000/svg" xmlns:xlink="http://www.w3.org/1999/xlink" version="1.1">
<path d="M0 249L10 283.5C20 318 40 387 60 392.5C80 398 100 340 120 331C140 322 160 362 180 320C200 278 220 154 240 106.3C260 58.7 280 87.3 300 181.7C320 276 340 436 360 450C380 464 400 332 420 232.7C440 133.3 460 66.7 480 119.3C500 172 520 344 540 360.5C560 377 580 238 600 166.3C620 94.7 640 90.3 660 76C680 61.7 700 37.3 720 33.5C740 29.7 760 46.3 780 67.5C800 88.7 820 114.3 840 113.2C860 112 880 84 890 70L900 56L900 0L890 0C880 0 860 0 840 0C820 0 800 0 780 0C760 0 740 0 720 0C700 0 680 0 660 0C640 0 620 0 600 0C580 0 560 0 540 0C520 0 500 0 480 0C460 0 440 0 420 0C400 0 380 0 360 0C340 0 320 0 300 0C280 0 260 0 240 0C220 0 200 0 180 0C160 0 140 0 120 0C100 0 80 0 60 0C40 0 20 0 10 0L0 0Z" fill="#414141" stroke-linecap="round" stroke-linejoin="miter">
</path>
</svg>