<svg id="visual" viewBox="0 0 900 600" width="900" height="600" xmlns="http://www.w3.org/2000/svg" xmlns:xlink="http://www.w3.org/1999/xlink" version="1.1">
<path d="M0 312L10 266.7C20 221.3 40 130.7 60 133.7C80 136.7 100 233.3 120 322C140 410.7 160 491.3 180 477.3C200 463.3 220 354.7 240 325.5C260 296.3 280 346.7 300 382.8C320 419 340 441 360 391.3C380 341.7 400 220.3 420 193C440 165.7 460 232.3 480 303.5C500 374.7 520 450.3 540 492.8C560 535.3 580 544.7 600 461.5C620 378.3 640 202.7 660 128.5C680 54.3 700 81.7 720 110C740 138.3 760 167.7 780 203.2C800 238.7 820 280.3 840 247.8C860 215.3 880 108.7 890 55.3L900 2L900 0L890 0C880 0 860 0 840 0C820 0 800 0 780 0C760 0 740 0 720 0C700 0 680 0 660 0C640 0 620 0 600 0C580 0 560 0 540 0C520 0 500 0 480 0C460 0 440 0 420 0C400 0 380 0 360 0C340 0 320 0 300 0C280 0 260 0 240 0C220 0 200 0 180 0C160 0 140 0 120 0C100 0 80 0 60 0C40 0 20 0 10 0L0 0Z" fill="#414141" stroke-linecap="round" stroke-linejoin="miter">
</path>
</svg>