<svg id="visual" viewBox="0 0 900 600" width="900" height="600" xmlns="http://www.w3.org/2000/svg" xmlns:xlink="http://www.w3.org/1999/xlink" version="1.1"><path d="M0 304L25 291.2C50 278.3 100 252.7 150 251.7C200 250.7 250 274.3 300 271.7C350 269 400 240 450 243.2C500 246.3 550 281.7 600 302.2C650 322.7 700 328.3 750 326.7C800 325 850 316 875 311.5L900 307L900 0L875 0C850 0 800 0 750 0C700 0 650 0 600 0C550 0 500 0 450 0C400 0 350 0 300 0C250 0 200 0 150 0C100 0 50 0 25 0L0 0Z" fill="#fa7268"></path><path d="M0 130L25 135.3C50 140.7 100 151.3 150 166.8C200 182.3 250 202.7 300 212.5C350 222.3 400 221.7 450 219C500 216.3 550 211.7 600 196.2C650 180.7 700 154.3 750 159.3C800 164.3 850 200.7 875 218.8L900 237L900 0L875 0C850 0 800 0 750 0C700 0 650 0 600 0C550 0 500 0 450 0C400 0 350 0 300 0C250 0 200 0 150 0C100 0 50 0 25 0L0 0Z" fill="#e34c67"></path><path d="M0 93L25 92.8C50 92.7 100 92.3 150 96.3C200 100.3 250 108.7 300 118.7C350 128.7 400 140.3 450 137.3C500 134.3 550 116.7 600 107.2C650 97.7 700 96.3 750 97.8C800 99.3 850 103.7 875 105.8L900 108L900 0L875 0C850 0 800 0 750 0C700 0 650 0 600 0C550 0 500 0 450 0C400 0 350 0 300 0C250 0 200 0 150 0C100 0 50 0 25 0L0 0Z" fill="#c62368"></path></svg>