<svg id="visual" viewBox="0 0 900 600" width="900" height="600" xmlns="http://www.w3.org/2000/svg" xmlns:xlink="http://www.w3.org/1999/xlink" version="1.1">
<path d="M0 179L10 240C20 301 40 423 60 455.8C80 488.7 100 432.3 120 344.7C140 257 160 138 180 118.7C200 99.3 220 179.7 240 224.5C260 269.3 280 278.7 300 315.5C320 352.3 340 416.7 360 431.5C380 446.3 400 411.7 420 420.7C440 429.7 460 482.3 480 442.7C500 403 520 271 540 203.7C560 136.3 580 133.7 600 124.2C620 114.7 640 98.3 660 111.2C680 124 700 166 720 184.7C740 203.3 760 198.7 780 198.8C800 199 820 204 840 197.8C860 191.7 880 174.3 890 165.7L900 157L900 601L890 601C880 601 860 601 840 601C820 601 800 601 780 601C760 601 740 601 720 601C700 601 680 601 660 601C640 601 620 601 600 601C580 601 560 601 540 601C520 601 500 601 480 601C460 601 440 601 420 601C400 601 380 601 360 601C340 601 320 601 300 601C280 601 260 601 240 601C220 601 200 601 180 601C160 601 140 601 120 601C100 601 80 601 60 601C40 601 20 601 10 601L0 601Z" fill="#414141" stroke-linecap="round" stroke-linejoin="miter">
</path>
</svg>