<svg id="visual" viewBox="0 0 900 600" width="900" height="600" xmlns="http://www.w3.org/2000/svg" xmlns:xlink="http://www.w3.org/1999/xlink" version="1.1">
<path d="M0 593L10 561.5C20 530 40 467 60 404.7C80 342.3 100 280.7 120 305.8C140 331 160 443 180 495.2C200 547.3 220 539.7 240 448.8C260 358 280 184 300 105.8C320 27.7 340 45.3 360 49.2C380 53 400 43 420 62.3C440 81.7 460 130.3 480 216.3C500 302.3 520 425.7 540 492.3C560 559 580 569 600 575.7C620 582.3 640 585.7 660 521.7C680 457.7 700 326.3 720 320.3C740 314.3 760 433.7 780 447.7C800 461.7 820 370.3 840 343C860 315.7 880 352.3 890 370.7L900 389L900 601L890 601C880 601 860 601 840 601C820 601 800 601 780 601C760 601 740 601 720 601C700 601 680 601 660 601C640 601 620 601 600 601C580 601 560 601 540 601C520 601 500 601 480 601C460 601 440 601 420 601C400 601 380 601 360 601C340 601 320 601 300 601C280 601 260 601 240 601C220 601 200 601 180 601C160 601 140 601 120 601C100 601 80 601 60 601C40 601 20 601 10 601L0 601Z" fill="#414141" stroke-linecap="round" stroke-linejoin="miter">
</path>
</svg>