<svg id="visual" viewBox="0 0 900 600" width="900" height="600" xmlns="http://www.w3.org/2000/svg" xmlns:xlink="http://www.w3.org/1999/xlink" version="1.1">
<path d="M0 119L10 131.2C20 143.3 40 167.7 60 149.2C80 130.7 100 69.3 120 48C140 26.7 160 45.3 180 51C200 56.7 220 49.3 240 44.7C260 40 280 38 300 57.5C320 77 340 118 360 144.7C380 171.3 400 183.7 420 197.2C440 210.7 460 225.3 480 257.5C500 289.7 520 339.3 540 369.3C560 399.3 580 409.7 600 347.8C620 286 640 152 660 102C680 52 700 86 720 117.8C740 149.7 760 179.3 780 237.3C800 295.3 820 381.7 840 431.3C860 481 880 494 890 500.5L900 507L900 601L890 601C880 601 860 601 840 601C820 601 800 601 780 601C760 601 740 601 720 601C700 601 680 601 660 601C640 601 620 601 600 601C580 601 560 601 540 601C520 601 500 601 480 601C460 601 440 601 420 601C400 601 380 601 360 601C340 601 320 601 300 601C280 601 260 601 240 601C220 601 200 601 180 601C160 601 140 601 120 601C100 601 80 601 60 601C40 601 20 601 10 601L0 601Z" fill="#414141" stroke-linecap="round" stroke-linejoin="miter">
</path>
</svg>