<svg id="visual" viewBox="0 0 900 600" width="900" height="600" xmlns="http://www.w3.org/2000/svg" xmlns:xlink="http://www.w3.org/1999/xlink" version="1.1">
<path d="M0 246L10 255.7C20 265.3 40 284.7 60 263.3C80 242 100 180 120 168.7C140 157.3 160 196.7 180 263.7C200 330.7 220 425.3 240 447.2C260 469 280 418 300 411.5C320 405 340 443 360 398.3C380 353.7 400 226.3 420 233.3C440 240.3 460 381.7 480 366C500 350.3 520 177.7 540 122C560 66.3 580 127.7 600 131.2C620 134.7 640 80.3 660 121C680 161.7 700 297.3 720 306.7C740 316 760 199 780 171.5C800 144 820 206 840 281.8C860 357.7 880 447.3 890 492.2L900 537L900 601L890 601C880 601 860 601 840 601C820 601 800 601 780 601C760 601 740 601 720 601C700 601 680 601 660 601C640 601 620 601 600 601C580 601 560 601 540 601C520 601 500 601 480 601C460 601 440 601 420 601C400 601 380 601 360 601C340 601 320 601 300 601C280 601 260 601 240 601C220 601 200 601 180 601C160 601 140 601 120 601C100 601 80 601 60 601C40 601 20 601 10 601L0 601Z" fill="#414141" stroke-linecap="round" stroke-linejoin="miter">
</path>
</svg>