<svg id="visual" viewBox="0 0 900 600" width="900" height="600" xmlns="http://www.w3.org/2000/svg" xmlns:xlink="http://www.w3.org/1999/xlink" version="1.1">
<path d="M0 587L10 537.8C20 488.7 40 390.3 60 383C80 375.7 100 459.3 120 470.7C140 482 160 421 180 415C200 409 220 458 240 482.5C260 507 280 507 300 496.3C320 485.7 340 464.3 360 410.7C380 357 400 271 420 227.3C440 183.7 460 182.3 480 186.7C500 191 520 201 540 224C560 247 580 283 600 334.7C620 386.3 640 453.7 660 418.8C680 384 700 247 720 240.2C740 233.3 760 356.7 780 424.2C800 491.7 820 503.3 840 504.5C860 505.7 880 496.3 890 491.7L900 487L900 0L890 0C880 0 860 0 840 0C820 0 800 0 780 0C760 0 740 0 720 0C700 0 680 0 660 0C640 0 620 0 600 0C580 0 560 0 540 0C520 0 500 0 480 0C460 0 440 0 420 0C400 0 380 0 360 0C340 0 320 0 300 0C280 0 260 0 240 0C220 0 200 0 180 0C160 0 140 0 120 0C100 0 80 0 60 0C40 0 20 0 10 0L0 0Z" fill="#414141" stroke-linecap="round" stroke-linejoin="miter">
</path>
</svg>