<svg id="visual" viewBox="0 0 900 600" width="900" height="600" xmlns="http://www.w3.org/2000/svg" xmlns:xlink="http://www.w3.org/1999/xlink" version="1.1">
<path d="M0 215L10 221.7C20 228.3 40 241.7 60 238.7C80 235.7 100 216.3 120 270.2C140 324 160 451 180 463.8C200 476.7 220 375.3 240 347.5C260 319.7 280 365.3 300 400C320 434.7 340 458.3 360 425.3C380 392.3 400 302.7 420 316C440 329.3 460 445.7 480 440.7C500 435.7 520 309.3 540 221.3C560 133.3 580 83.7 600 58.5C620 33.3 640 32.7 660 37.8C680 43 700 54 720 78.8C740 103.7 760 142.3 780 161C800 179.7 820 178.3 840 198.8C860 219.3 880 261.7 890 282.8L900 304L900 0L890 0C880 0 860 0 840 0C820 0 800 0 780 0C760 0 740 0 720 0C700 0 680 0 660 0C640 0 620 0 600 0C580 0 560 0 540 0C520 0 500 0 480 0C460 0 440 0 420 0C400 0 380 0 360 0C340 0 320 0 300 0C280 0 260 0 240 0C220 0 200 0 180 0C160 0 140 0 120 0C100 0 80 0 60 0C40 0 20 0 10 0L0 0Z" fill="#414141" stroke-linecap="round" stroke-linejoin="miter">
</path>
</svg>