<svg id="visual" viewBox="0 0 900 600" width="900" height="600" xmlns="http://www.w3.org/2000/svg" xmlns:xlink="http://www.w3.org/1999/xlink" version="1.1">
<path d="M0 457L10 451.3C20 445.7 40 434.3 60 442.7C80 451 100 479 120 440.7C140 402.3 160 297.7 180 296C200 294.3 220 395.7 240 389.8C260 384 280 271 300 201.7C320 132.3 340 106.7 360 148C380 189.3 400 297.7 420 311C440 324.3 460 242.7 480 251.2C500 259.7 520 358.3 540 372.5C560 386.7 580 316.3 600 256.2C620 196 640 146 660 200.7C680 255.3 700 414.7 720 477.8C740 541 760 508 780 491.3C800 474.7 820 474.3 840 471.2C860 468 880 462 890 459L900 456L900 0L890 0C880 0 860 0 840 0C820 0 800 0 780 0C760 0 740 0 720 0C700 0 680 0 660 0C640 0 620 0 600 0C580 0 560 0 540 0C520 0 500 0 480 0C460 0 440 0 420 0C400 0 380 0 360 0C340 0 320 0 300 0C280 0 260 0 240 0C220 0 200 0 180 0C160 0 140 0 120 0C100 0 80 0 60 0C40 0 20 0 10 0L0 0Z" fill="#414141" stroke-linecap="round" stroke-linejoin="miter">
</path>
</svg>