<svg id="visual" viewBox="0 0 900 600" width="900" height="600" xmlns="http://www.w3.org/2000/svg" xmlns:xlink="http://www.w3.org/1999/xlink" version="1.1">
<path d="M0 306L25 321.3C50 336.7 100 367.3 150 367.7C200 368 250 338 300 334.2C350 330.3 400 352.7 450 348.7C500 344.7 550 314.3 600 320.5C650 326.7 700 369.3 750 387.3C800 405.3 850 398.7 875 395.3L900 392L900 601L875 601C850 601 800 601 750 601C700 601 650 601 600 601C550 601 500 601 450 601C400 601 350 601 300 601C250 601 200 601 150 601C100 601 50 601 25 601L0 601Z" fill="#fa7268">
</path>
<path d="M0 409L25 408C50 407 100 405 150 410.5C200 416 250 429 300 437.8C350 446.7 400 451.3 450 445.8C500 440.3 550 424.7 600 426.7C650 428.7 700 448.3 750 449.5C800 450.7 850 433.3 875 424.7L900 416L900 601L875 601C850 601 800 601 750 601C700 601 650 601 600 601C550 601 500 601 450 601C400 601 350 601 300 601C250 601 200 601 150 601C100 601 50 601 25 601L0 601Z" fill="#e34c67">
</path>
<path d="M0 442L25 448.3C50 454.7 100 467.3 150 473.7C200 480 250 480 300 475.5C350 471 400 462 450 466.2C500 470.3 550 487.7 600 490.3C650 493 700 481 750 486C800 491 850 513 875 524L900 535L900 601L875 601C850 601 800 601 750 601C700 601 650 601 600 601C550 601 500 601 450 601C400 601 350 601 300 601C250 601 200 601 150 601C100 601 50 601 25 601L0 601Z" fill="#c62368">
</path>
</svg>