<svg id="visual" viewBox="0 0 900 600" width="900" height="600" xmlns="http://www.w3.org/2000/svg" xmlns:xlink="http://www.w3.org/1999/xlink" version="1.1">
<path d="M0 386L25 387.3C50 388.7 100 391.3 150 376C200 360.7 250 327.3 300 307C350 286.7 400 279.3 450 283.8C500 288.3 550 304.7 600 325.8C650 347 700 373 750 370.3C800 367.7 850 336.3 875 320.7L900 305L900 601L875 601C850 601 800 601 750 601C700 601 650 601 600 601C550 601 500 601 450 601C400 601 350 601 300 601C250 601 200 601 150 601C100 601 50 601 25 601L0 601Z" fill="#fa7268">
</path>
<path d="M0 455L25 443C50 431 100 407 150 406.2C200 405.3 250 427.7 300 428C350 428.3 400 406.7 450 396.2C500 385.7 550 386.3 600 385.3C650 384.3 700 381.7 750 387.8C800 394 850 409 875 416.5L900 424L900 601L875 601C850 601 800 601 750 601C700 601 650 601 600 601C550 601 500 601 450 601C400 601 350 601 300 601C250 601 200 601 150 601C100 601 50 601 25 601L0 601Z" fill="#e34c67">
</path>
<path d="M0 498L25 492C50 486 100 474 150 466.5C200 459 250 456 300 461.2C350 466.3 400 479.7 450 485C500 490.3 550 487.7 600 494.7C650 501.7 700 518.3 750 523C800 527.7 850 520.3 875 516.7L900 513L900 601L875 601C850 601 800 601 750 601C700 601 650 601 600 601C550 601 500 601 450 601C400 601 350 601 300 601C250 601 200 601 150 601C100 601 50 601 25 601L0 601Z" fill="#c62368">
</path>
</svg>