<svg id="visual" viewBox="0 0 900 600" width="900" height="600" xmlns="http://www.w3.org/2000/svg" xmlns:xlink="http://www.w3.org/1999/xlink" version="1.1">
<path d="M0 309L25 304C50 299 100 289 150 291.7C200 294.3 250 309.7 300 313.8C350 318 400 311 450 302.8C500 294.7 550 285.3 600 299.2C650 313 700 350 750 371.3C800 392.7 850 398.3 875 401.2L900 404L900 601L875 601C850 601 800 601 750 601C700 601 650 601 600 601C550 601 500 601 450 601C400 601 350 601 300 601C250 601 200 601 150 601C100 601 50 601 25 601L0 601Z" fill="#fa7268">
</path>
<path d="M0 473L25 462.3C50 451.7 100 430.3 150 429.7C200 429 250 449 300 442.5C350 436 400 403 450 392.2C500 381.3 550 392.7 600 399.2C650 405.7 700 407.3 750 402.8C800 398.3 850 387.7 875 382.3L900 377L900 601L875 601C850 601 800 601 750 601C700 601 650 601 600 601C550 601 500 601 450 601C400 601 350 601 300 601C250 601 200 601 150 601C100 601 50 601 25 601L0 601Z" fill="#e34c67">
</path>
<path d="M0 500L25 507C50 514 100 528 150 526.7C200 525.3 250 508.7 300 502.8C350 497 400 502 450 506.2C500 510.3 550 513.7 600 516.7C650 519.7 700 522.3 750 522.7C800 523 850 521 875 520L900 519L900 601L875 601C850 601 800 601 750 601C700 601 650 601 600 601C550 601 500 601 450 601C400 601 350 601 300 601C250 601 200 601 150 601C100 601 50 601 25 601L0 601Z" fill="#c62368">
</path>
</svg>