<svg id="visual" viewBox="0 0 900 600" width="900" height="600" xmlns="http://www.w3.org/2000/svg" xmlns:xlink="http://www.w3.org/1999/xlink" version="1.1">
<path d="M0 333L25 327C50 321 100 309 150 321.7C200 334.3 250 371.7 300 383.2C350 394.7 400 380.3 450 374C500 367.7 550 369.3 600 358C650 346.7 700 322.3 750 327.3C800 332.3 850 366.7 875 383.8L900 401L900 601L875 601C850 601 800 601 750 601C700 601 650 601 600 601C550 601 500 601 450 601C400 601 350 601 300 601C250 601 200 601 150 601C100 601 50 601 25 601L0 601Z" fill="#fa7268">
</path>
<path d="M0 446L25 448.7C50 451.3 100 456.7 150 456C200 455.3 250 448.7 300 451.5C350 454.3 400 466.7 450 464.5C500 462.3 550 445.7 600 442C650 438.3 700 447.7 750 448.8C800 450 850 443 875 439.5L900 436L900 601L875 601C850 601 800 601 750 601C700 601 650 601 600 601C550 601 500 601 450 601C400 601 350 601 300 601C250 601 200 601 150 601C100 601 50 601 25 601L0 601Z" fill="#e34c67">
</path>
<path d="M0 533L25 525.3C50 517.7 100 502.3 150 501.2C200 500 250 513 300 507.8C350 502.7 400 479.3 450 473.7C500 468 550 480 600 482.3C650 484.7 700 477.3 750 481.2C800 485 850 500 875 507.5L900 515L900 601L875 601C850 601 800 601 750 601C700 601 650 601 600 601C550 601 500 601 450 601C400 601 350 601 300 601C250 601 200 601 150 601C100 601 50 601 25 601L0 601Z" fill="#c62368">
</path>
</svg>