<svg id="visual" viewBox="0 0 900 600" width="900" height="600" xmlns="http://www.w3.org/2000/svg" xmlns:xlink="http://www.w3.org/1999/xlink" version="1.1">
<path d="M0 269L25 278.8C50 288.7 100 308.3 150 329.8C200 351.3 250 374.7 300 365.2C350 355.7 400 313.3 450 294.8C500 276.3 550 281.7 600 293.8C650 306 700 325 750 330.7C800 336.3 850 328.7 875 324.8L900 321L900 601L875 601C850 601 800 601 750 601C700 601 650 601 600 601C550 601 500 601 450 601C400 601 350 601 300 601C250 601 200 601 150 601C100 601 50 601 25 601L0 601Z" fill="#fa7268">
</path>
<path d="M0 378L25 389.5C50 401 100 424 150 425.5C200 427 250 407 300 404C350 401 400 415 450 430.5C500 446 550 463 600 450.5C650 438 700 396 750 390.3C800 384.7 850 415.3 875 430.7L900 446L900 601L875 601C850 601 800 601 750 601C700 601 650 601 600 601C550 601 500 601 450 601C400 601 350 601 300 601C250 601 200 601 150 601C100 601 50 601 25 601L0 601Z" fill="#e34c67">
</path>
<path d="M0 473L25 473.2C50 473.3 100 473.7 150 484.3C200 495 250 516 300 511.3C350 506.7 400 476.3 450 472C500 467.7 550 489.3 600 497.5C650 505.7 700 500.3 750 492.7C800 485 850 475 875 470L900 465L900 601L875 601C850 601 800 601 750 601C700 601 650 601 600 601C550 601 500 601 450 601C400 601 350 601 300 601C250 601 200 601 150 601C100 601 50 601 25 601L0 601Z" fill="#c62368">
</path>
</svg>