<svg id="visual" viewBox="0 0 900 600" width="900" height="600" xmlns="http://www.w3.org/2000/svg" xmlns:xlink="http://www.w3.org/1999/xlink" version="1.1">
<path d="M0 375L25 360.3C50 345.7 100 316.3 150 297.7C200 279 250 271 300 274.8C350 278.7 400 294.3 450 299.8C500 305.3 550 300.7 600 310.7C650 320.7 700 345.3 750 354.3C800 363.3 850 356.7 875 353.3L900 350L900 601L875 601C850 601 800 601 750 601C700 601 650 601 600 601C550 601 500 601 450 601C400 601 350 601 300 601C250 601 200 601 150 601C100 601 50 601 25 601L0 601Z" fill="#fa7268">
</path>
<path d="M0 463L25 450.2C50 437.3 100 411.7 150 406C200 400.3 250 414.7 300 410.5C350 406.3 400 383.7 450 375.2C500 366.7 550 372.3 600 374.5C650 376.7 700 375.3 750 385.5C800 395.7 850 417.3 875 428.2L900 439L900 601L875 601C850 601 800 601 750 601C700 601 650 601 600 601C550 601 500 601 450 601C400 601 350 601 300 601C250 601 200 601 150 601C100 601 50 601 25 601L0 601Z" fill="#e34c67">
</path>
<path d="M0 442L25 454.3C50 466.7 100 491.3 150 502.5C200 513.7 250 511.3 300 499.7C350 488 400 467 450 468.3C500 469.7 550 493.3 600 506.3C650 519.3 700 521.7 750 513.7C800 505.7 850 487.3 875 478.2L900 469L900 601L875 601C850 601 800 601 750 601C700 601 650 601 600 601C550 601 500 601 450 601C400 601 350 601 300 601C250 601 200 601 150 601C100 601 50 601 25 601L0 601Z" fill="#c62368">
</path>
</svg>