<svg width="2240" height="2240" viewBox="0 0 2240 2240" fill="none" xmlns="http://www.w3.org/2000/svg">
<rect width="2240" height="2240" fill="#DBDBDB"/>
<path fill-rule="evenodd" clip-rule="evenodd" d="M1300.75 893.656H1406.94C1429.63 893.656 1448 912.021 1448 934.719V1386.41C1448 1409.1 1429.63 1427.47 1406.94 1427.47H832.062C809.365 1427.47 791 1409.1 791 1386.41V934.719C791 912.021 809.365 893.656 832.062 893.656H938.25L1008.34 823.563C1016.04 815.863 1026.47 811.531 1037.38 811.531H1201.62C1212.53 811.531 1222.96 815.863 1230.66 823.563L1300.75 893.656ZM955.25 1140.03C955.25 1230.74 1028.79 1304.28 1119.5 1304.28C1210.21 1304.28 1283.75 1230.74 1283.75 1140.03C1283.75 1049.32 1210.21 975.781 1119.5 975.781C1028.79 975.781 955.25 1049.32 955.25 1140.03ZM1201.62 1140.03C1201.62 1185.39 1164.86 1222.16 1119.5 1222.16C1074.14 1222.16 1037.38 1185.39 1037.38 1140.03C1037.38 1094.67 1074.14 1057.91 1119.5 1057.91C1164.86 1057.91 1201.62 1094.67 1201.62 1140.03Z" fill="#BCBCBC"/>
</svg>
