<svg width="900" height="900" viewBox="0 0 900 900" fill="none" xmlns="http://www.w3.org/2000/svg">
<g clip-path="url(#clip0_1831_21483)">
<path d="M900 0H0V900H900V0Z" fill="#6FD1C3"/>
<g filter="url(#filter0_f_1831_21483)">
<path d="M634 1124C865.96 1124 1054 935.96 1054 704C1054 472.04 865.96 284 634 284C402.04 284 214 472.04 214 704C214 935.96 402.04 1124 634 1124Z" fill="#00CC99"/>
<path d="M450 1073C681.96 1073 870 884.96 870 653C870 421.04 681.96 233 450 233C218.04 233 30 421.04 30 653C30 884.96 218.04 1073 450 1073Z" fill="#6600FF"/>
<path d="M214 1320C445.96 1320 634 1131.96 634 900C634 668.04 445.96 480 214 480C-17.9596 480 -206 668.04 -206 900C-206 1131.96 -17.9596 1320 214 1320Z" fill="#79B7BD"/>
<path d="M769 604C1000.96 604 1189 415.96 1189 184C1189 -47.9596 1000.96 -236 769 -236C537.04 -236 349 -47.9596 349 184C349 415.96 537.04 604 769 604Z" fill="#96D193"/>
<path d="M795 927C1026.96 927 1215 738.96 1215 507C1215 275.04 1026.96 87 795 87C563.04 87 375 275.04 375 507C375 738.96 563.04 927 795 927Z" fill="#9178B2"/>
<path d="M168 566C399.96 566 588 377.96 588 146C588 -85.9596 399.96 -274 168 -274C-63.9596 -274 -252 -85.9596 -252 146C-252 377.96 -63.9596 566 168 566Z" fill="#D4C951"/>
</g>
</g>
<defs>
<filter id="filter0_f_1831_21483" x="-630" y="-652" width="2223" height="2350" filterUnits="userSpaceOnUse" color-interpolation-filters="sRGB">
<feFlood flood-opacity="0" result="BackgroundImageFix"/>
<feBlend mode="normal" in="SourceGraphic" in2="BackgroundImageFix" result="shape"/>
<feGaussianBlur stdDeviation="189" result="effect1_foregroundBlur_1831_21483"/>
</filter>
<clipPath id="clip0_1831_21483">
<rect width="900" height="900" fill="white"/>
</clipPath>
</defs>
</svg>
