<svg id="visual" viewBox="0 0 900 600" width="900" height="600" xmlns="http://www.w3.org/2000/svg" xmlns:xlink="http://www.w3.org/1999/xlink" version="1.1">
<rect x="0" y="0" width="900" height="600" fill="#ffffff">
</rect>
<path d="M0 172L18.8 191.7C37.7 211.3 75.3 250.7 112.8 296.2C150.3 341.7 187.7 393.3 225.2 414C262.7 434.7 300.3 424.3 337.8 421.3C375.3 418.3 412.7 422.7 450.2 364.3C487.7 306 525.3 185 562.8 136.3C600.3 87.7 637.7 111.3 675.2 124.5C712.7 137.7 750.3 140.3 787.8 178.3C825.3 216.3 862.7 289.7 881.3 326.3L900 363L900 601L881.3 601C862.7 601 825.3 601 787.8 601C750.3 601 712.7 601 675.2 601C637.7 601 600.3 601 562.8 601C525.3 601 487.7 601 450.2 601C412.7 601 375.3 601 337.8 601C300.3 601 262.7 601 225.2 601C187.7 601 150.3 601 112.8 601C75.3 601 37.7 601 18.8 601L0 601Z" fill="#abaaaa">
</path>
<path d="M0 189L18.8 198.3C37.7 207.7 75.3 226.3 112.8 275.5C150.3 324.7 187.7 404.3 225.2 391.7C262.7 379 300.3 274 337.8 246.3C375.3 218.7 412.7 268.3 450.2 307.3C487.7 346.3 525.3 374.7 562.8 367.5C600.3 360.3 637.7 317.7 675.2 302.2C712.7 286.7 750.3 298.3 787.8 282.8C825.3 267.3 862.7 224.7 881.3 203.3L900 182L900 601L881.3 601C862.7 601 825.3 601 787.8 601C750.3 601 712.7 601 675.2 601C637.7 601 600.3 601 562.8 601C525.3 601 487.7 601 450.2 601C412.7 601 375.3 601 337.8 601C300.3 601 262.7 601 225.2 601C187.7 601 150.3 601 112.8 601C75.3 601 37.7 601 18.8 601L0 601Z" fill="#999898">
</path>
<path d="M0 500L18.8 470.2C37.7 440.3 75.3 380.7 112.8 349.7C150.3 318.7 187.7 316.3 225.2 361.2C262.7 406 300.3 498 337.8 534.5C375.3 571 412.7 552 450.2 547.5C487.7 543 525.3 553 562.8 548.2C600.3 543.3 637.7 523.7 675.2 505.8C712.7 488 750.3 472 787.8 474.3C825.3 476.7 862.7 497.3 881.3 507.7L900 518L900 601L881.3 601C862.7 601 825.3 601 787.8 601C750.3 601 712.7 601 675.2 601C637.7 601 600.3 601 562.8 601C525.3 601 487.7 601 450.2 601C412.7 601 375.3 601 337.8 601C300.3 601 262.7 601 225.2 601C187.7 601 150.3 601 112.8 601C75.3 601 37.7 601 18.8 601L0 601Z" fill="#888686">
</path>
<path d="M0 423L18.8 439.5C37.7 456 75.3 489 112.8 509C150.3 529 187.7 536 225.2 546.2C262.7 556.3 300.3 569.7 337.8 545C375.3 520.3 412.7 457.7 450.2 453.3C487.7 449 525.3 503 562.8 499.7C600.3 496.3 637.7 435.7 675.2 419.8C712.7 404 750.3 433 787.8 436C825.3 439 862.7 416 881.3 404.5L900 393L900 601L881.3 601C862.7 601 825.3 601 787.8 601C750.3 601 712.7 601 675.2 601C637.7 601 600.3 601 562.8 601C525.3 601 487.7 601 450.2 601C412.7 601 375.3 601 337.8 601C300.3 601 262.7 601 225.2 601C187.7 601 150.3 601 112.8 601C75.3 601 37.7 601 18.8 601L0 601Z" fill="#767474">
</path>
<path d="M0 501L18.8 501.2C37.7 501.3 75.3 501.7 112.8 516.8C150.3 532 187.7 562 225.2 550.8C262.7 539.7 300.3 487.3 337.8 471.2C375.3 455 412.7 475 450.2 491.7C487.7 508.3 525.3 521.7 562.8 508.3C600.3 495 637.7 455 675.2 463.5C712.7 472 750.3 529 787.8 537.3C825.3 545.7 862.7 505.3 881.3 485.2L900 465L900 601L881.3 601C862.7 601 825.3 601 787.8 601C750.3 601 712.7 601 675.2 601C637.7 601 600.3 601 562.8 601C525.3 601 487.7 601 450.2 601C412.7 601 375.3 601 337.8 601C300.3 601 262.7 601 225.2 601C187.7 601 150.3 601 112.8 601C75.3 601 37.7 601 18.8 601L0 601Z" fill="#646262">
</path>
</svg>