<svg id="visual" viewBox="0 0 900 600" width="900" height="600" xmlns="http://www.w3.org/2000/svg" xmlns:xlink="http://www.w3.org/1999/xlink" version="1.1">
<rect x="0" y="0" width="900" height="600" fill="#ffffff">
</rect>
<path d="M0 469L18.8 401.5C37.7 334 75.3 199 112.8 125.3C150.3 51.7 187.7 39.3 225.2 29.5C262.7 19.7 300.3 12.3 337.8 81.2C375.3 150 412.7 295 450.2 308.3C487.7 321.7 525.3 203.3 562.8 195.8C600.3 188.3 637.7 291.7 675.2 291.7C712.7 291.7 750.3 188.3 787.8 137.7C825.3 87 862.7 89 881.3 90L900 91L900 0L881.3 0C862.7 0 825.3 0 787.8 0C750.3 0 712.7 0 675.2 0C637.7 0 600.3 0 562.8 0C525.3 0 487.7 0 450.2 0C412.7 0 375.3 0 337.8 0C300.3 0 262.7 0 225.2 0C187.7 0 150.3 0 112.8 0C75.3 0 37.7 0 18.8 0L0 0Z" fill="#abaaaa">
</path>
<path d="M0 192L18.8 211.2C37.7 230.3 75.3 268.7 112.8 290.7C150.3 312.7 187.7 318.3 225.2 287.3C262.7 256.3 300.3 188.7 337.8 192C375.3 195.3 412.7 269.7 450.2 309.7C487.7 349.7 525.3 355.3 562.8 325.5C600.3 295.7 637.7 230.3 675.2 250C712.7 269.7 750.3 374.3 787.8 390.2C825.3 406 862.7 333 881.3 296.5L900 260L900 0L881.3 0C862.7 0 825.3 0 787.8 0C750.3 0 712.7 0 675.2 0C637.7 0 600.3 0 562.8 0C525.3 0 487.7 0 450.2 0C412.7 0 375.3 0 337.8 0C300.3 0 262.7 0 225.2 0C187.7 0 150.3 0 112.8 0C75.3 0 37.7 0 18.8 0L0 0Z" fill="#999898">
</path>
<path d="M0 144L18.8 182.3C37.7 220.7 75.3 297.3 112.8 310C150.3 322.7 187.7 271.3 225.2 229.3C262.7 187.3 300.3 154.7 337.8 137C375.3 119.3 412.7 116.7 450.2 126.7C487.7 136.7 525.3 159.3 562.8 198.3C600.3 237.3 637.7 292.7 675.2 322.2C712.7 351.7 750.3 355.3 787.8 346.3C825.3 337.3 862.7 315.7 881.3 304.8L900 294L900 0L881.3 0C862.7 0 825.3 0 787.8 0C750.3 0 712.7 0 675.2 0C637.7 0 600.3 0 562.8 0C525.3 0 487.7 0 450.2 0C412.7 0 375.3 0 337.8 0C300.3 0 262.7 0 225.2 0C187.7 0 150.3 0 112.8 0C75.3 0 37.7 0 18.8 0L0 0Z" fill="#888686">
</path>
<path d="M0 86L18.8 113.2C37.7 140.3 75.3 194.7 112.8 193.7C150.3 192.7 187.7 136.3 225.2 96.2C262.7 56 300.3 32 337.8 64.8C375.3 97.7 412.7 187.3 450.2 215.2C487.7 243 525.3 209 562.8 171C600.3 133 637.7 91 675.2 107.8C712.7 124.7 750.3 200.3 787.8 224.7C825.3 249 862.7 222 881.3 208.5L900 195L900 0L881.3 0C862.7 0 825.3 0 787.8 0C750.3 0 712.7 0 675.2 0C637.7 0 600.3 0 562.8 0C525.3 0 487.7 0 450.2 0C412.7 0 375.3 0 337.8 0C300.3 0 262.7 0 225.2 0C187.7 0 150.3 0 112.8 0C75.3 0 37.7 0 18.8 0L0 0Z" fill="#767474">
</path>
<path d="M0 171L18.8 170.5C37.7 170 75.3 169 112.8 169.7C150.3 170.3 187.7 172.7 225.2 172.2C262.7 171.7 300.3 168.3 337.8 164C375.3 159.7 412.7 154.3 450.2 147.7C487.7 141 525.3 133 562.8 117.3C600.3 101.7 637.7 78.3 675.2 77.8C712.7 77.3 750.3 99.7 787.8 107C825.3 114.3 862.7 106.7 881.3 102.8L900 99L900 0L881.3 0C862.7 0 825.3 0 787.8 0C750.3 0 712.7 0 675.2 0C637.7 0 600.3 0 562.8 0C525.3 0 487.7 0 450.2 0C412.7 0 375.3 0 337.8 0C300.3 0 262.7 0 225.2 0C187.7 0 150.3 0 112.8 0C75.3 0 37.7 0 18.8 0L0 0Z" fill="#646262">
</path>
</svg>