<svg id="visual" viewBox="0 0 900 600" width="900" height="600" xmlns="http://www.w3.org/2000/svg" xmlns:xlink="http://www.w3.org/1999/xlink" version="1.1">
<rect x="0" y="0" width="900" height="600" fill="#ffffff"></rect>
<path d="M0 240L18.8 299C37.7 358 75.3 476 112.8 451.5C150.3 427 187.7 260 225.2 253C262.7 246 300.3 399 337.8 469.7C375.3 540.3 412.7 528.7 450.2 504.8C487.7 481 525.3 445 562.8 452.5C600.3 460 637.7 511 675.2 494.7C712.7 478.3 750.3 394.7 787.8 373.5C825.3 352.3 862.7 393.7 881.3 414.3L900 435L900 0L881.3 0C862.7 0 825.3 0 787.8 0C750.3 0 712.7 0 675.2 0C637.7 0 600.3 0 562.8 0C525.3 0 487.7 0 450.2 0C412.7 0 375.3 0 337.8 0C300.3 0 262.7 0 225.2 0C187.7 0 150.3 0 112.8 0C75.3 0 37.7 0 18.8 0L0 0Z" fill="#abaaaa"></path>
<path d="M0 278L18.8 291.2C37.7 304.3 75.3 330.7 112.8 333.3C150.3 336 187.7 315 225.2 316C262.7 317 300.3 340 337.8 370.8C375.3 401.7 412.7 440.3 450.2 443.8C487.7 447.3 525.3 415.7 562.8 342.5C600.3 269.3 637.7 154.7 675.2 117.3C712.7 80 750.3 120 787.8 162.7C825.3 205.3 862.7 250.7 881.3 273.3L900 296L900 0L881.3 0C862.7 0 825.3 0 787.8 0C750.3 0 712.7 0 675.2 0C637.7 0 600.3 0 562.8 0C525.3 0 487.7 0 450.2 0C412.7 0 375.3 0 337.8 0C300.3 0 262.7 0 225.2 0C187.7 0 150.3 0 112.8 0C75.3 0 37.7 0 18.8 0L0 0Z" fill="#999898"></path>
<path d="M0 136L18.8 171.3C37.7 206.7 75.3 277.3 112.8 309.5C150.3 341.7 187.7 335.3 225.2 295.2C262.7 255 300.3 181 337.8 129.3C375.3 77.7 412.7 48.3 450.2 94.8C487.7 141.3 525.3 263.7 562.8 268.7C600.3 273.7 637.7 161.3 675.2 135.3C712.7 109.3 750.3 169.7 787.8 206C825.3 242.3 862.7 254.7 881.3 260.8L900 267L900 0L881.3 0C862.7 0 825.3 0 787.8 0C750.3 0 712.7 0 675.2 0C637.7 0 600.3 0 562.8 0C525.3 0 487.7 0 450.2 0C412.7 0 375.3 0 337.8 0C300.3 0 262.7 0 225.2 0C187.7 0 150.3 0 112.8 0C75.3 0 37.7 0 18.8 0L0 0Z" fill="#888686"></path>
<path d="M0 42L18.8 43.3C37.7 44.7 75.3 47.3 112.8 84.8C150.3 122.3 187.7 194.7 225.2 209.2C262.7 223.7 300.3 180.3 337.8 155.7C375.3 131 412.7 125 450.2 134C487.7 143 525.3 167 562.8 154.7C600.3 142.3 637.7 93.7 675.2 111.2C712.7 128.7 750.3 212.3 787.8 217.3C825.3 222.3 862.7 148.7 881.3 111.8L900 75L900 0L881.3 0C862.7 0 825.3 0 787.8 0C750.3 0 712.7 0 675.2 0C637.7 0 600.3 0 562.8 0C525.3 0 487.7 0 450.2 0C412.7 0 375.3 0 337.8 0C300.3 0 262.7 0 225.2 0C187.7 0 150.3 0 112.8 0C75.3 0 37.7 0 18.8 0L0 0Z" fill="#767474"></path>
<path d="M0 120L18.8 116.3C37.7 112.7 75.3 105.3 112.8 114.7C150.3 124 187.7 150 225.2 141C262.7 132 300.3 88 337.8 65.8C375.3 43.7 412.7 43.3 450.2 49.5C487.7 55.7 525.3 68.3 562.8 70.8C600.3 73.3 637.7 65.7 675.2 82C712.7 98.3 750.3 138.7 787.8 135.2C825.3 131.7 862.7 84.3 881.3 60.7L900 37L900 0L881.3 0C862.7 0 825.3 0 787.8 0C750.3 0 712.7 0 675.2 0C637.7 0 600.3 0 562.8 0C525.3 0 487.7 0 450.2 0C412.7 0 375.3 0 337.8 0C300.3 0 262.7 0 225.2 0C187.7 0 150.3 0 112.8 0C75.3 0 37.7 0 18.8 0L0 0Z" fill="#646262"></path>
</svg>