<svg id="visual" viewBox="0 0 900 600" width="900" height="600" xmlns="http://www.w3.org/2000/svg" xmlns:xlink="http://www.w3.org/1999/xlink" version="1.1">
<rect x="0" y="0" width="900" height="600" fill="#ffffff">
</rect>
<path d="M0 299L18.8 286.2C37.7 273.3 75.3 247.7 112.8 292.2C150.3 336.7 187.7 451.3 225.2 441.2C262.7 431 300.3 296 337.8 288C375.3 280 412.7 399 450.2 442.3C487.7 485.7 525.3 453.3 562.8 404.7C600.3 356 637.7 291 675.2 304.7C712.7 318.3 750.3 410.7 787.8 411.8C825.3 413 862.7 323 881.3 278L900 233L900 601L881.3 601C862.7 601 825.3 601 787.8 601C750.3 601 712.7 601 675.2 601C637.7 601 600.3 601 562.8 601C525.3 601 487.7 601 450.2 601C412.7 601 375.3 601 337.8 601C300.3 601 262.7 601 225.2 601C187.7 601 150.3 601 112.8 601C75.3 601 37.7 601 18.8 601L0 601Z" fill="#abaaaa">
</path>
<path d="M0 589L18.8 580.2C37.7 571.3 75.3 553.7 112.8 514.8C150.3 476 187.7 416 225.2 370C262.7 324 300.3 292 337.8 275.8C375.3 259.7 412.7 259.3 450.2 265.5C487.7 271.7 525.3 284.3 562.8 341C600.3 397.7 637.7 498.3 675.2 475C712.7 451.7 750.3 304.3 787.8 292.7C825.3 281 862.7 405 881.3 467L900 529L900 601L881.3 601C862.7 601 825.3 601 787.8 601C750.3 601 712.7 601 675.2 601C637.7 601 600.3 601 562.8 601C525.3 601 487.7 601 450.2 601C412.7 601 375.3 601 337.8 601C300.3 601 262.7 601 225.2 601C187.7 601 150.3 601 112.8 601C75.3 601 37.7 601 18.8 601L0 601Z" fill="#999898">
</path>
<path d="M0 400L18.8 367C37.7 334 75.3 268 112.8 251.8C150.3 235.7 187.7 269.3 225.2 286.8C262.7 304.3 300.3 305.7 337.8 329.8C375.3 354 412.7 401 450.2 430.2C487.7 459.3 525.3 470.7 562.8 486.8C600.3 503 637.7 524 675.2 535.2C712.7 546.3 750.3 547.7 787.8 496.7C825.3 445.7 862.7 342.3 881.3 290.7L900 239L900 601L881.3 601C862.7 601 825.3 601 787.8 601C750.3 601 712.7 601 675.2 601C637.7 601 600.3 601 562.8 601C525.3 601 487.7 601 450.2 601C412.7 601 375.3 601 337.8 601C300.3 601 262.7 601 225.2 601C187.7 601 150.3 601 112.8 601C75.3 601 37.7 601 18.8 601L0 601Z" fill="#888686">
</path>
<path d="M0 423L18.8 426.7C37.7 430.3 75.3 437.7 112.8 451C150.3 464.3 187.7 483.7 225.2 476C262.7 468.3 300.3 433.7 337.8 431.5C375.3 429.3 412.7 459.7 450.2 455.5C487.7 451.3 525.3 412.7 562.8 386.8C600.3 361 637.7 348 675.2 379.7C712.7 411.3 750.3 487.7 787.8 511.8C825.3 536 862.7 508 881.3 494L900 480L900 601L881.3 601C862.7 601 825.3 601 787.8 601C750.3 601 712.7 601 675.2 601C637.7 601 600.3 601 562.8 601C525.3 601 487.7 601 450.2 601C412.7 601 375.3 601 337.8 601C300.3 601 262.7 601 225.2 601C187.7 601 150.3 601 112.8 601C75.3 601 37.7 601 18.8 601L0 601Z" fill="#767474">
</path>
<path d="M0 513L18.8 503.5C37.7 494 75.3 475 112.8 464.7C150.3 454.3 187.7 452.7 225.2 455.5C262.7 458.3 300.3 465.7 337.8 484.7C375.3 503.7 412.7 534.3 450.2 554.8C487.7 575.3 525.3 585.7 562.8 573C600.3 560.3 637.7 524.7 675.2 500.7C712.7 476.7 750.3 464.3 787.8 460.7C825.3 457 862.7 462 881.3 464.5L900 467L900 601L881.3 601C862.7 601 825.3 601 787.8 601C750.3 601 712.7 601 675.2 601C637.7 601 600.3 601 562.8 601C525.3 601 487.7 601 450.2 601C412.7 601 375.3 601 337.8 601C300.3 601 262.7 601 225.2 601C187.7 601 150.3 601 112.8 601C75.3 601 37.7 601 18.8 601L0 601Z" fill="#646262">
</path>
</svg>