<svg id="visual" viewBox="0 0 900 600" width="900" height="600" xmlns="http://www.w3.org/2000/svg" xmlns:xlink="http://www.w3.org/1999/xlink" version="1.1">
<rect x="0" y="0" width="900" height="600" fill="#ffffff">
</rect>
<path d="M0 533L18.8 512C37.7 491 75.3 449 112.8 404.5C150.3 360 187.7 313 225.2 271.2C262.7 229.3 300.3 192.7 337.8 230C375.3 267.3 412.7 378.7 450.2 366.2C487.7 353.7 525.3 217.3 562.8 202.8C600.3 188.3 637.7 295.7 675.2 354C712.7 412.3 750.3 421.7 787.8 395.3C825.3 369 862.7 307 881.3 276L900 245L900 601L881.3 601C862.7 601 825.3 601 787.8 601C750.3 601 712.7 601 675.2 601C637.7 601 600.3 601 562.8 601C525.3 601 487.7 601 450.2 601C412.7 601 375.3 601 337.8 601C300.3 601 262.7 601 225.2 601C187.7 601 150.3 601 112.8 601C75.3 601 37.7 601 18.8 601L0 601Z" fill="#abaaaa">
</path>
<path d="M0 171L18.8 163.5C37.7 156 75.3 141 112.8 138C150.3 135 187.7 144 225.2 202.7C262.7 261.3 300.3 369.7 337.8 423.5C375.3 477.3 412.7 476.7 450.2 443.5C487.7 410.3 525.3 344.7 562.8 319.2C600.3 293.7 637.7 308.3 675.2 301.5C712.7 294.7 750.3 266.3 787.8 294.3C825.3 322.3 862.7 406.7 881.3 448.8L900 491L900 601L881.3 601C862.7 601 825.3 601 787.8 601C750.3 601 712.7 601 675.2 601C637.7 601 600.3 601 562.8 601C525.3 601 487.7 601 450.2 601C412.7 601 375.3 601 337.8 601C300.3 601 262.7 601 225.2 601C187.7 601 150.3 601 112.8 601C75.3 601 37.7 601 18.8 601L0 601Z" fill="#999898">
</path>
<path d="M0 303L18.8 295.2C37.7 287.3 75.3 271.7 112.8 289.3C150.3 307 187.7 358 225.2 369.3C262.7 380.7 300.3 352.3 337.8 338C375.3 323.7 412.7 323.3 450.2 361.5C487.7 399.7 525.3 476.3 562.8 519.2C600.3 562 637.7 571 675.2 514C712.7 457 750.3 334 787.8 300.2C825.3 266.3 862.7 321.7 881.3 349.3L900 377L900 601L881.3 601C862.7 601 825.3 601 787.8 601C750.3 601 712.7 601 675.2 601C637.7 601 600.3 601 562.8 601C525.3 601 487.7 601 450.2 601C412.7 601 375.3 601 337.8 601C300.3 601 262.7 601 225.2 601C187.7 601 150.3 601 112.8 601C75.3 601 37.7 601 18.8 601L0 601Z" fill="#888686">
</path>
<path d="M0 523L18.8 491.8C37.7 460.7 75.3 398.3 112.8 404.3C150.3 410.3 187.7 484.7 225.2 486.5C262.7 488.3 300.3 417.7 337.8 392.7C375.3 367.7 412.7 388.3 450.2 429.8C487.7 471.3 525.3 533.7 562.8 534.5C600.3 535.3 637.7 474.7 675.2 426C712.7 377.3 750.3 340.7 787.8 328.8C825.3 317 862.7 330 881.3 336.5L900 343L900 601L881.3 601C862.7 601 825.3 601 787.8 601C750.3 601 712.7 601 675.2 601C637.7 601 600.3 601 562.8 601C525.3 601 487.7 601 450.2 601C412.7 601 375.3 601 337.8 601C300.3 601 262.7 601 225.2 601C187.7 601 150.3 601 112.8 601C75.3 601 37.7 601 18.8 601L0 601Z" fill="#767474">
</path>
<path d="M0 414L18.8 430C37.7 446 75.3 478 112.8 485.3C150.3 492.7 187.7 475.3 225.2 464.8C262.7 454.3 300.3 450.7 337.8 471C375.3 491.3 412.7 535.7 450.2 536.3C487.7 537 525.3 494 562.8 493.8C600.3 493.7 637.7 536.3 675.2 530.8C712.7 525.3 750.3 471.7 787.8 462.2C825.3 452.7 862.7 487.3 881.3 504.7L900 522L900 601L881.3 601C862.7 601 825.3 601 787.8 601C750.3 601 712.7 601 675.2 601C637.7 601 600.3 601 562.8 601C525.3 601 487.7 601 450.2 601C412.7 601 375.3 601 337.8 601C300.3 601 262.7 601 225.2 601C187.7 601 150.3 601 112.8 601C75.3 601 37.7 601 18.8 601L0 601Z" fill="#646262">
</path>
</svg>