<svg id="visual" viewBox="0 0 900 600" width="900" height="600" xmlns="http://www.w3.org/2000/svg" xmlns:xlink="http://www.w3.org/1999/xlink" version="1.1">
<rect x="0" y="0" width="900" height="600" fill="#ffffff">
</rect>
<path d="M0 452L18.8 381C37.7 310 75.3 168 112.8 136C150.3 104 187.7 182 225.2 250C262.7 318 300.3 376 337.8 413.8C375.3 451.7 412.7 469.3 450.2 424.5C487.7 379.7 525.3 272.3 562.8 284C600.3 295.7 637.7 426.3 675.2 485.3C712.7 544.3 750.3 531.7 787.8 538.2C825.3 544.7 862.7 570.3 881.3 583.2L900 596L900 0L881.3 0C862.7 0 825.3 0 787.8 0C750.3 0 712.7 0 675.2 0C637.7 0 600.3 0 562.8 0C525.3 0 487.7 0 450.2 0C412.7 0 375.3 0 337.8 0C300.3 0 262.7 0 225.2 0C187.7 0 150.3 0 112.8 0C75.3 0 37.7 0 18.8 0L0 0Z" fill="#abaaaa">
</path>
<path d="M0 18L18.8 91.7C37.7 165.3 75.3 312.7 112.8 333C150.3 353.3 187.7 246.7 225.2 186.5C262.7 126.3 300.3 112.7 337.8 116C375.3 119.3 412.7 139.7 450.2 199.5C487.7 259.3 525.3 358.7 562.8 399.8C600.3 441 637.7 424 675.2 411.8C712.7 399.7 750.3 392.3 787.8 344C825.3 295.7 862.7 206.3 881.3 161.7L900 117L900 0L881.3 0C862.7 0 825.3 0 787.8 0C750.3 0 712.7 0 675.2 0C637.7 0 600.3 0 562.8 0C525.3 0 487.7 0 450.2 0C412.7 0 375.3 0 337.8 0C300.3 0 262.7 0 225.2 0C187.7 0 150.3 0 112.8 0C75.3 0 37.7 0 18.8 0L0 0Z" fill="#999898">
</path>
<path d="M0 217L18.8 195C37.7 173 75.3 129 112.8 110.7C150.3 92.3 187.7 99.7 225.2 113.5C262.7 127.3 300.3 147.7 337.8 180.2C375.3 212.7 412.7 257.3 450.2 264.3C487.7 271.3 525.3 240.7 562.8 230.3C600.3 220 637.7 230 675.2 234.7C712.7 239.3 750.3 238.7 787.8 224.2C825.3 209.7 862.7 181.3 881.3 167.2L900 153L900 0L881.3 0C862.7 0 825.3 0 787.8 0C750.3 0 712.7 0 675.2 0C637.7 0 600.3 0 562.8 0C525.3 0 487.7 0 450.2 0C412.7 0 375.3 0 337.8 0C300.3 0 262.7 0 225.2 0C187.7 0 150.3 0 112.8 0C75.3 0 37.7 0 18.8 0L0 0Z" fill="#888686">
</path>
<path d="M0 265L18.8 226.5C37.7 188 75.3 111 112.8 70C150.3 29 187.7 24 225.2 19.3C262.7 14.7 300.3 10.3 337.8 43.7C375.3 77 412.7 148 450.2 151.7C487.7 155.3 525.3 91.7 562.8 73.8C600.3 56 637.7 84 675.2 85.3C712.7 86.7 750.3 61.3 787.8 85.7C825.3 110 862.7 184 881.3 221L900 258L900 0L881.3 0C862.7 0 825.3 0 787.8 0C750.3 0 712.7 0 675.2 0C637.7 0 600.3 0 562.8 0C525.3 0 487.7 0 450.2 0C412.7 0 375.3 0 337.8 0C300.3 0 262.7 0 225.2 0C187.7 0 150.3 0 112.8 0C75.3 0 37.7 0 18.8 0L0 0Z" fill="#767474">
</path>
<path d="M0 33L18.8 31.5C37.7 30 75.3 27 112.8 47.8C150.3 68.7 187.7 113.3 225.2 122.7C262.7 132 300.3 106 337.8 104.2C375.3 102.3 412.7 124.7 450.2 136.2C487.7 147.7 525.3 148.3 562.8 127C600.3 105.7 637.7 62.3 675.2 62.3C712.7 62.3 750.3 105.7 787.8 115.7C825.3 125.7 862.7 102.3 881.3 90.7L900 79L900 0L881.3 0C862.7 0 825.3 0 787.8 0C750.3 0 712.7 0 675.2 0C637.7 0 600.3 0 562.8 0C525.3 0 487.7 0 450.2 0C412.7 0 375.3 0 337.8 0C300.3 0 262.7 0 225.2 0C187.7 0 150.3 0 112.8 0C75.3 0 37.7 0 18.8 0L0 0Z" fill="#646262">
</path>
</svg>