<svg id="visual" viewBox="0 0 900 600" width="900" height="600" xmlns="http://www.w3.org/2000/svg" xmlns:xlink="http://www.w3.org/1999/xlink" version="1.1">
<rect x="0" y="0" width="900" height="600" fill="#ffffff">
</rect>
<path d="M0 276L18.8 319C37.7 362 75.3 448 112.8 420.5C150.3 393 187.7 252 225.2 254.7C262.7 257.3 300.3 403.7 337.8 484.8C375.3 566 412.7 582 450.2 504.5C487.7 427 525.3 256 562.8 186.5C600.3 117 637.7 149 675.2 170C712.7 191 750.3 201 787.8 182C825.3 163 862.7 115 881.3 91L900 67L900 601L881.3 601C862.7 601 825.3 601 787.8 601C750.3 601 712.7 601 675.2 601C637.7 601 600.3 601 562.8 601C525.3 601 487.7 601 450.2 601C412.7 601 375.3 601 337.8 601C300.3 601 262.7 601 225.2 601C187.7 601 150.3 601 112.8 601C75.3 601 37.7 601 18.8 601L0 601Z" fill="#abaaaa">
</path>
<path d="M0 293L18.8 331.5C37.7 370 75.3 447 112.8 464.5C150.3 482 187.7 440 225.2 403C262.7 366 300.3 334 337.8 362C375.3 390 412.7 478 450.2 465.7C487.7 453.3 525.3 340.7 562.8 308.7C600.3 276.7 637.7 325.3 675.2 332.3C712.7 339.3 750.3 304.7 787.8 276C825.3 247.3 862.7 224.7 881.3 213.3L900 202L900 601L881.3 601C862.7 601 825.3 601 787.8 601C750.3 601 712.7 601 675.2 601C637.7 601 600.3 601 562.8 601C525.3 601 487.7 601 450.2 601C412.7 601 375.3 601 337.8 601C300.3 601 262.7 601 225.2 601C187.7 601 150.3 601 112.8 601C75.3 601 37.7 601 18.8 601L0 601Z" fill="#999898">
</path>
<path d="M0 551L18.8 493.3C37.7 435.7 75.3 320.3 112.8 280.5C150.3 240.7 187.7 276.3 225.2 335.7C262.7 395 300.3 478 337.8 475.5C375.3 473 412.7 385 450.2 367.3C487.7 349.7 525.3 402.3 562.8 440C600.3 477.7 637.7 500.3 675.2 474.5C712.7 448.7 750.3 374.3 787.8 381.7C825.3 389 862.7 478 881.3 522.5L900 567L900 601L881.3 601C862.7 601 825.3 601 787.8 601C750.3 601 712.7 601 675.2 601C637.7 601 600.3 601 562.8 601C525.3 601 487.7 601 450.2 601C412.7 601 375.3 601 337.8 601C300.3 601 262.7 601 225.2 601C187.7 601 150.3 601 112.8 601C75.3 601 37.7 601 18.8 601L0 601Z" fill="#888686">
</path>
<path d="M0 590L18.8 581.5C37.7 573 75.3 556 112.8 549.5C150.3 543 187.7 547 225.2 515C262.7 483 300.3 415 337.8 388.3C375.3 361.7 412.7 376.3 450.2 413C487.7 449.7 525.3 508.3 562.8 498.8C600.3 489.3 637.7 411.7 675.2 377.5C712.7 343.3 750.3 352.7 787.8 379.5C825.3 406.3 862.7 450.7 881.3 472.8L900 495L900 601L881.3 601C862.7 601 825.3 601 787.8 601C750.3 601 712.7 601 675.2 601C637.7 601 600.3 601 562.8 601C525.3 601 487.7 601 450.2 601C412.7 601 375.3 601 337.8 601C300.3 601 262.7 601 225.2 601C187.7 601 150.3 601 112.8 601C75.3 601 37.7 601 18.8 601L0 601Z" fill="#767474">
</path>
<path d="M0 541L18.8 523.3C37.7 505.7 75.3 470.3 112.8 460.7C150.3 451 187.7 467 225.2 464.7C262.7 462.3 300.3 441.7 337.8 436.5C375.3 431.3 412.7 441.7 450.2 456.8C487.7 472 525.3 492 562.8 507C600.3 522 637.7 532 675.2 542.3C712.7 552.7 750.3 563.3 787.8 549.2C825.3 535 862.7 496 881.3 476.5L900 457L900 601L881.3 601C862.7 601 825.3 601 787.8 601C750.3 601 712.7 601 675.2 601C637.7 601 600.3 601 562.8 601C525.3 601 487.7 601 450.2 601C412.7 601 375.3 601 337.8 601C300.3 601 262.7 601 225.2 601C187.7 601 150.3 601 112.8 601C75.3 601 37.7 601 18.8 601L0 601Z" fill="#646262">
</path>
</svg>