<svg id="visual" viewBox="0 0 900 600" width="900" height="600" xmlns="http://www.w3.org/2000/svg" xmlns:xlink="http://www.w3.org/1999/xlink" version="1.1">
<rect x="0" y="0" width="900" height="600" fill="#ffffff">
</rect>
<path d="M0 557L18.8 479.8C37.7 402.7 75.3 248.3 112.8 169C150.3 89.7 187.7 85.3 225.2 149.5C262.7 213.7 300.3 346.3 337.8 353.2C375.3 360 412.7 241 450.2 165.5C487.7 90 525.3 58 562.8 104.2C600.3 150.3 637.7 274.7 675.2 357.3C712.7 440 750.3 481 787.8 512C825.3 543 862.7 564 881.3 574.5L900 585L900 0L881.3 0C862.7 0 825.3 0 787.8 0C750.3 0 712.7 0 675.2 0C637.7 0 600.3 0 562.8 0C525.3 0 487.7 0 450.2 0C412.7 0 375.3 0 337.8 0C300.3 0 262.7 0 225.2 0C187.7 0 150.3 0 112.8 0C75.3 0 37.7 0 18.8 0L0 0Z" fill="#abaaaa">
</path>
<path d="M0 469L18.8 424.8C37.7 380.7 75.3 292.3 112.8 253C150.3 213.7 187.7 223.3 225.2 214.7C262.7 206 300.3 179 337.8 211.8C375.3 244.7 412.7 337.3 450.2 319.8C487.7 302.3 525.3 174.7 562.8 174.7C600.3 174.7 637.7 302.3 675.2 369.3C712.7 436.3 750.3 442.7 787.8 418.7C825.3 394.7 862.7 340.3 881.3 313.2L900 286L900 0L881.3 0C862.7 0 825.3 0 787.8 0C750.3 0 712.7 0 675.2 0C637.7 0 600.3 0 562.8 0C525.3 0 487.7 0 450.2 0C412.7 0 375.3 0 337.8 0C300.3 0 262.7 0 225.2 0C187.7 0 150.3 0 112.8 0C75.3 0 37.7 0 18.8 0L0 0Z" fill="#999898">
</path>
<path d="M0 177L18.8 198.2C37.7 219.3 75.3 261.7 112.8 252.3C150.3 243 187.7 182 225.2 188.5C262.7 195 300.3 269 337.8 304.5C375.3 340 412.7 337 450.2 290.3C487.7 243.7 525.3 153.3 562.8 156C600.3 158.7 637.7 254.3 675.2 273.3C712.7 292.3 750.3 234.7 787.8 179.2C825.3 123.7 862.7 70.3 881.3 43.7L900 17L900 0L881.3 0C862.7 0 825.3 0 787.8 0C750.3 0 712.7 0 675.2 0C637.7 0 600.3 0 562.8 0C525.3 0 487.7 0 450.2 0C412.7 0 375.3 0 337.8 0C300.3 0 262.7 0 225.2 0C187.7 0 150.3 0 112.8 0C75.3 0 37.7 0 18.8 0L0 0Z" fill="#888686">
</path>
<path d="M0 216L18.8 205C37.7 194 75.3 172 112.8 182.8C150.3 193.7 187.7 237.3 225.2 224.3C262.7 211.3 300.3 141.7 337.8 137.5C375.3 133.3 412.7 194.7 450.2 208.5C487.7 222.3 525.3 188.7 562.8 164.2C600.3 139.7 637.7 124.3 675.2 147.8C712.7 171.3 750.3 233.7 787.8 248.8C825.3 264 862.7 232 881.3 216L900 200L900 0L881.3 0C862.7 0 825.3 0 787.8 0C750.3 0 712.7 0 675.2 0C637.7 0 600.3 0 562.8 0C525.3 0 487.7 0 450.2 0C412.7 0 375.3 0 337.8 0C300.3 0 262.7 0 225.2 0C187.7 0 150.3 0 112.8 0C75.3 0 37.7 0 18.8 0L0 0Z" fill="#767474">
</path>
<path d="M0 151L18.8 154.7C37.7 158.3 75.3 165.7 112.8 153.3C150.3 141 187.7 109 225.2 112.5C262.7 116 300.3 155 337.8 153.5C375.3 152 412.7 110 450.2 101.5C487.7 93 525.3 118 562.8 109.2C600.3 100.3 637.7 57.7 675.2 63.3C712.7 69 750.3 123 787.8 144.8C825.3 166.7 862.7 156.3 881.3 151.2L900 146L900 0L881.3 0C862.7 0 825.3 0 787.8 0C750.3 0 712.7 0 675.2 0C637.7 0 600.3 0 562.8 0C525.3 0 487.7 0 450.2 0C412.7 0 375.3 0 337.8 0C300.3 0 262.7 0 225.2 0C187.7 0 150.3 0 112.8 0C75.3 0 37.7 0 18.8 0L0 0Z" fill="#646262">
</path>
</svg>