<svg id="visual" viewBox="0 0 900 600" width="900" height="600" xmlns="http://www.w3.org/2000/svg" xmlns:xlink="http://www.w3.org/1999/xlink" version="1.1">
<rect x="0" y="0" width="900" height="600" fill="#ffffff">
</rect>
<path d="M0 358L18.8 388.2C37.7 418.3 75.3 478.7 112.8 453.2C150.3 427.7 187.7 316.3 225.2 296.2C262.7 276 300.3 347 337.8 326.7C375.3 306.3 412.7 194.7 450.2 151.7C487.7 108.7 525.3 134.3 562.8 177.5C600.3 220.7 637.7 281.3 675.2 303.2C712.7 325 750.3 308 787.8 251.5C825.3 195 862.7 99 881.3 51L900 3L900 601L881.3 601C862.7 601 825.3 601 787.8 601C750.3 601 712.7 601 675.2 601C637.7 601 600.3 601 562.8 601C525.3 601 487.7 601 450.2 601C412.7 601 375.3 601 337.8 601C300.3 601 262.7 601 225.2 601C187.7 601 150.3 601 112.8 601C75.3 601 37.7 601 18.8 601L0 601Z" fill="#abaaaa">
</path>
<path d="M0 394L18.8 379.3C37.7 364.7 75.3 335.3 112.8 321.5C150.3 307.7 187.7 309.3 225.2 321.8C262.7 334.3 300.3 357.7 337.8 341C375.3 324.3 412.7 267.7 450.2 233.7C487.7 199.7 525.3 188.3 562.8 217.8C600.3 247.3 637.7 317.7 675.2 362.2C712.7 406.7 750.3 425.3 787.8 394.8C825.3 364.3 862.7 284.7 881.3 244.8L900 205L900 601L881.3 601C862.7 601 825.3 601 787.8 601C750.3 601 712.7 601 675.2 601C637.7 601 600.3 601 562.8 601C525.3 601 487.7 601 450.2 601C412.7 601 375.3 601 337.8 601C300.3 601 262.7 601 225.2 601C187.7 601 150.3 601 112.8 601C75.3 601 37.7 601 18.8 601L0 601Z" fill="#999898">
</path>
<path d="M0 206L18.8 236C37.7 266 75.3 326 112.8 378.8C150.3 431.7 187.7 477.3 225.2 507.3C262.7 537.3 300.3 551.7 337.8 509.7C375.3 467.7 412.7 369.3 450.2 352.5C487.7 335.7 525.3 400.3 562.8 388.8C600.3 377.3 637.7 289.7 675.2 259.2C712.7 228.7 750.3 255.3 787.8 289C825.3 322.7 862.7 363.3 881.3 383.7L900 404L900 601L881.3 601C862.7 601 825.3 601 787.8 601C750.3 601 712.7 601 675.2 601C637.7 601 600.3 601 562.8 601C525.3 601 487.7 601 450.2 601C412.7 601 375.3 601 337.8 601C300.3 601 262.7 601 225.2 601C187.7 601 150.3 601 112.8 601C75.3 601 37.7 601 18.8 601L0 601Z" fill="#888686">
</path>
<path d="M0 316L18.8 354.2C37.7 392.3 75.3 468.7 112.8 476.7C150.3 484.7 187.7 424.3 225.2 422.3C262.7 420.3 300.3 476.7 337.8 486.5C375.3 496.3 412.7 459.7 450.2 449C487.7 438.3 525.3 453.7 562.8 467C600.3 480.3 637.7 491.7 675.2 502C712.7 512.3 750.3 521.7 787.8 500.3C825.3 479 862.7 427 881.3 401L900 375L900 601L881.3 601C862.7 601 825.3 601 787.8 601C750.3 601 712.7 601 675.2 601C637.7 601 600.3 601 562.8 601C525.3 601 487.7 601 450.2 601C412.7 601 375.3 601 337.8 601C300.3 601 262.7 601 225.2 601C187.7 601 150.3 601 112.8 601C75.3 601 37.7 601 18.8 601L0 601Z" fill="#767474">
</path>
<path d="M0 503L18.8 507.3C37.7 511.7 75.3 520.3 112.8 534.8C150.3 549.3 187.7 569.7 225.2 554.2C262.7 538.7 300.3 487.3 337.8 469.2C375.3 451 412.7 466 450.2 478.8C487.7 491.7 525.3 502.3 562.8 511.2C600.3 520 637.7 527 675.2 524.2C712.7 521.3 750.3 508.7 787.8 509.7C825.3 510.7 862.7 525.3 881.3 532.7L900 540L900 601L881.3 601C862.7 601 825.3 601 787.8 601C750.3 601 712.7 601 675.2 601C637.7 601 600.3 601 562.8 601C525.3 601 487.7 601 450.2 601C412.7 601 375.3 601 337.8 601C300.3 601 262.7 601 225.2 601C187.7 601 150.3 601 112.8 601C75.3 601 37.7 601 18.8 601L0 601Z" fill="#646262">
</path>
</svg>