<svg id="visual" viewBox="0 0 900 600" width="900" height="600" xmlns="http://www.w3.org/2000/svg" xmlns:xlink="http://www.w3.org/1999/xlink" version="1.1">
<rect x="0" y="0" width="900" height="600" fill="#ffffff">
</rect>
<path d="M0 121L18.8 120.5C37.7 120 75.3 119 112.8 196.5C150.3 274 187.7 430 225.2 500.5C262.7 571 300.3 556 337.8 535.5C375.3 515 412.7 489 450.2 408.2C487.7 327.3 525.3 191.7 562.8 199.8C600.3 208 637.7 360 675.2 420.7C712.7 481.3 750.3 450.7 787.8 406.3C825.3 362 862.7 304 881.3 275L900 246L900 0L881.3 0C862.7 0 825.3 0 787.8 0C750.3 0 712.7 0 675.2 0C637.7 0 600.3 0 562.8 0C525.3 0 487.7 0 450.2 0C412.7 0 375.3 0 337.8 0C300.3 0 262.7 0 225.2 0C187.7 0 150.3 0 112.8 0C75.3 0 37.7 0 18.8 0L0 0Z" fill="#abaaaa">
</path>
<path d="M0 377L18.8 376C37.7 375 75.3 373 112.8 386.3C150.3 399.7 187.7 428.3 225.2 381.7C262.7 335 300.3 213 337.8 179.7C375.3 146.3 412.7 201.7 450.2 223.3C487.7 245 525.3 233 562.8 229C600.3 225 637.7 229 675.2 197C712.7 165 750.3 97 787.8 106.7C825.3 116.3 862.7 203.7 881.3 247.3L900 291L900 0L881.3 0C862.7 0 825.3 0 787.8 0C750.3 0 712.7 0 675.2 0C637.7 0 600.3 0 562.8 0C525.3 0 487.7 0 450.2 0C412.7 0 375.3 0 337.8 0C300.3 0 262.7 0 225.2 0C187.7 0 150.3 0 112.8 0C75.3 0 37.7 0 18.8 0L0 0Z" fill="#999898">
</path>
<path d="M0 324L18.8 328.2C37.7 332.3 75.3 340.7 112.8 322C150.3 303.3 187.7 257.7 225.2 240.3C262.7 223 300.3 234 337.8 233.2C375.3 232.3 412.7 219.7 450.2 179.5C487.7 139.3 525.3 71.7 562.8 68.3C600.3 65 637.7 126 675.2 151.3C712.7 176.7 750.3 166.3 787.8 181.2C825.3 196 862.7 236 881.3 256L900 276L900 0L881.3 0C862.7 0 825.3 0 787.8 0C750.3 0 712.7 0 675.2 0C637.7 0 600.3 0 562.8 0C525.3 0 487.7 0 450.2 0C412.7 0 375.3 0 337.8 0C300.3 0 262.7 0 225.2 0C187.7 0 150.3 0 112.8 0C75.3 0 37.7 0 18.8 0L0 0Z" fill="#888686">
</path>
<path d="M0 125L18.8 153.7C37.7 182.3 75.3 239.7 112.8 266.7C150.3 293.7 187.7 290.3 225.2 269.2C262.7 248 300.3 209 337.8 178.3C375.3 147.7 412.7 125.3 450.2 125.7C487.7 126 525.3 149 562.8 176.8C600.3 204.7 637.7 237.3 675.2 249C712.7 260.7 750.3 251.3 787.8 208.8C825.3 166.3 862.7 90.7 881.3 52.8L900 15L900 0L881.3 0C862.7 0 825.3 0 787.8 0C750.3 0 712.7 0 675.2 0C637.7 0 600.3 0 562.8 0C525.3 0 487.7 0 450.2 0C412.7 0 375.3 0 337.8 0C300.3 0 262.7 0 225.2 0C187.7 0 150.3 0 112.8 0C75.3 0 37.7 0 18.8 0L0 0Z" fill="#767474">
</path>
<path d="M0 136L18.8 141.8C37.7 147.7 75.3 159.3 112.8 137.3C150.3 115.3 187.7 59.7 225.2 47.7C262.7 35.7 300.3 67.3 337.8 67.2C375.3 67 412.7 35 450.2 38.8C487.7 42.7 525.3 82.3 562.8 89C600.3 95.7 637.7 69.3 675.2 49.3C712.7 29.3 750.3 15.7 787.8 10.7C825.3 5.7 862.7 9.3 881.3 11.2L900 13L900 0L881.3 0C862.7 0 825.3 0 787.8 0C750.3 0 712.7 0 675.2 0C637.7 0 600.3 0 562.8 0C525.3 0 487.7 0 450.2 0C412.7 0 375.3 0 337.8 0C300.3 0 262.7 0 225.2 0C187.7 0 150.3 0 112.8 0C75.3 0 37.7 0 18.8 0L0 0Z" fill="#646262">
</path>
</svg>