<svg width="130" height="130" viewBox="0 0 130 130" fill="none" xmlns="http://www.w3.org/2000/svg">
<g filter="url(#filter0_d_50_305)">
<path d="M40.2121 49.9028C40.1651 37.3738 46.6761 25.2441 56.6064 17.3082C71.2237 5.62643 92.81 3.35483 109.074 12.949C113.516 15.5693 117.393 19.0238 120.431 23.1074C122.355 25.6925 119.543 29.1003 116.649 27.6758C112.374 25.5702 107.98 23.808 103.097 22.8599C93.8872 21.0716 84.2302 21.7206 75.3862 24.9009C67.1772 27.8533 59.7589 32.8068 53.9441 39.3025C50.6564 42.9757 48.1516 47.0046 45.9791 51.2491C44.5268 54.0874 40.2244 53.0914 40.2121 49.9028ZM108.682 39.4765C97.9958 32.3085 84.2543 29.7564 72.1902 33.7189C69.1524 34.7167 69.5252 39.1127 72.6831 39.6155C77.3963 40.3667 82.0076 41.5007 86.5219 43.4882C94.5049 47.0034 101.515 52.5177 106.863 59.4016C112.625 66.8181 116.227 75.7895 117.369 85.089C117.975 90.0212 117.654 94.7384 116.97 99.4503C116.508 102.638 120.622 104.256 122.489 101.63C125.439 97.4818 127.531 92.7323 128.654 87.7027C132.729 69.4567 124.087 49.8096 108.682 39.4765ZM92.0018 61.35C92.7677 66.2302 93.1117 71.1309 92.5517 76.2224C91.5687 85.1572 88.2043 93.8782 82.8962 101.146C77.4463 108.607 70.0739 114.582 61.5967 118.274C57.34 120.128 53.0542 121.185 48.6794 121.938C45.5306 122.48 45.284 126.89 48.3323 127.845C53.0655 129.329 58.0918 129.869 63.0954 129.45C82.021 127.865 98.3038 113.299 103.353 95.2275C106.787 82.9399 104.921 69.2137 97.4618 59.0629C95.5753 56.4949 91.5082 58.2032 92.0018 61.35ZM48.0184 107.713C60.9452 107.304 73.655 101.29 81.1217 90.9535C82.9937 88.3618 80.1058 85.0219 77.2532 86.47C72.9991 88.6292 68.6009 90.4196 63.7813 91.4562C54.6267 93.4255 44.9273 92.9292 36.0475 89.921C27.759 87.1132 20.3035 82.294 14.3386 75.9076C10.9456 72.2745 8.42913 68.27 6.20948 64.0567C4.7075 61.2065 0.426062 62.3124 0.461301 65.5326C0.516728 70.62 1.61929 75.6898 3.67071 80.4175C11.0926 97.5238 29.5287 108.299 48.0184 107.713ZM45.7448 85.2666C48.7854 86.2405 51.0639 82.4619 48.8087 80.2045C45.4387 76.8299 42.3756 73.2056 39.8901 68.9473C35.3407 61.1526 32.8567 52.1617 32.7727 43.1331C32.6891 34.0746 35.0293 25.0942 39.4202 17.1845C41.832 12.8394 44.8689 9.21177 48.1959 5.80077C50.4463 3.49364 48.0699 -0.230684 45.0136 0.797735C40.1855 2.42192 35.6971 5.03646 31.8286 8.44569C17.665 20.9288 13.1576 42.1281 19.7667 59.6234C24.2556 71.5067 33.7971 81.441 45.7448 85.2666Z" fill="url(#paint0_radial_50_305)"/>
</g>
<defs>
<filter id="filter0_d_50_305" x="0.260937" y="0.42207" width="129.598" height="129.365" filterUnits="userSpaceOnUse" color-interpolation-filters="sRGB">
<feFlood flood-opacity="0" result="BackgroundImageFix"/>
<feColorMatrix in="SourceAlpha" type="matrix" values="0 0 0 0 0 0 0 0 0 0 0 0 0 0 0 0 0 0 127 0" result="hardAlpha"/>
<feOffset/>
<feGaussianBlur stdDeviation="0.1"/>
<feComposite in2="hardAlpha" operator="out"/>
<feColorMatrix type="matrix" values="0 0 0 0 0.737255 0 0 0 0 0.737255 0 0 0 0 0.737255 0 0 0 1 0"/>
<feBlend mode="normal" in2="BackgroundImageFix" result="effect1_dropShadow_50_305"/>
<feBlend mode="normal" in="SourceGraphic" in2="effect1_dropShadow_50_305" result="shape"/>
</filter>
<radialGradient id="paint0_radial_50_305" cx="0" cy="0" r="1" gradientUnits="userSpaceOnUse" gradientTransform="translate(65 65) rotate(89.5001) scale(64.5409)">
<stop offset="0.310127" stop-color="#BCBCBC"/>
<stop offset="0.554923" stop-color="#BCBCBC"/>
<stop offset="0.799719" stop-color="#BCBCBC"/>
<stop offset="1" stop-color="#BCBCBC"/>
</radialGradient>
</defs>
</svg>
