<svg width="512" height="512" viewBox="0 0 512 512" fill="none" xmlns="http://www.w3.org/2000/svg">
<path fill-rule="evenodd" clip-rule="evenodd" d="M429 266.701V263.068C428.128 240.418 420.298 221.007 405.51 204.836C394.264 192.53 380.612 184.117 364.554 179.599C364.427 179.564 364.312 179.494 364.223 179.396C364.134 179.297 364.075 179.175 364.053 179.044C358.468 145.697 335.032 116.321 303.504 103.584C293.537 99.5567 283.771 97.1555 274.205 96.3798C248.917 94.3235 226.127 100.616 205.836 115.259C194.54 123.412 185.321 133.616 178.177 145.873C178.051 146.094 177.861 146.182 177.608 146.137C165.102 143.986 153.384 145.681 142.454 151.223C125.551 159.8 114.267 176.609 112.647 195.441C112.209 200.532 112.496 205.731 113.508 211.039C113.534 211.181 113.521 211.328 113.468 211.463C113.415 211.598 113.326 211.716 113.21 211.803C98.4802 222.86 88.8045 237.356 84.1823 255.29C83.0211 259.781 82.2937 265.231 82 271.639V274.865C82.2756 282.279 83.3103 288.993 85.104 295.009C90.2006 312.135 99.6527 326.194 113.46 337.183C123.446 345.129 134.773 350.114 147.442 352.139C151.138 352.725 155.478 353.002 160.461 352.971C178.597 352.849 195.821 352.858 212.132 352.998C215.895 353.034 218.631 352.662 220.339 351.882C227.787 348.493 227.198 337.758 219.939 334.518C218.71 333.968 216.426 333.693 213.087 333.693C195.525 333.702 177.963 333.702 160.4 333.693C156.103 333.688 152.53 333.454 149.679 332.989C131.651 330.054 116.686 317.351 108.323 301.34C101.566 288.42 99.4517 273.289 103.111 259.098C106.256 246.904 112.83 236.738 122.833 228.598C124.469 227.268 126.753 225.663 129.685 223.782C131.872 222.384 133.32 220.369 134.03 217.735C134.714 215.18 133.895 212.257 133.091 209.388C132.637 207.769 132.188 206.168 132.017 204.66C131.24 197.725 132.071 191.547 134.511 186.126C138.424 177.432 144.627 171.16 153.121 167.309C161.037 163.724 170.255 163.406 178.686 166.172C180.759 166.853 182.589 167.07 184.175 166.822C186.674 166.434 188.754 165.297 190.417 163.412C191.416 162.275 192.355 160.375 193.272 158.521C193.773 157.507 194.268 156.508 194.761 155.654C209.075 130.911 236.076 114.947 264.975 115.049C284.859 115.11 304.1 121.969 318.875 135.132C334.436 148.989 343.472 166.517 345.984 187.716C346.608 193.006 349.929 195.968 354.869 196.935C363.21 198.577 370.627 201.481 377.119 205.648C403.212 222.362 415.472 253.781 407.001 283.645C400.013 308.253 378.99 328.342 353.704 332.773C350.198 333.386 345.975 333.682 341.037 333.659C326.809 333.6 312.007 333.573 296.632 333.578C294.608 333.578 292.958 333.787 291.684 334.207C282.867 337.136 283.26 350.062 292.247 352.436C293.489 352.765 294.725 352.925 295.954 352.916C311.095 352.786 326.515 352.786 342.216 352.916C346.987 352.957 351.329 352.655 355.242 352.01C372.994 349.083 388.209 341.591 400.888 329.533C418.613 312.677 427.983 291.733 429 266.701ZM213.044 280.043C224.182 268.783 234.99 257.912 245.47 247.431C245.74 247.159 245.876 247.216 245.876 247.601C245.871 300.392 245.869 353.24 245.869 406.145C245.869 419.231 265.126 419.421 265.126 405.9C265.113 352.642 265.111 299.887 265.12 247.635C265.12 247.186 265.278 247.121 265.593 247.438C276.952 258.87 288.311 270.278 299.67 281.66C301.722 283.717 304.122 284.65 306.87 284.46C315.335 283.868 319.144 273.99 312.919 267.739C296.165 250.943 279.916 234.617 264.172 218.759C262.305 216.879 260.762 215.634 259.544 215.022C254.862 212.678 250.883 214.628 247.337 218.209C230.745 234.977 214.3 251.498 198.002 267.773C192.88 272.889 194.551 281.259 201.203 283.855C206.122 285.778 209.573 283.556 213.044 280.043Z" fill="url(#paint0_linear_27_42)"/>
<defs>
<linearGradient id="paint0_linear_27_42" x1="255.5" y1="214" x2="255.5" y2="416" gradientUnits="userSpaceOnUse">
<stop stop-color="#D4C951"/>
<stop offset="0.331596" stop-color="#C3D15A"/>
<stop offset="0.659721" stop-color="#6FD1C2"/>
<stop offset="1" stop-color="#9470B0"/>
</linearGradient>
</defs>
</svg>
