<svg id="visual" viewBox="0 0 900 600" width="900" height="600" xmlns="http://www.w3.org/2000/svg" xmlns:xlink="http://www.w3.org/1999/xlink" version="1.1">
<path d="M0 204L25 223.8C50 243.7 100 283.3 150 301.5C200 319.7 250 316.3 300 310.7C350 305 400 297 450 297.7C500 298.3 550 307.7 600 306.5C650 305.3 700 293.7 750 284C800 274.3 850 266.7 875 262.8L900 259L900 0L875 0C850 0 800 0 750 0C700 0 650 0 600 0C550 0 500 0 450 0C400 0 350 0 300 0C250 0 200 0 150 0C100 0 50 0 25 0L0 0Z" fill="#fa7268">
</path>
<path d="M0 117L25 124.8C50 132.7 100 148.3 150 148.7C200 149 250 134 300 140.2C350 146.3 400 173.7 450 184.3C500 195 550 189 600 184.3C650 179.7 700 176.3 750 180C800 183.7 850 194.3 875 199.7L900 205L900 0L875 0C850 0 800 0 750 0C700 0 650 0 600 0C550 0 500 0 450 0C400 0 350 0 300 0C250 0 200 0 150 0C100 0 50 0 25 0L0 0Z" fill="#e34c67">
</path>
<path d="M0 69L25 66.8C50 64.7 100 60.3 150 58.8C200 57.3 250 58.7 300 62.3C350 66 400 72 450 74.5C500 77 550 76 600 87.3C650 98.7 700 122.3 750 124.3C800 126.3 850 106.7 875 96.8L900 87L900 0L875 0C850 0 800 0 750 0C700 0 650 0 600 0C550 0 500 0 450 0C400 0 350 0 300 0C250 0 200 0 150 0C100 0 50 0 25 0L0 0Z" fill="#c62368">
</path>
</svg>