<svg id="visual" viewBox="0 0 900 600" width="900" height="600" xmlns="http://www.w3.org/2000/svg" xmlns:xlink="http://www.w3.org/1999/xlink" version="1.1">
<path d="M0 339L25 332.7C50 326.3 100 313.7 150 304.3C200 295 250 289 300 279.2C350 269.3 400 255.7 450 252.8C500 250 550 258 600 261.7C650 265.3 700 264.7 750 274.7C800 284.7 850 305.3 875 315.7L900 326L900 0L875 0C850 0 800 0 750 0C700 0 650 0 600 0C550 0 500 0 450 0C400 0 350 0 300 0C250 0 200 0 150 0C100 0 50 0 25 0L0 0Z" fill="#fa7268">
</path>
<path d="M0 243L25 243.3C50 243.7 100 244.3 150 229.2C200 214 250 183 300 172C350 161 400 170 450 181C500 192 550 205 600 213.2C650 221.3 700 224.7 750 226C800 227.3 850 226.7 875 226.3L900 226L900 0L875 0C850 0 800 0 750 0C700 0 650 0 600 0C550 0 500 0 450 0C400 0 350 0 300 0C250 0 200 0 150 0C100 0 50 0 25 0L0 0Z" fill="#e34c67">
</path>
<path d="M0 128L25 124.8C50 121.7 100 115.3 150 120C200 124.7 250 140.3 300 144.2C350 148 400 140 450 139C500 138 550 144 600 145.5C650 147 700 144 750 141.7C800 139.3 850 137.7 875 136.8L900 136L900 0L875 0C850 0 800 0 750 0C700 0 650 0 600 0C550 0 500 0 450 0C400 0 350 0 300 0C250 0 200 0 150 0C100 0 50 0 25 0L0 0Z" fill="#c62368">
</path>
</svg>