<svg id="visual" viewBox="0 0 900 600" width="900" height="600" xmlns="http://www.w3.org/2000/svg" xmlns:xlink="http://www.w3.org/1999/xlink" version="1.1">
<path d="M0 273L25 261.8C50 250.7 100 228.3 150 236.7C200 245 250 284 300 303C350 322 400 321 450 316.2C500 311.3 550 302.7 600 297.8C650 293 700 292 750 289.5C800 287 850 283 875 281L900 279L900 0L875 0C850 0 800 0 750 0C700 0 650 0 600 0C550 0 500 0 450 0C400 0 350 0 300 0C250 0 200 0 150 0C100 0 50 0 25 0L0 0Z" fill="#fa7268">
</path>
<path d="M0 127L25 146.3C50 165.7 100 204.3 150 222.2C200 240 250 237 300 229.2C350 221.3 400 208.7 450 195C500 181.3 550 166.7 600 160.7C650 154.7 700 157.3 750 155.2C800 153 850 146 875 142.5L900 139L900 0L875 0C850 0 800 0 750 0C700 0 650 0 600 0C550 0 500 0 450 0C400 0 350 0 300 0C250 0 200 0 150 0C100 0 50 0 25 0L0 0Z" fill="#e34c67">
</path>
<path d="M0 133L25 122.2C50 111.3 100 89.7 150 78.7C200 67.7 250 67.3 300 80.3C350 93.3 400 119.7 450 132C500 144.3 550 142.7 600 142.8C650 143 700 145 750 138.8C800 132.7 850 118.3 875 111.2L900 104L900 0L875 0C850 0 800 0 750 0C700 0 650 0 600 0C550 0 500 0 450 0C400 0 350 0 300 0C250 0 200 0 150 0C100 0 50 0 25 0L0 0Z" fill="#c62368">
</path>
</svg>