<svg id="visual" viewBox="0 0 900 600" width="900" height="600" xmlns="http://www.w3.org/2000/svg" xmlns:xlink="http://www.w3.org/1999/xlink" version="1.1">
<path d="M0 287L25 283.7C50 280.3 100 273.7 150 268.7C200 263.7 250 260.3 300 261.7C350 263 400 269 450 266.2C500 263.3 550 251.7 600 257.5C650 263.3 700 286.7 750 277.2C800 267.7 850 225.3 875 204.2L900 183L900 0L875 0C850 0 800 0 750 0C700 0 650 0 600 0C550 0 500 0 450 0C400 0 350 0 300 0C250 0 200 0 150 0C100 0 50 0 25 0L0 0Z" fill="#fa7268">
</path>
<path d="M0 213L25 210.5C50 208 100 203 150 194.8C200 186.7 250 175.3 300 180.5C350 185.7 400 207.3 450 210.5C500 213.7 550 198.3 600 181C650 163.7 700 144.3 750 139.8C800 135.3 850 145.7 875 150.8L900 156L900 0L875 0C850 0 800 0 750 0C700 0 650 0 600 0C550 0 500 0 450 0C400 0 350 0 300 0C250 0 200 0 150 0C100 0 50 0 25 0L0 0Z" fill="#e34c67">
</path>
<path d="M0 147L25 148.5C50 150 100 153 150 147.5C200 142 250 128 300 126.5C350 125 400 136 450 127.5C500 119 550 91 600 92.5C650 94 700 125 750 138.3C800 151.7 850 147.3 875 145.2L900 143L900 0L875 0C850 0 800 0 750 0C700 0 650 0 600 0C550 0 500 0 450 0C400 0 350 0 300 0C250 0 200 0 150 0C100 0 50 0 25 0L0 0Z" fill="#c62368">
</path>
</svg>