<svg id="visual" viewBox="0 0 900 600" width="900" height="600" xmlns="http://www.w3.org/2000/svg" xmlns:xlink="http://www.w3.org/1999/xlink" version="1.1">
<path d="M0 335L25 333.2C50 331.3 100 327.7 150 313.7C200 299.7 250 275.3 300 256.5C350 237.7 400 224.3 450 226C500 227.7 550 244.3 600 250.5C650 256.7 700 252.3 750 257.5C800 262.7 850 277.3 875 284.7L900 292L900 0L875 0C850 0 800 0 750 0C700 0 650 0 600 0C550 0 500 0 450 0C400 0 350 0 300 0C250 0 200 0 150 0C100 0 50 0 25 0L0 0Z" fill="#fa7268">
</path>
<path d="M0 135L25 151C50 167 100 199 150 209C200 219 250 207 300 203.3C350 199.7 400 204.3 450 213C500 221.7 550 234.3 600 238.8C650 243.3 700 239.7 750 232.2C800 224.7 850 213.3 875 207.7L900 202L900 0L875 0C850 0 800 0 750 0C700 0 650 0 600 0C550 0 500 0 450 0C400 0 350 0 300 0C250 0 200 0 150 0C100 0 50 0 25 0L0 0Z" fill="#e34c67">
</path>
<path d="M0 107L25 100.5C50 94 100 81 150 83.8C200 86.7 250 105.3 300 119.3C350 133.3 400 142.7 450 139.5C500 136.3 550 120.7 600 110.3C650 100 700 95 750 102.2C800 109.3 850 128.7 875 138.3L900 148L900 0L875 0C850 0 800 0 750 0C700 0 650 0 600 0C550 0 500 0 450 0C400 0 350 0 300 0C250 0 200 0 150 0C100 0 50 0 25 0L0 0Z" fill="#c62368">
</path>
</svg>