<svg width="158" height="140" viewBox="0 0 158 140" fill="none" xmlns="http://www.w3.org/2000/svg">
<g filter="url(#filter0_d_50_235)">
<path fill-rule="evenodd" clip-rule="evenodd" d="M103.474 19.6607C96.0249 20.7338 89.5612 23.9044 83.3789 29.5182C82.2157 30.5743 79.3232 33.3975 76.9513 35.7921C70.5742 42.2301 67.1622 44.7506 62.4737 46.487C59.1297 47.7255 56.0433 48.171 51.6306 48.0522C43.2156 47.826 37.8807 45.3007 30.1921 37.9042C26.9082 34.7452 26.286 34.3428 24.7074 34.3565C22.0102 34.3801 19.9742 36.8928 20.0177 40.1443C20.0379 41.6719 20.8552 43.1727 22.6873 45.047C30.6242 53.1674 36.9858 57.0352 45.2002 58.7352C47.0468 59.1175 48.7668 59.2165 52.9139 59.1804C57.0609 59.1442 58.7789 59.0151 60.6185 58.6007C65.4323 57.5167 69.4497 55.7329 73.4972 52.8825C76.7429 50.5969 78.8839 48.6493 85.4377 42.0222C91.9802 35.4059 96.1514 32.7296 102.249 31.2354C105.05 30.5494 112.246 30.4866 115.058 31.1237C120.901 32.4475 125.386 35.1284 131.203 40.7723C134.424 43.8977 134.502 43.957 135.844 44.2985C138.893 45.0737 141.82 41.8436 141.366 38.2047C141.126 36.2862 140.628 35.4703 138.286 33.1558C130.286 25.2496 124.082 21.5568 116.147 19.9768C113.487 19.4469 106.217 19.2656 103.474 19.6607ZM105.38 50.2046C95.8132 51.0588 88.7191 54.8704 79.6437 64.0318C73.8039 69.9269 72.9078 70.7847 70.8215 72.4765C65.4245 76.853 60.2949 78.6594 53.0844 78.7223C44.0042 78.8016 38.4938 76.3036 30.2666 68.3784C26.6503 64.8951 25.6926 64.4572 23.466 65.2674C21.4948 65.9849 20.003 68.8494 20.3532 71.2446C20.6445 73.2372 21.2666 74.146 24.4118 77.1753C33.2948 85.7304 40.3316 89.2284 50.0205 89.9052C58.0952 90.4697 65.7596 88.6743 71.8778 84.786C76.0809 82.1147 78.2811 80.1859 85.8595 72.5289C94.2607 64.0408 99.6687 61.4151 108.917 61.3344C117.997 61.2552 123.508 63.7531 131.735 71.6784C135.351 75.1616 136.309 75.5996 138.535 74.7893C140.507 74.0719 141.998 71.2073 141.648 68.8121C141.372 66.9197 140.728 65.9274 138.155 63.4285C128.728 54.2707 121.981 50.8658 111.808 50.1343C109.968 50.0017 108.355 49.911 108.225 49.9326C108.094 49.9542 106.814 50.0764 105.38 50.2046ZM104.581 80.9244C95.392 82.2879 88.5143 85.9654 81.0868 93.4865C74.7036 99.9503 73.0376 101.564 71.293 102.973C67.6122 105.946 63.983 107.785 59.752 108.821C56.9514 109.507 49.7551 109.57 46.943 108.933C41.1005 107.609 36.6149 104.928 30.7986 99.2844C27.5302 96.1126 27.4576 96.0589 26.0773 95.7668C22.9773 95.1106 20.1844 98.2341 20.6359 101.852C20.8756 103.771 21.3731 104.586 23.7152 106.901C31.7482 114.839 37.8303 118.451 45.9731 120.119C47.7856 120.49 49.5597 120.595 53.4494 120.561C60.2029 120.502 64.0359 119.657 69.3081 117.068C73.8674 114.828 77.5615 111.824 85.0407 104.274C91.442 97.8117 94.892 95.2656 99.5208 93.5878C103.15 92.2719 104.116 92.121 109.185 92.0768C114.255 92.0326 115.223 92.1665 118.875 93.4189C123.104 94.8689 126.908 97.4375 131.809 102.153C135.093 105.312 135.715 105.714 137.294 105.7C139.991 105.677 142.027 103.164 141.984 99.9125C141.964 98.3885 141.145 96.8835 139.314 95.0013C131.542 87.0135 124.86 82.9554 116.801 81.3283C114.75 80.9139 106.49 80.6411 104.581 80.9244Z" fill="url(#paint0_linear_50_235)"/>
</g>
<defs>
<filter id="filter0_d_50_235" x="0.847622" y="0.278378" width="160.306" height="139.457" filterUnits="userSpaceOnUse" color-interpolation-filters="sRGB">
<feFlood flood-opacity="0" result="BackgroundImageFix"/>
<feColorMatrix in="SourceAlpha" type="matrix" values="0 0 0 0 0 0 0 0 0 0 0 0 0 0 0 0 0 0 127 0" result="hardAlpha"/>
<feOffset/>
<feGaussianBlur stdDeviation="9.58449"/>
<feComposite in2="hardAlpha" operator="out"/>
<feColorMatrix type="matrix" values="0 0 0 0 1 0 0 0 0 1 0 0 0 0 1 0 0 0 1 0"/>
<feBlend mode="normal" in2="BackgroundImageFix" result="effect1_dropShadow_50_235"/>
<feBlend mode="normal" in="SourceGraphic" in2="effect1_dropShadow_50_235" result="shape"/>
</filter>
<linearGradient id="paint0_linear_50_235" x1="80.5614" y1="19.6834" x2="81.4395" y2="120.317" gradientUnits="userSpaceOnUse">
<stop stop-color="#BCBCBC"/>
<stop offset="0.362211" stop-color="#BCBCBC"/>
<stop offset="0.596591" stop-color="#BCBCBC"/>
<stop offset="1" stop-color="#BCBCBC"/>
</linearGradient>
</defs>
</svg>
