<svg width="130" height="130" viewBox="0 0 130 130" fill="none" xmlns="http://www.w3.org/2000/svg">
<path d="M130 67.2953V67.9504C129.646 70.2508 128.547 71.7395 126.702 72.4166C125.913 72.706 124.731 72.8457 123.157 72.8355C116.517 72.7966 110.376 72.7915 104.736 72.8203C102.807 72.8288 101.337 72.3074 100.326 71.2562C99.7674 70.6773 99.2249 69.7472 98.6984 68.4658C96.3354 62.7106 94.1569 57.4666 92.1629 52.7338C92.107 52.6018 92.0605 52.6051 92.0232 52.7439C86.4339 73.6963 80.8412 94.6672 75.2451 115.657C74.0848 120.016 68.4023 121.073 65.8176 117.196C65.496 116.715 65.2404 116.027 65.0508 115.131C59.255 87.6891 53.5412 60.5541 47.9096 33.7264C47.874 33.5622 47.8249 33.5579 47.7623 33.7137C43.214 45.0379 38.6538 56.4434 34.0818 67.9301C33.464 69.4823 32.8978 70.5495 32.3832 71.1318C31.3811 72.2626 29.878 72.8245 27.8738 72.8178C20.607 72.7907 13.5738 72.7975 6.77422 72.8381C5.27109 72.8465 4.12344 72.7077 3.33125 72.4217C1.45234 71.7378 0.341927 70.2355 0 67.9148V67.2623C0.29707 64.4312 2.47051 62.4152 5.33711 62.4127C11.6882 62.4076 18.2364 62.4068 24.9818 62.4101C25.0102 62.4102 25.0379 62.4018 25.0615 62.3859C25.085 62.3701 25.1032 62.3476 25.1139 62.3213C31.6122 46.0781 38.0944 29.8763 44.5605 13.716C46.1779 9.67382 51.5937 9.24726 53.8586 12.9416C54.1836 13.4731 54.5069 14.5099 54.8285 16.0519C59.9727 40.647 65.2734 65.8548 70.7307 91.6754C70.7747 91.8785 70.8229 91.8802 70.8754 91.6805C75.9569 72.6392 80.9817 53.8239 85.9498 35.2346C86.373 33.6468 87.3268 32.4763 88.8113 31.723C89.3852 31.4302 89.9945 31.2728 90.6395 31.2508C93.077 31.167 95.0168 32.5051 95.9461 34.7471C99.9341 44.3616 103.753 53.5446 107.402 62.2959C107.435 62.3738 107.494 62.4127 107.58 62.4127C113.388 62.4178 119.081 62.4178 124.66 62.4127C127.575 62.4101 129.683 64.4668 130 67.2953Z" fill="url(#paint0_linear_70_346)"/>
<defs>
<linearGradient id="paint0_linear_70_346" x1="65" y1="10.4102" x2="65" y2="119.591" gradientUnits="userSpaceOnUse">
<stop stop-color="#E1C04C"/>
<stop offset="0.358154" stop-color="#A7E15C"/>
<stop offset="0.623154" stop-color="#5ED7D7"/>
<stop offset="1" stop-color="#A743A3"/>
</linearGradient>
</defs>
</svg>
