<svg id="visual" viewBox="0 0 900 600" width="900" height="600" xmlns="http://www.w3.org/2000/svg" xmlns:xlink="http://www.w3.org/1999/xlink" version="1.1">
<rect x="0" y="0" width="900" height="600" fill="#ffffff"></rect>
<path d="M0 272L16.7 276.5C33.3 281 66.7 290 100 312.2C133.3 334.3 166.7 369.7 200 377.5C233.3 385.3 266.7 365.7 300 347C333.3 328.3 366.7 310.7 400 316.7C433.3 322.7 466.7 352.3 500 368.7C533.3 385 566.7 388 600 369.7C633.3 351.3 666.7 311.7 700 306.3C733.3 301 766.7 330 800 335.7C833.3 341.3 866.7 323.7 883.3 314.8L900 306L900 0L883.3 0C866.7 0 833.3 0 800 0C766.7 0 733.3 0 700 0C666.7 0 633.3 0 600 0C566.7 0 533.3 0 500 0C466.7 0 433.3 0 400 0C366.7 0 333.3 0 300 0C266.7 0 233.3 0 200 0C166.7 0 133.3 0 100 0C66.7 0 33.3 0 16.7 0L0 0Z" fill="#abaaaa"></path>
<path d="M0 254L16.7 265C33.3 276 66.7 298 100 294.3C133.3 290.7 166.7 261.3 200 252.8C233.3 244.3 266.7 256.7 300 272.2C333.3 287.7 366.7 306.3 400 312.2C433.3 318 466.7 311 500 303.7C533.3 296.3 566.7 288.7 600 278.2C633.3 267.7 666.7 254.3 700 258C733.3 261.7 766.7 282.3 800 284.7C833.3 287 866.7 271 883.3 263L900 255L900 0L883.3 0C866.7 0 833.3 0 800 0C766.7 0 733.3 0 700 0C666.7 0 633.3 0 600 0C566.7 0 533.3 0 500 0C466.7 0 433.3 0 400 0C366.7 0 333.3 0 300 0C266.7 0 233.3 0 200 0C166.7 0 133.3 0 100 0C66.7 0 33.3 0 16.7 0L0 0Z" fill="#999898"></path>
<path d="M0 212L16.7 209.2C33.3 206.3 66.7 200.7 100 200.7C133.3 200.7 166.7 206.3 200 214.8C233.3 223.3 266.7 234.7 300 237.5C333.3 240.3 366.7 234.7 400 220.8C433.3 207 466.7 185 500 189C533.3 193 566.7 223 600 226C633.3 229 666.7 205 700 196.8C733.3 188.7 766.7 196.3 800 201.3C833.3 206.3 866.7 208.7 883.3 209.8L900 211L900 0L883.3 0C866.7 0 833.3 0 800 0C766.7 0 733.3 0 700 0C666.7 0 633.3 0 600 0C566.7 0 533.3 0 500 0C466.7 0 433.3 0 400 0C366.7 0 333.3 0 300 0C266.7 0 233.3 0 200 0C166.7 0 133.3 0 100 0C66.7 0 33.3 0 16.7 0L0 0Z" fill="#888686"></path>
<path d="M0 111L16.7 116.8C33.3 122.7 66.7 134.3 100 139.7C133.3 145 166.7 144 200 138.5C233.3 133 266.7 123 300 119.5C333.3 116 366.7 119 400 125.5C433.3 132 466.7 142 500 147.2C533.3 152.3 566.7 152.7 600 147.2C633.3 141.7 666.7 130.3 700 125.8C733.3 121.3 766.7 123.7 800 122.2C833.3 120.7 866.7 115.3 883.3 112.7L900 110L900 0L883.3 0C866.7 0 833.3 0 800 0C766.7 0 733.3 0 700 0C666.7 0 633.3 0 600 0C566.7 0 533.3 0 500 0C466.7 0 433.3 0 400 0C366.7 0 333.3 0 300 0C266.7 0 233.3 0 200 0C166.7 0 133.3 0 100 0C66.7 0 33.3 0 16.7 0L0 0Z" fill="#767474"></path>
<path d="M0 95L16.7 96C33.3 97 66.7 99 100 90.3C133.3 81.7 166.7 62.3 200 58.7C233.3 55 266.7 67 300 69.3C333.3 71.7 366.7 64.3 400 59.3C433.3 54.3 466.7 51.7 500 54.3C533.3 57 566.7 65 600 67.3C633.3 69.7 666.7 66.3 700 63C733.3 59.7 766.7 56.3 800 62.2C833.3 68 866.7 83 883.3 90.5L900 98L900 0L883.3 0C866.7 0 833.3 0 800 0C766.7 0 733.3 0 700 0C666.7 0 633.3 0 600 0C566.7 0 533.3 0 500 0C466.7 0 433.3 0 400 0C366.7 0 333.3 0 300 0C266.7 0 233.3 0 200 0C166.7 0 133.3 0 100 0C66.7 0 33.3 0 16.7 0L0 0Z" fill="#646262"></path></svg>