<svg id="visual" viewBox="0 0 900 600" width="900" height="600" xmlns="http://www.w3.org/2000/svg" xmlns:xlink="http://www.w3.org/1999/xlink" version="1.1">
<rect x="0" y="0" width="900" height="600" fill="#ffffff"></rect>
<path d="M0 268L16.7 278.3C33.3 288.7 66.7 309.3 100 310.7C133.3 312 166.7 294 200 291.8C233.3 289.7 266.7 303.3 300 311.3C333.3 319.3 366.7 321.7 400 321.7C433.3 321.7 466.7 319.3 500 323.3C533.3 327.3 566.7 337.7 600 333.5C633.3 329.3 666.7 310.7 700 309.2C733.3 307.7 766.7 323.3 800 331C833.3 338.7 866.7 338.3 883.3 338.2L900 338L900 0L883.3 0C866.7 0 833.3 0 800 0C766.7 0 733.3 0 700 0C666.7 0 633.3 0 600 0C566.7 0 533.3 0 500 0C466.7 0 433.3 0 400 0C366.7 0 333.3 0 300 0C266.7 0 233.3 0 200 0C166.7 0 133.3 0 100 0C66.7 0 33.3 0 16.7 0L0 0Z" fill="#abaaaa"></path>
<path d="M0 280L16.7 287.2C33.3 294.3 66.7 308.7 100 302.5C133.3 296.3 166.7 269.7 200 257C233.3 244.3 266.7 245.7 300 253.2C333.3 260.7 366.7 274.3 400 278.5C433.3 282.7 466.7 277.3 500 284.2C533.3 291 566.7 310 600 309.8C633.3 309.7 666.7 290.3 700 285C733.3 279.7 766.7 288.3 800 293.2C833.3 298 866.7 299 883.3 299.5L900 300L900 0L883.3 0C866.7 0 833.3 0 800 0C766.7 0 733.3 0 700 0C666.7 0 633.3 0 600 0C566.7 0 533.3 0 500 0C466.7 0 433.3 0 400 0C366.7 0 333.3 0 300 0C266.7 0 233.3 0 200 0C166.7 0 133.3 0 100 0C66.7 0 33.3 0 16.7 0L0 0Z" fill="#999898"></path>
<path d="M0 198L16.7 205.2C33.3 212.3 66.7 226.7 100 235C133.3 243.3 166.7 245.7 200 244.3C233.3 243 266.7 238 300 235.8C333.3 233.7 366.7 234.3 400 222.3C433.3 210.3 466.7 185.7 500 176.5C533.3 167.3 566.7 173.7 600 183.8C633.3 194 666.7 208 700 214C733.3 220 766.7 218 800 218C833.3 218 866.7 220 883.3 221L900 222L900 0L883.3 0C866.7 0 833.3 0 800 0C766.7 0 733.3 0 700 0C666.7 0 633.3 0 600 0C566.7 0 533.3 0 500 0C466.7 0 433.3 0 400 0C366.7 0 333.3 0 300 0C266.7 0 233.3 0 200 0C166.7 0 133.3 0 100 0C66.7 0 33.3 0 16.7 0L0 0Z" fill="#888686"></path>
<path d="M0 96L16.7 98.5C33.3 101 66.7 106 100 109.2C133.3 112.3 166.7 113.7 200 115.3C233.3 117 266.7 119 300 127.2C333.3 135.3 366.7 149.7 400 152.7C433.3 155.7 466.7 147.3 500 139.2C533.3 131 566.7 123 600 124.7C633.3 126.3 666.7 137.7 700 148.5C733.3 159.3 766.7 169.7 800 164.8C833.3 160 866.7 140 883.3 130L900 120L900 0L883.3 0C866.7 0 833.3 0 800 0C766.7 0 733.3 0 700 0C666.7 0 633.3 0 600 0C566.7 0 533.3 0 500 0C466.7 0 433.3 0 400 0C366.7 0 333.3 0 300 0C266.7 0 233.3 0 200 0C166.7 0 133.3 0 100 0C66.7 0 33.3 0 16.7 0L0 0Z" fill="#767474"></path>
<path d="M0 66L16.7 64.2C33.3 62.3 66.7 58.7 100 63.2C133.3 67.7 166.7 80.3 200 86C233.3 91.7 266.7 90.3 300 89.2C333.3 88 366.7 87 400 80.3C433.3 73.7 466.7 61.3 500 62.2C533.3 63 566.7 77 600 85.2C633.3 93.3 666.7 95.7 700 95.2C733.3 94.7 766.7 91.3 800 92.2C833.3 93 866.7 98 883.3 100.5L900 103L900 0L883.3 0C866.7 0 833.3 0 800 0C766.7 0 733.3 0 700 0C666.7 0 633.3 0 600 0C566.7 0 533.3 0 500 0C466.7 0 433.3 0 400 0C366.7 0 333.3 0 300 0C266.7 0 233.3 0 200 0C166.7 0 133.3 0 100 0C66.7 0 33.3 0 16.7 0L0 0Z" fill="#646262"></path></svg>