<svg id="visual" viewBox="0 0 900 600" width="900" height="600" xmlns="http://www.w3.org/2000/svg" xmlns:xlink="http://www.w3.org/1999/xlink" version="1.1"><rect x="0" y="0" width="900" height="600" fill="#ffffff"></rect>
<path d="M0 373L16.7 372.7C33.3 372.3 66.7 371.7 100 354.8C133.3 338 166.7 305 200 301.7C233.3 298.3 266.7 324.7 300 339C333.3 353.3 366.7 355.7 400 351.5C433.3 347.3 466.7 336.7 500 323C533.3 309.3 566.7 292.7 600 305.2C633.3 317.7 666.7 359.3 700 368.3C733.3 377.3 766.7 353.7 800 353C833.3 352.3 866.7 374.7 883.3 385.8L900 397L900 0L883.3 0C866.7 0 833.3 0 800 0C766.7 0 733.3 0 700 0C666.7 0 633.3 0 600 0C566.7 0 533.3 0 500 0C466.7 0 433.3 0 400 0C366.7 0 333.3 0 300 0C266.7 0 233.3 0 200 0C166.7 0 133.3 0 100 0C66.7 0 33.3 0 16.7 0L0 0Z" fill="#abaaaa"></path>
<path d="M0 302L16.7 301C33.3 300 66.7 298 100 286.5C133.3 275 166.7 254 200 241C233.3 228 266.7 223 300 224.8C333.3 226.7 366.7 235.3 400 245.8C433.3 256.3 466.7 268.7 500 264.7C533.3 260.7 566.7 240.3 600 233.7C633.3 227 666.7 234 700 242.8C733.3 251.7 766.7 262.3 800 258.8C833.3 255.3 866.7 237.7 883.3 228.8L900 220L900 0L883.3 0C866.7 0 833.3 0 800 0C766.7 0 733.3 0 700 0C666.7 0 633.3 0 600 0C566.7 0 533.3 0 500 0C466.7 0 433.3 0 400 0C366.7 0 333.3 0 300 0C266.7 0 233.3 0 200 0C166.7 0 133.3 0 100 0C66.7 0 33.3 0 16.7 0L0 0Z" fill="#999898"></path>
<path d="M0 167L16.7 174.3C33.3 181.7 66.7 196.3 100 209.3C133.3 222.3 166.7 233.7 200 227.5C233.3 221.3 266.7 197.7 300 194.2C333.3 190.7 366.7 207.3 400 206C433.3 204.7 466.7 185.3 500 189C533.3 192.7 566.7 219.3 600 222.2C633.3 225 666.7 204 700 199.7C733.3 195.3 766.7 207.7 800 220.7C833.3 233.7 866.7 247.3 883.3 254.2L900 261L900 0L883.3 0C866.7 0 833.3 0 800 0C766.7 0 733.3 0 700 0C666.7 0 633.3 0 600 0C566.7 0 533.3 0 500 0C466.7 0 433.3 0 400 0C366.7 0 333.3 0 300 0C266.7 0 233.3 0 200 0C166.7 0 133.3 0 100 0C66.7 0 33.3 0 16.7 0L0 0Z" fill="#888686"></path>
<path d="M0 128L16.7 129.8C33.3 131.7 66.7 135.3 100 131.3C133.3 127.3 166.7 115.7 200 119.2C233.3 122.7 266.7 141.3 300 151.2C333.3 161 366.7 162 400 154C433.3 146 466.7 129 500 132C533.3 135 566.7 158 600 160.8C633.3 163.7 666.7 146.3 700 135.7C733.3 125 766.7 121 800 122.3C833.3 123.7 866.7 130.3 883.3 133.7L900 137L900 0L883.3 0C866.7 0 833.3 0 800 0C766.7 0 733.3 0 700 0C666.7 0 633.3 0 600 0C566.7 0 533.3 0 500 0C466.7 0 433.3 0 400 0C366.7 0 333.3 0 300 0C266.7 0 233.3 0 200 0C166.7 0 133.3 0 100 0C66.7 0 33.3 0 16.7 0L0 0Z" fill="#767474"></path>
<path d="M0 115L16.7 104.7C33.3 94.3 66.7 73.7 100 74.2C133.3 74.7 166.7 96.3 200 99.5C233.3 102.7 266.7 87.3 300 78.2C333.3 69 366.7 66 400 70.2C433.3 74.3 466.7 85.7 500 83.3C533.3 81 566.7 65 600 65.3C633.3 65.7 666.7 82.3 700 85.8C733.3 89.3 766.7 79.7 800 76C833.3 72.3 866.7 74.7 883.3 75.8L900 77L900 0L883.3 0C866.7 0 833.3 0 800 0C766.7 0 733.3 0 700 0C666.7 0 633.3 0 600 0C566.7 0 533.3 0 500 0C466.7 0 433.3 0 400 0C366.7 0 333.3 0 300 0C266.7 0 233.3 0 200 0C166.7 0 133.3 0 100 0C66.7 0 33.3 0 16.7 0L0 0Z" fill="#646262"></path></svg>