<svg id="visual" viewBox="0 0 900 600" width="900" height="600" xmlns="http://www.w3.org/2000/svg" xmlns:xlink="http://www.w3.org/1999/xlink" version="1.1"><rect x="0" y="0" width="900" height="600" fill="#ffffff"></rect>
<path d="M0 353L16.7 360.2C33.3 367.3 66.7 381.7 100 383.7C133.3 385.7 166.7 375.3 200 354.8C233.3 334.3 266.7 303.7 300 292.8C333.3 282 366.7 291 400 308.8C433.3 326.7 466.7 353.3 500 352C533.3 350.7 566.7 321.3 600 311.8C633.3 302.3 666.7 312.7 700 326.2C733.3 339.7 766.7 356.3 800 347.5C833.3 338.7 866.7 304.3 883.3 287.2L900 270L900 0L883.3 0C866.7 0 833.3 0 800 0C766.7 0 733.3 0 700 0C666.7 0 633.3 0 600 0C566.7 0 533.3 0 500 0C466.7 0 433.3 0 400 0C366.7 0 333.3 0 300 0C266.7 0 233.3 0 200 0C166.7 0 133.3 0 100 0C66.7 0 33.3 0 16.7 0L0 0Z" fill="#abaaaa"></path>
<path d="M0 282L16.7 276.8C33.3 271.7 66.7 261.3 100 255C133.3 248.7 166.7 246.3 200 245.5C233.3 244.7 266.7 245.3 300 240.2C333.3 235 366.7 224 400 236.8C433.3 249.7 466.7 286.3 500 297.8C533.3 309.3 566.7 295.7 600 285C633.3 274.3 666.7 266.7 700 275.5C733.3 284.3 766.7 309.7 800 309.5C833.3 309.3 866.7 283.7 883.3 270.8L900 258L900 0L883.3 0C866.7 0 833.3 0 800 0C766.7 0 733.3 0 700 0C666.7 0 633.3 0 600 0C566.7 0 533.3 0 500 0C466.7 0 433.3 0 400 0C366.7 0 333.3 0 300 0C266.7 0 233.3 0 200 0C166.7 0 133.3 0 100 0C66.7 0 33.3 0 16.7 0L0 0Z" fill="#999898"></path>
<path d="M0 238L16.7 234C33.3 230 66.7 222 100 220.2C133.3 218.3 166.7 222.7 200 219.7C233.3 216.7 266.7 206.3 300 209.2C333.3 212 366.7 228 400 223.3C433.3 218.7 466.7 193.3 500 195.7C533.3 198 566.7 228 600 234.8C633.3 241.7 666.7 225.3 700 221.7C733.3 218 766.7 227 800 220.2C833.3 213.3 866.7 190.7 883.3 179.3L900 168L900 0L883.3 0C866.7 0 833.3 0 800 0C766.7 0 733.3 0 700 0C666.7 0 633.3 0 600 0C566.7 0 533.3 0 500 0C466.7 0 433.3 0 400 0C366.7 0 333.3 0 300 0C266.7 0 233.3 0 200 0C166.7 0 133.3 0 100 0C66.7 0 33.3 0 16.7 0L0 0Z" fill="#888686"></path>
<path d="M0 169L16.7 172C33.3 175 66.7 181 100 182.8C133.3 184.7 166.7 182.3 200 170C233.3 157.7 266.7 135.3 300 121.2C333.3 107 366.7 101 400 99.3C433.3 97.7 466.7 100.3 500 112.8C533.3 125.3 566.7 147.7 600 148.8C633.3 150 666.7 130 700 119.2C733.3 108.3 766.7 106.7 800 114.8C833.3 123 866.7 141 883.3 150L900 159L900 0L883.3 0C866.7 0 833.3 0 800 0C766.7 0 733.3 0 700 0C666.7 0 633.3 0 600 0C566.7 0 533.3 0 500 0C466.7 0 433.3 0 400 0C366.7 0 333.3 0 300 0C266.7 0 233.3 0 200 0C166.7 0 133.3 0 100 0C66.7 0 33.3 0 16.7 0L0 0Z" fill="#767474"></path>
<path d="M0 91L16.7 93.5C33.3 96 66.7 101 100 100.2C133.3 99.3 166.7 92.7 200 82.3C233.3 72 266.7 58 300 51.3C333.3 44.7 366.7 45.3 400 57.5C433.3 69.7 466.7 93.3 500 97.8C533.3 102.3 566.7 87.7 600 86.2C633.3 84.7 666.7 96.3 700 102.2C733.3 108 766.7 108 800 100C833.3 92 866.7 76 883.3 68L900 60L900 0L883.3 0C866.7 0 833.3 0 800 0C766.7 0 733.3 0 700 0C666.7 0 633.3 0 600 0C566.7 0 533.3 0 500 0C466.7 0 433.3 0 400 0C366.7 0 333.3 0 300 0C266.7 0 233.3 0 200 0C166.7 0 133.3 0 100 0C66.7 0 33.3 0 16.7 0L0 0Z" fill="#646262"></path></svg>