<svg id="visual" viewBox="0 0 900 600" width="900" height="600" xmlns="http://www.w3.org/2000/svg" xmlns:xlink="http://www.w3.org/1999/xlink" version="1.1">
<rect x="0" y="0" width="900" height="600" fill="#ffffff"></rect>
<path d="M0 29L16.7 29C33.3 29 66.7 29 100 29C133.3 29 166.7 29 200 29C233.3 29 266.7 29 300 29C333.3 29 366.7 29 400 29C433.3 29 466.7 29 500 29C533.3 29 566.7 29 600 29C633.3 29 666.7 29 700 29C733.3 29 766.7 29 800 29C833.3 29 866.7 29 883.3 29L900 29L900 0L883.3 0C866.7 0 833.3 0 800 0C766.7 0 733.3 0 700 0C666.7 0 633.3 0 600 0C566.7 0 533.3 0 500 0C466.7 0 433.3 0 400 0C366.7 0 333.3 0 300 0C266.7 0 233.3 0 200 0C166.7 0 133.3 0 100 0C66.7 0 33.3 0 16.7 0L0 0Z" fill="#abaaaa"></path>
<path d="M0 24L16.7 24C33.3 24 66.7 24 100 24C133.3 24 166.7 24 200 24C233.3 24 266.7 24 300 24C333.3 24 366.7 24 400 24C433.3 24 466.7 24 500 24C533.3 24 566.7 24 600 24C633.3 24 666.7 24 700 24C733.3 24 766.7 24 800 24C833.3 24 866.7 24 883.3 24L900 24L900 0L883.3 0C866.7 0 833.3 0 800 0C766.7 0 733.3 0 700 0C666.7 0 633.3 0 600 0C566.7 0 533.3 0 500 0C466.7 0 433.3 0 400 0C366.7 0 333.3 0 300 0C266.7 0 233.3 0 200 0C166.7 0 133.3 0 100 0C66.7 0 33.3 0 16.7 0L0 0Z" fill="#999898"></path>
<path d="M0 19L16.7 19C33.3 19 66.7 19 100 19C133.3 19 166.7 19 200 19C233.3 19 266.7 19 300 19C333.3 19 366.7 19 400 19C433.3 19 466.7 19 500 19C533.3 19 566.7 19 600 19C633.3 19 666.7 19 700 19C733.3 19 766.7 19 800 19C833.3 19 866.7 19 883.3 19L900 19L900 0L883.3 0C866.7 0 833.3 0 800 0C766.7 0 733.3 0 700 0C666.7 0 633.3 0 600 0C566.7 0 533.3 0 500 0C466.7 0 433.3 0 400 0C366.7 0 333.3 0 300 0C266.7 0 233.3 0 200 0C166.7 0 133.3 0 100 0C66.7 0 33.3 0 16.7 0L0 0Z" fill="#888686"></path>
<path d="M0 14L16.7 14C33.3 14 66.7 14 100 14C133.3 14 166.7 14 200 14C233.3 14 266.7 14 300 14C333.3 14 366.7 14 400 14C433.3 14 466.7 14 500 14C533.3 14 566.7 14 600 14C633.3 14 666.7 14 700 14C733.3 14 766.7 14 800 14C833.3 14 866.7 14 883.3 14L900 14L900 0L883.3 0C866.7 0 833.3 0 800 0C766.7 0 733.3 0 700 0C666.7 0 633.3 0 600 0C566.7 0 533.3 0 500 0C466.7 0 433.3 0 400 0C366.7 0 333.3 0 300 0C266.7 0 233.3 0 200 0C166.7 0 133.3 0 100 0C66.7 0 33.3 0 16.7 0L0 0Z" fill="#767474"></path>
<path d="M0 9L16.7 9C33.3 9 66.7 9 100 9C133.3 9 166.7 9 200 9C233.3 9 266.7 9 300 9C333.3 9 366.7 9 400 9C433.3 9 466.7 9 500 9C533.3 9 566.7 9 600 9C633.3 9 666.7 9 700 9C733.3 9 766.7 9 800 9C833.3 9 866.7 9 883.3 9L900 9L900 0L883.3 0C866.7 0 833.3 0 800 0C766.7 0 733.3 0 700 0C666.7 0 633.3 0 600 0C566.7 0 533.3 0 500 0C466.7 0 433.3 0 400 0C366.7 0 333.3 0 300 0C266.7 0 233.3 0 200 0C166.7 0 133.3 0 100 0C66.7 0 33.3 0 16.7 0L0 0Z" fill="#646262">
</path></svg>