<svg id="visual" viewBox="0 0 900 600" width="900" height="600" xmlns="http://www.w3.org/2000/svg" xmlns:xlink="http://www.w3.org/1999/xlink" version="1.1">
<rect x="0" y="0" width="900" height="600" fill="#ffffff"></rect>
<path d="M0 392L16.7 386.3C33.3 380.7 66.7 369.3 100 353C133.3 336.7 166.7 315.3 200 321.8C233.3 328.3 266.7 362.7 300 367.8C333.3 373 366.7 349 400 337.7C433.3 326.3 466.7 327.7 500 330.7C533.3 333.7 566.7 338.3 600 342C633.3 345.7 666.7 348.3 700 354.2C733.3 360 766.7 369 800 361.3C833.3 353.7 866.7 329.3 883.3 317.2L900 305L900 0L883.3 0C866.7 0 833.3 0 800 0C766.7 0 733.3 0 700 0C666.7 0 633.3 0 600 0C566.7 0 533.3 0 500 0C466.7 0 433.3 0 400 0C366.7 0 333.3 0 300 0C266.7 0 233.3 0 200 0C166.7 0 133.3 0 100 0C66.7 0 33.3 0 16.7 0L0 0Z" fill="#abaaaa"></path>
<path d="M0 316L16.7 306.2C33.3 296.3 66.7 276.7 100 263.2C133.3 249.7 166.7 242.3 200 243.2C233.3 244 266.7 253 300 264.3C333.3 275.7 366.7 289.3 400 291C433.3 292.7 466.7 282.3 500 282.5C533.3 282.7 566.7 293.3 600 285.5C633.3 277.7 666.7 251.3 700 251.2C733.3 251 766.7 277 800 290.8C833.3 304.7 866.7 306.3 883.3 307.2L900 308L900 0L883.3 0C866.7 0 833.3 0 800 0C766.7 0 733.3 0 700 0C666.7 0 633.3 0 600 0C566.7 0 533.3 0 500 0C466.7 0 433.3 0 400 0C366.7 0 333.3 0 300 0C266.7 0 233.3 0 200 0C166.7 0 133.3 0 100 0C66.7 0 33.3 0 16.7 0L0 0Z" fill="#999898"></path>
<path d="M0 226L16.7 231.7C33.3 237.3 66.7 248.7 100 237.8C133.3 227 166.7 194 200 181.2C233.3 168.3 266.7 175.7 300 185.8C333.3 196 366.7 209 400 211.2C433.3 213.3 466.7 204.7 500 194.2C533.3 183.7 566.7 171.3 600 177C633.3 182.7 666.7 206.3 700 208.7C733.3 211 766.7 192 800 189.3C833.3 186.7 866.7 200.3 883.3 207.2L900 214L900 0L883.3 0C866.7 0 833.3 0 800 0C766.7 0 733.3 0 700 0C666.7 0 633.3 0 600 0C566.7 0 533.3 0 500 0C466.7 0 433.3 0 400 0C366.7 0 333.3 0 300 0C266.7 0 233.3 0 200 0C166.7 0 133.3 0 100 0C66.7 0 33.3 0 16.7 0L0 0Z" fill="#888686"></path>
<path d="M0 119L16.7 122.7C33.3 126.3 66.7 133.7 100 136.3C133.3 139 166.7 137 200 130.5C233.3 124 266.7 113 300 107.3C333.3 101.7 366.7 101.3 400 107.7C433.3 114 466.7 127 500 128.5C533.3 130 566.7 120 600 113.5C633.3 107 666.7 104 700 115C733.3 126 766.7 151 800 157.7C833.3 164.3 866.7 152.7 883.3 146.8L900 141L900 0L883.3 0C866.7 0 833.3 0 800 0C766.7 0 733.3 0 700 0C666.7 0 633.3 0 600 0C566.7 0 533.3 0 500 0C466.7 0 433.3 0 400 0C366.7 0 333.3 0 300 0C266.7 0 233.3 0 200 0C166.7 0 133.3 0 100 0C66.7 0 33.3 0 16.7 0L0 0Z" fill="#767474"></path>
<path d="M0 40L16.7 45.5C33.3 51 66.7 62 100 65.3C133.3 68.7 166.7 64.3 200 66.5C233.3 68.7 266.7 77.3 300 78.7C333.3 80 366.7 74 400 77.3C433.3 80.7 466.7 93.3 500 91.2C533.3 89 566.7 72 600 64.3C633.3 56.7 666.7 58.3 700 63.8C733.3 69.3 766.7 78.7 800 80C833.3 81.3 866.7 74.7 883.3 71.3L900 68L900 0L883.3 0C866.7 0 833.3 0 800 0C766.7 0 733.3 0 700 0C666.7 0 633.3 0 600 0C566.7 0 533.3 0 500 0C466.7 0 433.3 0 400 0C366.7 0 333.3 0 300 0C266.7 0 233.3 0 200 0C166.7 0 133.3 0 100 0C66.7 0 33.3 0 16.7 0L0 0Z" fill="#646262"></path></svg>