<svg id="visual" viewBox="0 0 900 600" width="900" height="600" xmlns="http://www.w3.org/2000/svg" xmlns:xlink="http://www.w3.org/1999/xlink" version="1.1">
<rect x="0" y="0" width="900" height="600" fill="#ffffff"></rect>
<path d="M0 397L16.7 391.8C33.3 386.7 66.7 376.3 100 373.2C133.3 370 166.7 374 200 379.3C233.3 384.7 266.7 391.3 300 394.3C333.3 397.3 366.7 396.7 400 383.7C433.3 370.7 466.7 345.3 500 341.3C533.3 337.3 566.7 354.7 600 349.2C633.3 343.7 666.7 315.3 700 302.8C733.3 290.3 766.7 293.7 800 313.5C833.3 333.3 866.7 369.7 883.3 387.8L900 406L900 0L883.3 0C866.7 0 833.3 0 800 0C766.7 0 733.3 0 700 0C666.7 0 633.3 0 600 0C566.7 0 533.3 0 500 0C466.7 0 433.3 0 400 0C366.7 0 333.3 0 300 0C266.7 0 233.3 0 200 0C166.7 0 133.3 0 100 0C66.7 0 33.3 0 16.7 0L0 0Z" fill="#abaaaa"></path>
<path d="M0 297L16.7 298.8C33.3 300.7 66.7 304.3 100 292.3C133.3 280.3 166.7 252.7 200 250.3C233.3 248 266.7 271 300 287.2C333.3 303.3 366.7 312.7 400 300.5C433.3 288.3 466.7 254.7 500 250.3C533.3 246 566.7 271 600 269.2C633.3 267.3 666.7 238.7 700 243C733.3 247.3 766.7 284.7 800 289.7C833.3 294.7 866.7 267.3 883.3 253.7L900 240L900 0L883.3 0C866.7 0 833.3 0 800 0C766.7 0 733.3 0 700 0C666.7 0 633.3 0 600 0C566.7 0 533.3 0 500 0C466.7 0 433.3 0 400 0C366.7 0 333.3 0 300 0C266.7 0 233.3 0 200 0C166.7 0 133.3 0 100 0C66.7 0 33.3 0 16.7 0L0 0Z" fill="#999898"></path>
<path d="M0 156L16.7 173.7C33.3 191.3 66.7 226.7 100 244.3C133.3 262 166.7 262 200 246.5C233.3 231 266.7 200 300 188C333.3 176 366.7 183 400 192.2C433.3 201.3 466.7 212.7 500 215.8C533.3 219 566.7 214 600 210C633.3 206 666.7 203 700 206.5C733.3 210 766.7 220 800 229C833.3 238 866.7 246 883.3 250L900 254L900 0L883.3 0C866.7 0 833.3 0 800 0C766.7 0 733.3 0 700 0C666.7 0 633.3 0 600 0C566.7 0 533.3 0 500 0C466.7 0 433.3 0 400 0C366.7 0 333.3 0 300 0C266.7 0 233.3 0 200 0C166.7 0 133.3 0 100 0C66.7 0 33.3 0 16.7 0L0 0Z" fill="#888686"></path>
<path d="M0 141L16.7 140.2C33.3 139.3 66.7 137.7 100 141.5C133.3 145.3 166.7 154.7 200 153.3C233.3 152 266.7 140 300 136.3C333.3 132.7 366.7 137.3 400 147.2C433.3 157 466.7 172 500 166.2C533.3 160.3 566.7 133.7 600 125C633.3 116.3 666.7 125.7 700 127.7C733.3 129.7 766.7 124.3 800 128.7C833.3 133 866.7 147 883.3 154L900 161L900 0L883.3 0C866.7 0 833.3 0 800 0C766.7 0 733.3 0 700 0C666.7 0 633.3 0 600 0C566.7 0 533.3 0 500 0C466.7 0 433.3 0 400 0C366.7 0 333.3 0 300 0C266.7 0 233.3 0 200 0C166.7 0 133.3 0 100 0C66.7 0 33.3 0 16.7 0L0 0Z" fill="#767474"></path>
<path d="M0 92L16.7 95.2C33.3 98.3 66.7 104.7 100 100C133.3 95.3 166.7 79.7 200 68.8C233.3 58 266.7 52 300 57.2C333.3 62.3 366.7 78.7 400 78.3C433.3 78 466.7 61 500 61C533.3 61 566.7 78 600 82.3C633.3 86.7 666.7 78.3 700 70.3C733.3 62.3 766.7 54.7 800 52.3C833.3 50 866.7 53 883.3 54.5L900 56L900 0L883.3 0C866.7 0 833.3 0 800 0C766.7 0 733.3 0 700 0C666.7 0 633.3 0 600 0C566.7 0 533.3 0 500 0C466.7 0 433.3 0 400 0C366.7 0 333.3 0 300 0C266.7 0 233.3 0 200 0C166.7 0 133.3 0 100 0C66.7 0 33.3 0 16.7 0L0 0Z" fill="#646262"></path></svg>