<svg id="visual" viewBox="0 0 900 600" width="900" height="600" xmlns="http://www.w3.org/2000/svg" xmlns:xlink="http://www.w3.org/1999/xlink" version="1.1"><rect x="0" y="0" width="900" height="600" fill="#ffffff"></rect><path d="M0 446L21.5 434C43 422 86 398 128.8 392.8C171.7 387.7 214.3 401.3 257.2 399.7C300 398 343 381 385.8 379.3C428.7 377.7 471.3 391.3 514.2 394.7C557 398 600 391 642.8 391.3C685.7 391.7 728.3 399.3 771.2 400.8C814 402.3 857 397.7 878.5 395.3L900 393L900 601L878.5 601C857 601 814 601 771.2 601C728.3 601 685.7 601 642.8 601C600 601 557 601 514.2 601C471.3 601 428.7 601 385.8 601C343 601 300 601 257.2 601C214.3 601 171.7 601 128.8 601C86 601 43 601 21.5 601L0 601Z" fill="#6a9751"></path><path d="M0 413L21.5 419.3C43 425.7 86 438.3 128.8 436C171.7 433.7 214.3 416.3 257.2 414.2C300 412 343 425 385.8 431.2C428.7 437.3 471.3 436.7 514.2 436C557 435.3 600 434.7 642.8 430.7C685.7 426.7 728.3 419.3 771.2 421.3C814 423.3 857 434.7 878.5 440.3L900 446L900 601L878.5 601C857 601 814 601 771.2 601C728.3 601 685.7 601 642.8 601C600 601 557 601 514.2 601C471.3 601 428.7 601 385.8 601C343 601 300 601 257.2 601C214.3 601 171.7 601 128.8 601C86 601 43 601 21.5 601L0 601Z" fill="#8c8231"></path><path d="M0 464L21.5 467.8C43 471.7 86 479.3 128.8 484.2C171.7 489 214.3 491 257.2 488.7C300 486.3 343 479.7 385.8 471C428.7 462.3 471.3 451.7 514.2 447.2C557 442.7 600 444.3 642.8 449.7C685.7 455 728.3 464 771.2 465.8C814 467.7 857 462.3 878.5 459.7L900 457L900 601L878.5 601C857 601 814 601 771.2 601C728.3 601 685.7 601 642.8 601C600 601 557 601 514.2 601C471.3 601 428.7 601 385.8 601C343 601 300 601 257.2 601C214.3 601 171.7 601 128.8 601C86 601 43 601 21.5 601L0 601Z" fill="#a5682f"></path><path d="M0 492L21.5 495.2C43 498.3 86 504.7 128.8 511.5C171.7 518.3 214.3 525.7 257.2 524.5C300 523.3 343 513.7 385.8 507.5C428.7 501.3 471.3 498.7 514.2 497.2C557 495.7 600 495.3 642.8 499.8C685.7 504.3 728.3 513.7 771.2 513.3C814 513 857 503 878.5 498L900 493L900 601L878.5 601C857 601 814 601 771.2 601C728.3 601 685.7 601 642.8 601C600 601 557 601 514.2 601C471.3 601 428.7 601 385.8 601C343 601 300 601 257.2 601C214.3 601 171.7 601 128.8 601C86 601 43 601 21.5 601L0 601Z" fill="#b04c46"></path><path d="M0 539L21.5 541.5C43 544 86 549 128.8 548.5C171.7 548 214.3 542 257.2 544.3C300 546.7 343 557.3 385.8 559C428.7 560.7 471.3 553.3 514.2 552C557 550.7 600 555.3 642.8 556.8C685.7 558.3 728.3 556.7 771.2 556.2C814 555.7 857 556.3 878.5 556.7L900 557L900 601L878.5 601C857 601 814 601 771.2 601C728.3 601 685.7 601 642.8 601C600 601 557 601 514.2 601C471.3 601 428.7 601 385.8 601C343 601 300 601 257.2 601C214.3 601 171.7 601 128.8 601C86 601 43 601 21.5 601L0 601Z" fill="#a63a67"></path></svg>