<svg width="100" height="100" viewBox="0 0 97 64" fill="none" xmlns="http://www.w3.org/2000/svg">
<g clip-path="url(#clip0_5_68)">
<g filter="url(#filter0_d_5_68)">
<path d="M48.1745 23.7534C46.4815 23.7682 44.8306 24.2542 43.4307 25.15C42.0307 26.0459 40.9445 27.3112 40.3093 28.7862C39.6742 30.2611 39.5187 31.8794 39.8625 33.4363C40.2063 34.9933 41.0339 36.419 42.2407 37.5333C43.4475 38.6475 44.9793 39.4002 46.6425 39.6961C48.3056 39.9921 50.0253 39.818 51.5842 39.196C53.1431 38.5739 54.4711 37.5318 55.4004 36.2014C56.3297 34.871 56.8184 33.312 56.8048 31.7216C56.784 29.5894 55.8636 27.553 54.2457 26.0592C52.6277 24.5653 50.4443 23.7361 48.1745 23.7534ZM48.2998 38.1132C46.9694 38.1248 45.6657 37.7656 44.5535 37.0809C43.4413 36.3962 42.5706 35.4168 42.0515 34.2667C41.5324 33.1165 41.3882 31.8471 41.6372 30.6192C41.8861 29.3912 42.5171 28.2598 43.4502 27.368C44.3833 26.4762 45.5766 25.8641 46.8793 25.6091C48.182 25.3541 49.5356 25.4676 50.7687 25.9353C52.0019 26.4031 53.0593 27.204 53.8073 28.2368C54.5552 29.2696 54.9601 30.4879 54.9707 31.7376C54.9828 33.4125 54.2873 35.0243 53.0368 36.2195C51.7862 37.4147 50.0827 38.0957 48.2998 38.1132Z" fill="url(#paint0_radial_5_68)"/>
<path d="M48.2998 38.1132C46.9694 38.1248 45.6657 37.7656 44.5535 37.0809C43.4413 36.3962 42.5706 35.4168 42.0515 34.2667C41.5324 33.1165 41.3882 31.8471 41.6372 30.6192C41.8861 29.3912 42.5171 28.2598 43.4502 27.368C44.3833 26.4762 45.5766 25.8641 46.8793 25.6091C48.182 25.3541 49.5356 25.4676 50.7687 25.9353C52.0019 26.4031 53.0593 27.204 53.8073 28.2368C54.5552 29.2696 54.9601 30.4879 54.9707 31.7376C54.9828 33.4125 54.2873 35.0243 53.0368 36.2195C51.7862 37.4147 50.0827 38.0957 48.2998 38.1132Z" fill="url(#paint1_radial_5_68)"/>
</g>
<path d="M81.1951 30.7024L67.5649 25.7879C67.0256 25.5934 66.5337 25.299 66.1184 24.922C65.703 24.5451 65.3728 24.0934 65.1474 23.5938C64.9219 23.0943 64.8059 22.5571 64.8061 22.0143C64.8064 21.4715 64.9229 20.9342 65.1488 20.4343L68.0589 13.9921C68.1302 13.833 68.1491 13.6576 68.1131 13.4884C68.0771 13.3193 67.9879 13.1643 67.857 13.0434C67.7261 12.9226 67.5595 12.8414 67.3788 12.8106C67.1982 12.7797 67.0117 12.8006 66.8437 12.8704L60.0377 15.7163C59.5096 15.9371 58.9398 16.0559 58.3621 16.0656C57.7843 16.0753 57.2106 15.9757 56.675 15.7727C56.1393 15.5696 55.6528 15.2674 55.2443 14.8839C54.8358 14.5005 54.5138 14.0436 54.2973 13.5406L48.8271 0.82351C48.7582 0.663256 48.6395 0.526244 48.4865 0.430291C48.3335 0.334338 48.1533 0.283883 47.9692 0.285489C47.7852 0.287095 47.6058 0.340687 47.4545 0.439295C47.3032 0.537904 47.187 0.676966 47.1209 0.838397L41.8739 13.648C41.6663 14.1548 41.3523 14.6172 40.9506 15.0078C40.5489 15.3984 40.0677 15.7091 39.5357 15.9214C39.0037 16.1337 38.4317 16.2434 37.8539 16.2437C37.2761 16.2441 36.7042 16.1352 36.1724 15.9235L29.3198 13.1968C29.1506 13.1302 28.964 13.1128 28.784 13.1469C28.6041 13.181 28.4391 13.265 28.3104 13.3881C28.1817 13.5111 28.0951 13.6676 28.062 13.8372C28.0288 14.0068 28.0506 14.1818 28.1244 14.3395L31.147 20.73C31.3816 21.2259 31.5075 21.7611 31.5172 22.3038C31.5269 22.8465 31.4203 23.3856 31.2036 23.889C30.9869 24.3924 30.6646 24.8498 30.2559 25.2339C29.8472 25.6181 29.3605 25.9211 28.8247 26.1249L15.2792 31.2776C15.1086 31.3425 14.9626 31.4541 14.8603 31.5979C14.758 31.7418 14.7041 31.9112 14.7056 32.0841C14.7071 32.2569 14.7639 32.4254 14.8687 32.5674C14.9735 32.7094 15.1214 32.8185 15.2932 32.8804L28.9234 37.7954C29.4626 37.9899 29.9546 38.2844 30.3699 38.6613C30.7852 39.0382 31.1155 39.4899 31.3409 39.9895C31.5663 40.489 31.6824 41.0262 31.6822 41.569C31.6819 42.1118 31.5654 42.6491 31.3395 43.149L28.4289 49.5907C28.3581 49.7498 28.3396 49.925 28.3758 50.0939C28.412 50.2628 28.5013 50.4175 28.632 50.5382C28.7628 50.6589 28.929 50.74 29.1094 50.7711C29.2898 50.8022 29.476 50.7817 29.644 50.7125L36.4511 47.8675C36.9792 47.6466 37.549 47.5278 38.1268 47.5181C38.7045 47.5083 39.2783 47.6079 39.8139 47.811C40.3496 48.014 40.8361 48.3162 41.2446 48.6997C41.653 49.0833 41.9751 49.5402 42.1915 50.0432L47.6611 62.7593C47.7301 62.9196 47.8487 63.0566 48.0017 63.1525C48.1547 63.2485 48.335 63.2989 48.519 63.2973C48.7031 63.2957 48.8824 63.2421 49.0337 63.1435C49.185 63.0449 49.3013 62.9059 49.3674 62.7444L54.6138 49.9348C54.8215 49.4281 55.1355 48.9657 55.5372 48.5752C55.939 48.1846 56.4202 47.8739 56.9522 47.6616C57.4842 47.4493 58.0561 47.3397 58.6339 47.3393C59.2117 47.3389 59.7835 47.4477 60.3154 47.6593L67.1684 50.3851C67.3376 50.4516 67.5243 50.469 67.7042 50.4349C67.8842 50.4008 68.0492 50.3168 68.1779 50.1938C68.3066 50.0707 68.3931 49.9143 68.4263 49.7447C68.4594 49.5751 68.4377 49.4001 68.3638 49.2423L65.3418 42.8523C65.1072 42.3565 64.9813 41.8213 64.9716 41.2786C64.9619 40.7358 65.0685 40.1967 65.2852 39.6933C65.5019 39.1899 65.8242 38.7325 66.2329 38.3484C66.6416 37.9643 67.1283 37.6612 67.6641 37.4574L81.2064 32.3053C81.3771 32.2404 81.5231 32.1287 81.6254 31.9849C81.7277 31.8411 81.7816 31.6717 81.7801 31.4988C81.7786 31.3259 81.7217 31.1575 81.6169 31.0155C81.5121 30.8734 81.3642 30.7644 81.1924 30.7024L81.1951 30.7024ZM66.9804 35.8604C66.2163 36.151 65.5222 36.583 64.9393 37.1307C64.3564 37.6784 63.8967 38.3306 63.5876 39.0484C63.2785 39.7663 63.1263 40.535 63.1401 41.309C63.1538 42.0829 63.3333 42.8461 63.6677 43.5532L65.7463 47.9477L61.0326 46.0722C60.2743 45.7707 59.4589 45.6157 58.6351 45.6164C57.8113 45.6171 56.9959 45.7736 56.2374 46.0765C55.479 46.3793 54.793 46.8224 54.2204 47.3793C53.6477 47.9362 53.2001 48.5956 52.9041 49.3181L48.491 60.0891L43.8907 49.3968C43.5837 48.6782 43.1254 48.0254 42.5433 47.4775C41.9611 46.9296 41.2671 46.4978 40.5028 46.208C39.7386 45.9183 38.9197 45.7764 38.0953 45.7911C37.271 45.8057 36.458 45.9765 35.7052 46.2932L31.025 48.2507L33.0266 43.8206C33.3486 43.1077 33.5147 42.3415 33.515 41.5674C33.5152 40.7934 33.3496 40.0274 33.028 39.3151C32.7065 38.6027 32.2355 37.9587 31.6431 37.4212C31.0508 36.8838 30.3492 36.4639 29.5802 36.1867L18.1218 32.0557L29.5089 27.7224C30.273 27.4319 30.9671 26.9998 31.55 26.4521C32.1329 25.9044 32.5926 25.2522 32.9017 24.5344C33.2108 23.8166 33.363 23.0478 33.3493 22.2739C33.3355 21.4999 33.1561 20.7367 32.8216 20.0296L30.742 15.6351L35.4557 17.5106C36.214 17.8121 37.0293 17.9671 37.8531 17.9663C38.6768 17.9656 39.4922 17.8092 40.2506 17.5064C41.009 17.2036 41.695 16.7606 42.2677 16.2037C42.8404 15.6469 43.2881 14.9877 43.5841 14.2652L47.9972 3.49517L52.5976 14.1875C52.9062 14.9049 53.3654 15.5564 53.9478 16.1033C54.5303 16.6501 55.224 17.0812 55.9878 17.3707C56.7516 17.6603 57.5698 17.8024 58.3936 17.7886C59.2174 17.7749 60.03 17.6055 60.783 17.2906L65.4633 15.3332L63.4617 19.7633C63.1398 20.4759 62.9737 21.242 62.9734 22.0159C62.9732 22.7897 63.1387 23.5556 63.4601 24.2678C63.7815 24.98 64.2523 25.624 64.8444 26.1614C65.4365 26.6989 66.1378 27.1188 66.9065 27.3961L78.3675 31.5301L66.9804 35.8604Z" fill="url(#paint2_radial_5_68)"/>
<path d="M57.5284 13.6895C57.6797 13.7639 57.8501 13.7972 58.0206 13.7857C58.191 13.7741 58.3547 13.7181 58.4932 13.624L60.5177 12.2431C61.7846 11.3748 62.823 10.2455 63.5532 8.94183C64.2833 7.6382 64.6858 6.19499 64.7296 4.72312L64.7925 2.37619C64.7968 2.2155 64.7532 2.05693 64.6666 1.91841C64.5799 1.7799 64.4537 1.66698 64.3022 1.59243C64.1507 1.51787 63.98 1.48467 63.8093 1.49657C63.6387 1.50847 63.4749 1.565 63.3366 1.65977L61.3137 3.03818C60.0469 3.90651 59.0085 5.03587 58.2783 6.33949C57.5482 7.64311 57.1457 9.08629 57.1017 10.5582L57.041 12.9056C57.0365 13.066 57.0798 13.2243 57.1659 13.3628C57.252 13.5013 57.3775 13.6144 57.5284 13.6895ZM58.9353 10.6003C58.9712 9.39315 59.3012 8.20954 59.8999 7.14039C60.4987 6.07124 61.3503 5.14501 62.3892 4.43289L62.9102 4.07683L62.894 4.68252C62.8582 5.8897 62.5282 7.07341 61.9295 8.14265C61.3307 9.21189 60.4791 10.1382 59.4401 10.8504L58.9191 11.2064L58.9353 10.6003Z" fill="url(#paint3_radial_5_68)"/>
<path d="M39.0336 49.9482C38.8823 49.8736 38.7118 49.8403 38.5413 49.8519C38.3708 49.8636 38.2072 49.9198 38.0688 50.0142L36.0443 51.3926C34.7774 52.2609 33.739 53.3903 33.0088 54.6939C32.2787 55.9975 31.8762 57.4407 31.8323 58.9126L31.7695 61.2595C31.7651 61.4201 31.8085 61.5786 31.895 61.7171C31.9814 61.8556 32.1074 61.9685 32.2587 62.0432C32.41 62.1179 32.5805 62.1513 32.7511 62.1397C32.9216 62.1281 33.0854 62.0719 33.2238 61.9775L35.2483 60.599C36.5153 59.7308 37.5538 58.6015 38.2839 57.2979C39.0141 55.9942 39.4165 54.551 39.4603 53.0791L39.5231 50.7316C39.5273 50.5711 39.4837 50.4127 39.3972 50.2743C39.3107 50.1359 39.1848 50.023 39.0336 49.9482ZM37.6267 53.0375C37.5909 54.2446 37.261 55.4282 36.6622 56.4974C36.0635 57.5666 35.2118 58.4928 34.1728 59.2048L33.6518 59.5609L33.668 58.9552C33.7038 57.748 34.0338 56.5643 34.6325 55.4951C35.2313 54.4258 36.0829 53.4995 37.1219 52.7873L37.6429 52.4313L37.6267 53.0375Z" fill="url(#paint4_radial_5_68)"/>
<path d="M60.8573 51.1293L58.809 49.7864C58.669 49.695 58.5045 49.6421 58.3341 49.6338C58.1637 49.6254 57.9942 49.6619 57.8446 49.7391C57.695 49.8164 57.5713 49.9313 57.4873 50.0709C57.4034 50.2106 57.3626 50.3694 57.3696 50.5296L57.4734 52.8755C57.5428 54.3464 57.9703 55.7824 58.7231 57.0731C59.4759 58.3639 60.534 59.4749 61.8159 60.3208L63.8642 61.6637C64.0042 61.7557 64.1689 61.8091 64.3396 61.8177C64.5104 61.8264 64.6803 61.79 64.8303 61.7127C64.9802 61.6353 65.1042 61.5202 65.1882 61.3802C65.2723 61.2402 65.313 61.081 65.3057 60.9206L65.2019 58.5751C65.1322 57.104 64.7044 55.6678 63.9512 54.377C63.198 53.0862 62.1396 51.9752 60.8573 51.1293ZM62.8643 58.9076C61.813 58.2138 60.9453 57.3026 60.328 56.244C59.7107 55.1855 59.3601 54.0078 59.3033 52.8015L59.2766 52.1957L59.8037 52.5426C60.8549 53.2365 61.7226 54.1478 62.3399 55.2064C62.9572 56.2651 63.3078 57.4428 63.3646 58.6492L63.3914 59.2545L62.8643 58.9076Z" fill="url(#paint5_radial_5_68)"/>
<path d="M35.6308 12.4614L37.6791 13.8048C37.8196 13.8937 37.9834 13.9445 38.1527 13.9517C38.322 13.9589 38.4902 13.9222 38.6388 13.8456C38.7875 13.769 38.9108 13.6555 38.9955 13.5175C39.0801 13.3795 39.1227 13.2223 39.1185 13.0632L39.0148 10.7177C38.9451 9.2468 38.5175 7.81086 37.7647 6.52018C37.0119 5.2295 35.954 4.11843 34.6723 3.27234L32.6276 1.92892C32.4876 1.83673 32.3229 1.78324 32.1521 1.77449C31.9813 1.76575 31.8113 1.80212 31.6612 1.87946C31.5112 1.95681 31.3872 2.07205 31.3032 2.21214C31.2192 2.35223 31.1786 2.51156 31.1861 2.6721L31.2883 5.01612C31.3578 6.487 31.7854 7.92297 32.5382 9.21366C33.291 10.5044 34.349 11.6154 35.6308 12.4614ZM33.6238 4.68312C34.675 5.377 35.5426 6.28823 36.1599 7.34677C36.7772 8.40531 37.1278 9.58298 37.1848 10.7893L37.2115 11.3951L36.6844 11.0482C35.633 10.3547 34.765 9.44381 34.1472 8.38553C33.5295 7.32726 33.1784 6.14975 33.1209 4.94351L33.0941 4.33819L33.6238 4.68312Z" fill="url(#paint6_radial_5_68)"/>
<path d="M67.76 21.9852C67.8344 22.0742 67.9268 22.1484 68.0319 22.2038C68.1369 22.2591 68.2526 22.2945 68.3722 22.3078C68.4919 22.3211 68.6132 22.3121 68.7292 22.2814C68.8452 22.2506 68.9537 22.1987 69.0483 22.1286L73.7832 18.6258C73.88 18.5565 73.9612 18.4698 74.0221 18.3708C74.0829 18.2718 74.1222 18.1624 74.1376 18.049C74.153 17.9356 74.1443 17.8205 74.1119 17.7104C74.0795 17.6003 74.0241 17.4973 73.9489 17.4076C73.8738 17.3178 73.7803 17.243 73.674 17.1875C73.5677 17.132 73.4507 17.097 73.3298 17.0844C73.2089 17.0718 73.0866 17.082 72.9698 17.1143C72.8531 17.1465 72.7443 17.2003 72.6499 17.2724L67.9145 20.7752C67.7233 20.9167 67.5996 21.1236 67.5707 21.3505C67.5417 21.5774 67.6098 21.8057 67.76 21.9852Z" fill="url(#paint7_radial_5_68)"/>
<path d="M69.7509 23.7679C69.8172 23.9327 69.9357 24.0744 70.0904 24.1739C70.2452 24.2735 70.4287 24.326 70.6163 24.3246C70.7245 24.3238 70.8317 24.3049 70.9329 24.2686L80.2389 20.9569C80.3515 20.9168 80.4548 20.8563 80.5426 20.7788C80.6304 20.7013 80.7012 20.6083 80.7508 20.5051C80.8004 20.402 80.8279 20.2906 80.8318 20.1776C80.8356 20.0645 80.8157 19.9518 80.7732 19.846C80.7306 19.7401 80.6663 19.6432 80.5839 19.5608C80.5015 19.4784 80.4026 19.412 80.2928 19.3655C80.1831 19.319 80.0646 19.2933 79.9442 19.2898C79.8238 19.2864 79.7039 19.3052 79.5912 19.3452L70.2852 22.657C70.0577 22.738 69.8736 22.9005 69.7734 23.1088C69.6732 23.3172 69.6651 23.5542 69.7509 23.7679Z" fill="url(#paint8_radial_5_68)"/>
<path d="M22.4822 19.0731L27.2775 22.4927C27.3734 22.5611 27.4827 22.611 27.5992 22.6397C27.7156 22.6684 27.837 22.6752 27.9564 22.6598C28.0757 22.6444 28.1907 22.6071 28.2947 22.55C28.3987 22.4929 28.4898 22.4171 28.5627 22.3269C28.6356 22.2368 28.6889 22.134 28.7195 22.0246C28.7502 21.9151 28.7576 21.8011 28.7413 21.689C28.725 21.5769 28.6854 21.469 28.6247 21.3713C28.5641 21.2736 28.4835 21.1882 28.3876 21.1198L23.5944 17.6987C23.4987 17.6282 23.389 17.5763 23.2717 17.5461C23.1544 17.5159 23.0319 17.5079 22.9113 17.5225C22.7906 17.5372 22.6742 17.5743 22.5689 17.6316C22.4636 17.689 22.3715 17.7654 22.2979 17.8565C22.2243 17.9475 22.1707 18.0514 22.1402 18.1621C22.1098 18.2728 22.103 18.388 22.1204 18.5011C22.1378 18.6142 22.179 18.7228 22.2416 18.8208C22.3041 18.9187 22.3868 19.004 22.4848 19.0716L22.4822 19.0731Z" fill="url(#paint9_radial_5_68)"/>
<path d="M16.0661 21.5165L25.429 24.6654C25.53 24.6996 25.6366 24.7167 25.7439 24.7158C25.9595 24.7142 26.1676 24.6414 26.3318 24.51C26.496 24.3787 26.6058 24.1973 26.6419 23.9976C26.678 23.798 26.6381 23.5929 26.5292 23.4182C26.4203 23.2436 26.2494 23.1107 26.0464 23.0427L16.6856 19.8938C16.5722 19.8557 16.4519 19.839 16.3316 19.8446C16.2113 19.8502 16.0933 19.8779 15.9844 19.9263C15.8755 19.9747 15.7777 20.0428 15.6968 20.1267C15.6158 20.2105 15.5532 20.3085 15.5125 20.4151C15.4719 20.5216 15.4539 20.6346 15.4597 20.7476C15.4655 20.8607 15.495 20.9715 15.5464 21.0737C15.5978 21.176 15.6702 21.2678 15.7593 21.3437C15.8485 21.4197 15.9528 21.4784 16.0661 21.5165Z" fill="url(#paint10_radial_5_68)"/>
<path d="M74.0064 44.5203L69.2111 41.1007C69.1152 41.0323 69.0059 40.9824 68.8895 40.9537C68.773 40.925 68.6516 40.9182 68.5323 40.9336C68.4129 40.949 68.298 40.9863 68.1939 41.0434C68.0899 41.1005 67.9988 41.1763 67.9259 41.2665C67.8531 41.3566 67.7998 41.4594 67.7691 41.5688C67.7385 41.6783 67.7311 41.7923 67.7473 41.9044C67.7636 42.0165 67.8032 42.1244 67.8639 42.2221C67.9246 42.3198 68.0052 42.4052 68.101 42.4736L72.8969 45.8932C72.9926 45.9637 73.1022 46.0156 73.2195 46.0458C73.3368 46.076 73.4593 46.0841 73.58 46.0694C73.7006 46.0547 73.817 46.0176 73.9223 45.9603C74.0276 45.903 74.1198 45.8265 74.1934 45.7355C74.267 45.6444 74.3205 45.5405 74.351 45.4298C74.3815 45.3192 74.3882 45.2039 74.3708 45.0908C74.3534 44.9778 74.3122 44.8691 74.2497 44.7711C74.1871 44.6732 74.1044 44.5879 74.0064 44.5203Z" fill="url(#paint11_radial_5_68)"/>
<path d="M80.423 42.074L71.0606 38.9251C70.9472 38.887 70.8269 38.8702 70.7066 38.8758C70.5863 38.8814 70.4683 38.9092 70.3594 38.9576C70.2505 39.006 70.1527 39.0741 70.0718 39.1579C69.9908 39.2418 69.9282 39.3398 69.8875 39.4463C69.8469 39.5529 69.8289 39.6659 69.8347 39.7789C69.8405 39.8919 69.87 40.0027 69.9214 40.105C69.9728 40.2073 70.0452 40.299 70.1343 40.375C70.2235 40.4509 70.3278 40.5096 70.4411 40.5477L79.8035 43.6966C79.9169 43.7347 80.0372 43.7515 80.1575 43.7459C80.2778 43.7403 80.3958 43.7125 80.5047 43.6641C80.6136 43.6157 80.7114 43.5476 80.7923 43.4638C80.8733 43.3799 80.9359 43.2819 80.9766 43.1754C81.0173 43.0688 81.0352 42.9558 81.0294 42.8428C81.0236 42.7298 80.9941 42.619 80.9427 42.5167C80.8913 42.4144 80.819 42.3227 80.7298 42.2467C80.6406 42.1708 80.5364 42.1121 80.423 42.074Z" fill="url(#paint12_radial_5_68)"/>
<path d="M28.7303 41.6067C28.6559 41.5178 28.5635 41.4436 28.4585 41.3883C28.3535 41.333 28.2379 41.2977 28.1183 41.2844C27.9987 41.2711 27.8774 41.28 27.7615 41.3107C27.6455 41.3415 27.5371 41.3933 27.4424 41.4633L22.7091 44.9676C22.6123 45.0369 22.5311 45.1236 22.4703 45.2226C22.4094 45.3216 22.3702 45.431 22.3547 45.5444C22.3393 45.6578 22.3481 45.7729 22.3805 45.883C22.4128 45.9931 22.4682 46.096 22.5434 46.1858C22.6186 46.2756 22.712 46.3504 22.8183 46.4059C22.9246 46.4613 23.0416 46.4964 23.1625 46.509C23.2834 46.5215 23.4058 46.5114 23.5225 46.4791C23.6393 46.4468 23.748 46.3931 23.8425 46.3209L28.5779 42.8181C28.6727 42.748 28.7518 42.661 28.8108 42.5621C28.8698 42.4632 28.9074 42.3544 28.9216 42.2418C28.9357 42.1293 28.9261 42.0153 28.8933 41.9063C28.8605 41.7973 28.8051 41.6955 28.7303 41.6067Z" fill="url(#paint13_radial_5_68)"/>
<path d="M26.7376 39.822C26.6513 39.6086 26.4785 39.4361 26.2569 39.3423C26.0354 39.2484 25.7833 39.2409 25.5556 39.3213L16.2491 42.6331C16.0474 42.7045 15.8788 42.8404 15.773 43.0169C15.6671 43.1934 15.6308 43.3992 15.6704 43.5982C15.71 43.7972 15.8229 43.9767 15.9894 44.1051C16.1558 44.2336 16.3652 44.3028 16.5807 44.3006C16.6881 44.2996 16.7944 44.2807 16.8947 44.2447L26.2012 40.9329C26.3141 40.893 26.4175 40.8326 26.5055 40.7551C26.5935 40.6777 26.6645 40.5847 26.7143 40.4816C26.7641 40.3784 26.7918 40.2671 26.7958 40.1539C26.7998 40.0407 26.78 39.9279 26.7376 39.822Z" fill="url(#paint14_radial_5_68)"/>
<g filter="url(#filter1_bd_5_68)">
<path d="M48.1343 19.8965C45.6122 19.9185 43.1528 20.6426 41.0672 21.9772C38.9816 23.3118 37.3634 25.1969 36.4172 27.3942C35.4711 29.5916 35.2395 32.0024 35.7517 34.3219C36.2639 36.6414 37.4969 38.7653 39.2948 40.4252C41.0928 42.0851 43.3749 43.2063 45.8525 43.6472C48.3302 44.088 50.8922 43.8286 53.2145 42.9018C55.5369 41.975 57.5152 40.4223 58.8995 38.4403C60.2838 36.4582 61.0118 34.1357 60.9914 31.7664C60.9602 28.5901 59.589 25.5565 57.1787 23.3312C54.7683 21.1059 51.5156 19.8707 48.1343 19.8965ZM48.3284 42.1328C46.1689 42.1517 44.0526 41.5685 42.2472 40.4571C40.4418 39.3457 39.0284 37.7559 38.1857 35.8889C37.343 34.0219 37.1089 31.9614 37.513 29.9681C37.917 27.9748 38.9411 26.1381 40.4557 24.6905C41.9703 23.2428 43.9074 22.2491 46.022 21.835C48.1366 21.4209 50.3337 21.6051 52.3356 22.3642C54.3374 23.1233 56.054 24.4233 57.2682 26.0997C58.4825 27.7762 59.1399 29.7537 59.1573 31.7824C59.1772 34.5014 58.0484 37.1181 56.0183 39.0585C53.9883 40.9988 51.2228 42.1045 48.3284 42.1328Z" fill="url(#paint15_angular_5_68)"/>
</g>
</g>
<defs>
<filter id="filter0_d_5_68" x="29.521" y="13.5903" width="37.4473" height="36.4092" filterUnits="userSpaceOnUse" color-interpolation-filters="sRGB">
<feFlood flood-opacity="0" result="BackgroundImageFix"/>
<feColorMatrix in="SourceAlpha" type="matrix" values="0 0 0 0 0 0 0 0 0 0 0 0 0 0 0 0 0 0 127 0" result="hardAlpha"/>
<feOffset/>
<feGaussianBlur stdDeviation="5.08179"/>
<feComposite in2="hardAlpha" operator="out"/>
<feColorMatrix type="matrix" values="0 0 0 0 0.983218 0 0 0 0 0.88585 0 0 0 0 0.374667 0 0 0 1 0"/>
<feBlend mode="normal" in2="BackgroundImageFix" result="effect1_dropShadow_5_68"/>
<feBlend mode="normal" in="SourceGraphic" in2="effect1_dropShadow_5_68" result="shape"/>
</filter>
<filter id="filter1_bd_5_68" x="19.2246" y="3.6328" width="58.0293" height="56.4844" filterUnits="userSpaceOnUse" color-interpolation-filters="sRGB">
<feFlood flood-opacity="0" result="BackgroundImageFix"/>
<feGaussianBlur in="BackgroundImageFix" stdDeviation="8.13087"/>
<feComposite in2="SourceAlpha" operator="in" result="effect1_backgroundBlur_5_68"/>
<feColorMatrix in="SourceAlpha" type="matrix" values="0 0 0 0 0 0 0 0 0 0 0 0 0 0 0 0 0 0 127 0" result="hardAlpha"/>
<feOffset/>
<feGaussianBlur stdDeviation="4.06543"/>
<feComposite in2="hardAlpha" operator="out"/>
<feColorMatrix type="matrix" values="0 0 0 0 0.658824 0 0 0 0 0.929412 0 0 0 0 0.341176 0 0 0 1 0"/>
<feBlend mode="normal" in2="effect1_backgroundBlur_5_68" result="effect2_dropShadow_5_68"/>
<feBlend mode="normal" in="SourceGraphic" in2="effect2_dropShadow_5_68" result="shape"/>
</filter>
<radialGradient id="paint0_radial_5_68" cx="0" cy="0" r="1" gradientUnits="userSpaceOnUse" gradientTransform="translate(48.2446 31.7948) rotate(89.1823) scale(13.6936 12.7619)">
<stop offset="0.269097" stop-color="#FFD583"/>
<stop offset="0.565972" stop-color="#FCCC51"/>
<stop offset="0.878472" stop-color="#8BE9A0"/>
<stop offset="0.94618" stop-color="#82D65E"/>
</radialGradient>
<radialGradient id="paint1_radial_5_68" cx="0" cy="0" r="1" gradientUnits="userSpaceOnUse" gradientTransform="translate(48.2446 31.7948) rotate(89.1823) scale(13.6936 12.7619)">
<stop offset="0.269097" stop-color="#FFD583"/>
<stop offset="0.565972" stop-color="#FCCC51"/>
<stop offset="0.878472" stop-color="#8BE9A0"/>
<stop offset="0.94618" stop-color="#82D65E"/>
</radialGradient>
<radialGradient id="paint2_radial_5_68" cx="0" cy="0" r="1" gradientUnits="userSpaceOnUse" gradientTransform="translate(48.2428 31.7914) rotate(89.4973) scale(26.664 30.1095)">
<stop offset="0.508047" stop-color="#44CBE4"/>
<stop offset="1" stop-color="#E18EF5"/>
</radialGradient>
<radialGradient id="paint3_radial_5_68" cx="0" cy="0" r="1" gradientUnits="userSpaceOnUse" gradientTransform="translate(60.9167 7.64105) rotate(117.924) scale(10.8051 3.2371)">
<stop stop-color="#A14EA7"/>
<stop offset="1" stop-color="#EC9BF3"/>
</radialGradient>
<radialGradient id="paint4_radial_5_68" cx="0" cy="0" r="1" gradientUnits="userSpaceOnUse" gradientTransform="translate(35.6463 55.9958) rotate(89.5001) scale(6.12011 3.9231)">
<stop stop-color="#C878CF"/>
<stop offset="1" stop-color="#ED9BF4"/>
</radialGradient>
<radialGradient id="paint5_radial_5_68" cx="0" cy="0" r="1" gradientUnits="userSpaceOnUse" gradientTransform="translate(61.3377 55.7258) rotate(61.8728) scale(11.1616 2.32781)">
<stop stop-color="#AB5BB1"/>
<stop offset="1" stop-color="#EC9BF3"/>
</radialGradient>
<radialGradient id="paint6_radial_5_68" cx="0" cy="0" r="1" gradientUnits="userSpaceOnUse" gradientTransform="translate(35.133 7.67526) rotate(69.9634) scale(7.71504 3.2552)">
<stop stop-color="#A14EA7"/>
<stop offset="1" stop-color="#DF9FE3"/>
</radialGradient>
<radialGradient id="paint7_radial_5_68" cx="0" cy="0" r="1" gradientUnits="userSpaceOnUse" gradientTransform="translate(70.8546 19.6965) rotate(89.5001) scale(2.5965 3.30568)">
<stop stop-color="#9C4BA3"/>
<stop offset="1" stop-color="#D685DD"/>
</radialGradient>
<radialGradient id="paint8_radial_5_68" cx="0" cy="0" r="1" gradientUnits="userSpaceOnUse" gradientTransform="translate(75.2621 21.807) rotate(89.5001) scale(2.47693 5.58443)">
<stop stop-color="#9C4BA3"/>
<stop offset="1" stop-color="#D685DD"/>
</radialGradient>
<radialGradient id="paint9_radial_5_68" cx="0" cy="0" r="1" gradientUnits="userSpaceOnUse" gradientTransform="translate(25.4303 20.0916) rotate(89.5001) scale(2.59711 3.3043)">
<stop stop-color="#9C4BA3"/>
<stop offset="1" stop-color="#D685DD"/>
</radialGradient>
<radialGradient id="paint10_radial_5_68" cx="0" cy="0" r="1" gradientUnits="userSpaceOnUse" gradientTransform="translate(21.0567 22.2797) rotate(89.5001) scale(2.47693 5.58416)">
<stop stop-color="#9C4BA3"/>
<stop offset="1" stop-color="#D685DD"/>
</radialGradient>
<radialGradient id="paint11_radial_5_68" cx="0" cy="0" r="1" gradientUnits="userSpaceOnUse" gradientTransform="translate(71.0596 43.501) rotate(89.5001) scale(2.59638 3.30561)">
<stop stop-color="#9C4BA3"/>
<stop offset="1" stop-color="#D685DD"/>
</radialGradient>
<radialGradient id="paint12_radial_5_68" cx="0" cy="0" r="1" gradientUnits="userSpaceOnUse" gradientTransform="translate(75.4321 41.3109) rotate(89.5001) scale(2.47686 5.58449)">
<stop stop-color="#9C4BA3"/>
<stop offset="1" stop-color="#D685DD"/>
</radialGradient>
<radialGradient id="paint13_radial_5_68" cx="0" cy="0" r="1" gradientUnits="userSpaceOnUse" gradientTransform="translate(25.6376 43.8963) rotate(89.5001) scale(2.59712 3.30551)">
<stop stop-color="#9C4BA3"/>
<stop offset="1" stop-color="#D685DD"/>
</radialGradient>
<radialGradient id="paint14_radial_5_68" cx="0" cy="0" r="1" gradientUnits="userSpaceOnUse" gradientTransform="translate(21.2256 41.7833) rotate(89.5001) scale(2.47667 5.58503)">
<stop stop-color="#9C4BA3"/>
<stop offset="1" stop-color="#D685DD"/>
</radialGradient>
<radialGradient id="paint15_angular_5_68" cx="0" cy="0" r="1" gradientUnits="userSpaceOnUse" gradientTransform="translate(49.0033 31.2475) rotate(-109.154) scale(2.62748 8.7943)">
<stop offset="0.133591" stop-color="#7FD04D"/>
<stop offset="0.492422" stop-color="#ADF057"/>
<stop offset="0.888263" stop-color="#8FF1BF"/>
</radialGradient>
<clipPath id="clip0_5_68">
<rect width="67.0796" height="63.0142" fill="white" transform="translate(14.4307 0.585938) rotate(-0.499913)"/>
</clipPath>
</defs>
</svg>
